<svg width="37" height="25" viewBox="0 0 37 25" fill="none" xmlns="http://www.w3.org/2000/svg">
<rect x="0.5" y="0.5" width="36" height="24" rx="7.5" stroke="#01B463"/>
<path d="M26.495 11.0707C26.534 10.7973 26.3441 10.5441 26.0707 10.505C25.7973 10.466 25.5441 10.6559 25.505 10.9293L26.495 11.0707ZM25 18V18.5H25.4336L25.495 18.0707L25 18ZM13.4999 18L13.011 18.1048L13.0957 18.5H13.4999V18ZM12.4889 10.8952C12.431 10.6252 12.1653 10.4532 11.8952 10.5111C11.6252 10.569 11.4532 10.8347 11.5111 11.1048L12.4889 10.8952ZM25.505 10.9293L24.505 17.9293L25.495 18.0707L26.495 11.0707L25.505 10.9293ZM25 17.5H13.4999V18.5H25V17.5ZM13.9888 17.8952L12.4889 10.8952L11.5111 11.1048L13.011 18.1048L13.9888 17.8952Z" fill="#01B463"/>
<path d="M23 11C23 8.79086 21.2091 7 19 7C16.7909 7 15 8.79086 15 11" stroke="#01B463"/>
<path d="M10 10.5H28" stroke="#01B463"/>
</svg>
