<svg width="17" height="18" viewBox="0 0 17 18" fill="none" xmlns="http://www.w3.org/2000/svg">
<circle cx="8.5" cy="9" r="8" fill="#01B463" fill-opacity="0.12"/>
<path d="M9.02945 11.0324V6.78156C9.72036 6.89149 10.0961 7.33124 10.2173 8.06415L11.4901 7.85649C11.3082 6.61055 10.3992 5.81656 9.02945 5.73105V4.71719H8.3143V5.74327C6.64157 5.90207 5.67188 7.06251 5.67188 8.91921C5.67188 10.7515 6.66582 11.9364 8.3143 12.0952V13.1212H9.02945V12.1074C10.3628 12.0097 11.2476 11.2401 11.4779 10.0186L10.2416 9.76206C10.1325 10.4828 9.73248 10.9347 9.02945 11.0324ZM6.99309 8.907C6.99309 7.72213 7.47794 6.95257 8.3143 6.79377V11.0202C7.45369 10.8492 6.99309 10.1041 6.99309 8.907Z" fill="#01B463"/>
</svg>
