<svg width="16" height="16" viewBox="0 0 16 16" fill="none" xmlns="http://www.w3.org/2000/svg">
<circle cx="8" cy="8" r="7.5" stroke="#01B463"/>
<path fill-rule="evenodd" clip-rule="evenodd" d="M9.08933 7.17072C9.52133 6.84193 9.8002 6.32228 9.8002 5.7375C9.8002 4.74339 8.99431 3.9375 8.0002 3.9375C7.00608 3.9375 6.2002 4.74339 6.2002 5.7375C6.2002 6.32228 6.47906 6.84193 6.91106 7.17072C6.69304 7.07694 6.45278 7.02499 6.20039 7.02499C5.20628 7.02499 4.40039 7.83088 4.40039 8.82499C4.40039 9.81911 5.20628 10.625 6.20039 10.625C7.03757 10.625 7.74127 10.0535 7.94257 9.27928L7.41814 12.2578H8.58186L8.05659 9.27453C8.25625 10.0511 8.9611 10.625 9.8 10.625C10.7941 10.625 11.6 9.81911 11.6 8.82499C11.6 7.83088 10.7941 7.02499 9.8 7.02499C9.54761 7.02499 9.30735 7.07694 9.08933 7.17072ZM8.00858 9.00187C8.00827 8.99864 8.00796 8.99542 8.00766 8.99219H8.00688L8.00858 9.00187ZM7.99312 8.99219H7.99273C7.99258 8.99378 7.99243 8.99536 7.99228 8.99695L7.99312 8.99219Z" fill="#01B463"/>
</svg>
