<svg width="15" height="15" viewBox="0 0 15 15" fill="none" xmlns="http://www.w3.org/2000/svg">
<path fill-rule="evenodd" clip-rule="evenodd" d="M13.8754 14.7291L9.29192 10.1456L9.99902 9.43848L14.5825 14.022L13.8754 14.7291Z" fill="#01B463"/>
<path fill-rule="evenodd" clip-rule="evenodd" d="M6.16029 10.8596C8.70228 10.8596 10.763 8.79896 10.763 6.25697C10.763 3.71498 8.70228 1.6543 6.16029 1.6543C3.6183 1.6543 1.55762 3.71498 1.55762 6.25697C1.55762 8.79896 3.6183 10.8596 6.16029 10.8596ZM6.16029 11.8596C9.25456 11.8596 11.763 9.35124 11.763 6.25697C11.763 3.1627 9.25456 0.654297 6.16029 0.654297C3.06602 0.654297 0.557617 3.1627 0.557617 6.25697C0.557617 9.35124 3.06602 11.8596 6.16029 11.8596Z" fill="#01B463"/>
</svg>