<svg id="Layer_1" data-name="Layer 1" xmlns="http://www.w3.org/2000/svg" xmlns:xlink="http://www.w3.org/1999/xlink" viewBox="0 0 603 242"><defs><style>.cls-1{fill:none;}.cls-2{fill:#fff;}.cls-3{clip-path:url(#clip-path);}.cls-4{clip-path:url(#clip-path-2);}</style><clipPath id="clip-path"><rect class="cls-1" x="38" y="162" width="529" height="70"/></clipPath><clipPath id="clip-path-2"><rect class="cls-1" x="-813" y="-646" width="1440" height="1024"/></clipPath></defs><title>about-flip-right</title><path class="cls-2" d="M99.33,201.7a5.84,5.84,0,0,1-8,0c-1.62-1.58-1.87-3.76-1.87-6.13s.25-4.56,1.87-6.13a5.75,5.75,0,0,1,4-1.6,5.68,5.68,0,0,1,4,1.53,5.08,5.08,0,0,1,1.47,3.4H98.85A3.24,3.24,0,0,0,98,190.7a3.61,3.61,0,0,0-2.69-1.09,3.78,3.78,0,0,0-2.71,1.13c-1.22,1.26-1.26,3.28-1.26,4.83s0,3.57,1.26,4.83a3.78,3.78,0,0,0,2.71,1.13,3.68,3.68,0,0,0,2.71-1.13,3.41,3.41,0,0,0,.82-2.14h1.93A5.19,5.19,0,0,1,99.33,201.7Z"/><path class="cls-2" d="M105.68,203.13c-1.55,0-2.23-.92-2.23-2.6V187.84h1.78v12.58c0,.71.23,1.09,1,1.09a6.71,6.71,0,0,0,.73,0V203A4.65,4.65,0,0,1,105.68,203.13Z"/><path class="cls-2" d="M117.27,203.15a1.51,1.51,0,0,1-1.53-1.62h0a3.87,3.87,0,0,1-3.42,1.74,3.33,3.33,0,0,1-3.65-3.28c0-1.37.88-3.15,3.78-3.32l3.23-.19v-.78a2.09,2.09,0,0,0-.55-1.62,2.39,2.39,0,0,0-1.74-.55,2.63,2.63,0,0,0-1.93.63,1.74,1.74,0,0,0-.53,1.28h-1.74a3.15,3.15,0,0,1,.92-2.23,4.57,4.57,0,0,1,3.28-1.13c2.06,0,3.23.88,3.74,2a4.07,4.07,0,0,1,.32,1.64v5.14c0,.57.23.71.59.71a2.6,2.6,0,0,0,.46-.06v1.32A2.46,2.46,0,0,1,117.27,203.15Zm-1.64-5.27-2.86.17c-1.07.06-2.33.57-2.33,1.91,0,.95.59,1.83,2.1,1.83a3,3,0,0,0,2.18-.86,3.43,3.43,0,0,0,.9-2.42Z"/><path class="cls-2" d="M121.07,189.94v-2.1h2.08v2.1Zm.13,13.06V192.38H123V203Z"/><path class="cls-2" d="M139.76,203v-6.76c0-1.49-.48-2.52-2.16-2.52a2.15,2.15,0,0,0-1.62.71,4.06,4.06,0,0,0-.9,2.92V203h-1.79v-6.76c0-1.49-.44-2.52-2.14-2.52a2.26,2.26,0,0,0-1.81.94,4.69,4.69,0,0,0-.71,2.69V203h-1.78V192.38h1.55l.17,1.51a3.23,3.23,0,0,1,3-1.78,3.09,3.09,0,0,1,3.17,2,3.5,3.5,0,0,1,3.28-2c2.41,0,3.55,1.55,3.55,3.9v7Z"/><path class="cls-2" d="M153.32,203.15a2.61,2.61,0,0,1-2.92-2.88v-6.36h-2.06v-1.53h2.06v-2.71l1.79-.42v3.13h3.15v1.53h-3.15v6.15c0,1,.44,1.45,1.43,1.45a13.06,13.06,0,0,0,1.83-.19v1.53A7.73,7.73,0,0,1,153.32,203.15Z"/><path class="cls-2" d="M164.75,203v-6.74c0-1.6-.65-2.54-2.33-2.54a2.6,2.6,0,0,0-2.31,1.64,7,7,0,0,0-.38,2.71V203h-1.79V187.84h1.79v5.94a3.61,3.61,0,0,1,3.11-1.68c2.41,0,3.7,1.45,3.7,3.9v7Z"/><path class="cls-2" d="M170.06,189.94v-2.1h2.08v2.1Zm.13,13.06V192.38H172V203Z"/><path class="cls-2" d="M182.87,202.08a5.58,5.58,0,0,1-6.91,0,3.44,3.44,0,0,1-1-2.44h1.78a2.07,2.07,0,0,0,.86,1.66,3.36,3.36,0,0,0,1.91.48,2.88,2.88,0,0,0,2-.59A1.51,1.51,0,0,0,182,200c0-.8-.57-1.36-1.66-1.51l-2.39-.31a2.76,2.76,0,0,1-2.6-2.86,3.05,3.05,0,0,1,.88-2.08,4.32,4.32,0,0,1,3.13-1.18,4.22,4.22,0,0,1,3.38,1.34,3,3,0,0,1,.76,2h-1.79a1.92,1.92,0,0,0-.61-1.32,2.49,2.49,0,0,0-1.74-.57,2.75,2.75,0,0,0-1.24.21,1.59,1.59,0,0,0-1.07,1.43c0,.88.54,1.26,1.43,1.39.59.08,1.43.17,2.56.36a3,3,0,0,1,1.87,5.1Z"/><path class="cls-2" d="M200.49,201.7a5.84,5.84,0,0,1-8,0c-1.62-1.58-1.87-3.76-1.87-6.13s.25-4.56,1.87-6.13a5.76,5.76,0,0,1,4-1.6,5.68,5.68,0,0,1,4,1.53,5.08,5.08,0,0,1,1.47,3.4H200a3.23,3.23,0,0,0-.82-2.08,3.6,3.6,0,0,0-2.69-1.09,3.78,3.78,0,0,0-2.71,1.13c-1.22,1.26-1.26,3.28-1.26,4.83s0,3.57,1.26,4.83a3.78,3.78,0,0,0,2.71,1.13,3.68,3.68,0,0,0,2.71-1.13,3.41,3.41,0,0,0,.82-2.14H202A5.18,5.18,0,0,1,200.49,201.7Z"/><path class="cls-2" d="M206.83,203.13c-1.55,0-2.22-.92-2.22-2.6V187.84h1.78v12.58c0,.71.23,1.09,1,1.09a6.71,6.71,0,0,0,.73,0V203A4.65,4.65,0,0,1,206.83,203.13Z"/><path class="cls-2" d="M217.71,202a4.78,4.78,0,0,1-6.42,0,7,7,0,0,1,0-8.69,4.78,4.78,0,0,1,6.42,0,7,7,0,0,1,0,8.69Zm-1.3-7.64a2.79,2.79,0,0,0-3.82,0,6,6,0,0,0,0,6.59,2.79,2.79,0,0,0,3.82,0,6,6,0,0,0,0-6.59Z"/><path class="cls-2" d="M226.28,203h-1.93l-3.93-10.62h1.87l3.06,8.52,3-8.52h1.81Z"/><path class="cls-2" d="M240.68,198.28h-7.52a3.92,3.92,0,0,0,1,2.67,3,3,0,0,0,3.93.06,2.25,2.25,0,0,0,.63-1.16h1.74a3.91,3.91,0,0,1-1.64,2.62,4.89,4.89,0,0,1-2.71.8,4.53,4.53,0,0,1-3.53-1.6,6,6,0,0,1-1.32-3.95,6.49,6.49,0,0,1,.82-3.4,4.55,4.55,0,0,1,4-2.22,4.27,4.27,0,0,1,3.23,1.36,5.48,5.48,0,0,1,1.34,3.74Zm-2.46-3.7a2.52,2.52,0,0,0-2.1-1,3,3,0,0,0-2.92,3.13h5.67A3.71,3.71,0,0,0,238.22,194.58Z"/><path class="cls-2" d="M248.37,194a2.91,2.91,0,0,0-2,.84c-.86.82-1,2.29-1,3.4V203h-1.76V192.38h1.57l.15,1.87a3.3,3.3,0,0,1,3.17-1.93,5.65,5.65,0,0,1,.84.06v1.74A5.19,5.19,0,0,0,248.37,194Z"/><path class="cls-2" d="M264.07,203.15a1.51,1.51,0,0,1-1.53-1.62h0a3.87,3.87,0,0,1-3.42,1.74,3.33,3.33,0,0,1-3.65-3.28c0-1.37.88-3.15,3.78-3.32l3.23-.19v-.78a2.09,2.09,0,0,0-.55-1.62,2.39,2.39,0,0,0-1.74-.55,2.63,2.63,0,0,0-1.93.63,1.74,1.74,0,0,0-.53,1.28h-1.74a3.15,3.15,0,0,1,.92-2.23,4.57,4.57,0,0,1,3.28-1.13c2.06,0,3.23.88,3.74,2a4.07,4.07,0,0,1,.32,1.64v5.14c0,.57.23.71.59.71a2.6,2.6,0,0,0,.46-.06v1.32A2.46,2.46,0,0,1,264.07,203.15Zm-1.64-5.27-2.86.17c-1.07.06-2.33.57-2.33,1.91,0,.95.59,1.83,2.1,1.83a3,3,0,0,0,2.18-.86,3.43,3.43,0,0,0,.9-2.42Z"/><path class="cls-2" d="M274.81,203v-6.74c0-1.6-.65-2.54-2.33-2.54a2.6,2.6,0,0,0-2.31,1.64,7,7,0,0,0-.38,2.71V203H268V192.38h1.55l.15,1.6a3.6,3.6,0,0,1,3.21-1.87c2.41,0,3.67,1.45,3.67,3.9v7Z"/><path class="cls-2" d="M287.22,203l-.13-1.39a3.72,3.72,0,0,1-3.17,1.66,4,4,0,0,1-3-1.16,7.14,7.14,0,0,1,.08-8.94,4.16,4.16,0,0,1,2.92-1.07,3.7,3.7,0,0,1,3.09,1.51v-5.77h1.79V203Zm-1.28-8.69a2.45,2.45,0,0,0-1.72-.69c-2.37,0-3,2.12-3,4.07s.63,4.07,3,4.07a2.45,2.45,0,0,0,1.72-.69,5.45,5.45,0,0,0,0-6.76Z"/><path class="cls-2" d="M306.3,203l-2.81-6.19h-4.12V203h-1.87V188.11h5.84a5,5,0,0,1,3.78,1.32,4.21,4.21,0,0,1,1.18,3,4,4,0,0,1-1.13,2.94,4.29,4.29,0,0,1-1.79,1l3,6.55Zm-3-13.16h-4v5.23h4c1.76,0,3-.71,3-2.6S305.11,189.84,303.34,189.84Z"/><path class="cls-2" d="M319.51,198.28H312a3.92,3.92,0,0,0,1,2.67A3,3,0,0,0,317,201a2.25,2.25,0,0,0,.63-1.16h1.74a3.91,3.91,0,0,1-1.64,2.62,4.9,4.9,0,0,1-2.71.8,4.53,4.53,0,0,1-3.53-1.6,6,6,0,0,1-1.32-3.95,6.49,6.49,0,0,1,.82-3.4,4.55,4.55,0,0,1,4-2.22,4.28,4.28,0,0,1,3.23,1.36,5.48,5.48,0,0,1,1.34,3.74Zm-2.46-3.7a2.52,2.52,0,0,0-2.1-1,3,3,0,0,0-2.92,3.13h5.67A3.71,3.71,0,0,0,317.06,194.58Z"/><path class="cls-2" d="M330.62,206.72c-1,1-2.79,1.24-4.28,1.24a5.62,5.62,0,0,1-4-1.24,2.57,2.57,0,0,1-.76-1.89,2.61,2.61,0,0,1,1.51-2.35,1.92,1.92,0,0,1-1.24-1.78,2.3,2.3,0,0,1,1.41-2.06,3.76,3.76,0,0,1-1.22-2.75,3.51,3.51,0,0,1,1-2.58,4.16,4.16,0,0,1,3.15-1.2,4.51,4.51,0,0,1,2.44.63,2.25,2.25,0,0,1,2.18-1.49,4.52,4.52,0,0,1,.52,0v1.45a2.34,2.34,0,0,0-.4,0,1.22,1.22,0,0,0-1.3,1,3.42,3.42,0,0,1,.69,2.21,3.76,3.76,0,0,1-1,2.54,4.17,4.17,0,0,1-3.17,1.26,4.7,4.7,0,0,1-1.79-.29,1.19,1.19,0,0,0-.9.95c-.06.92.92,1,1.6,1s2.1,0,2.1,0a4.93,4.93,0,0,1,3.51,1.11,2.86,2.86,0,0,1,.84,2.08A3,3,0,0,1,330.62,206.72Zm-4.18-3.82h-1.93a1.84,1.84,0,0,0-1.34,1.68,1.5,1.5,0,0,0,.44,1.11,4.06,4.06,0,0,0,2.83.73,4.35,4.35,0,0,0,2.9-.76,1.48,1.48,0,0,0,.44-1.09C329.78,202.77,327.79,202.89,326.44,202.89Zm-.29-9.34a2.35,2.35,0,1,0,0,4.7,2.3,2.3,0,0,0,2.41-2.37A2.24,2.24,0,0,0,326.15,193.55Z"/><path class="cls-2" d="M333.58,189.94v-2.1h2.08v2.1Zm.13,13.06V192.38h1.83V203Z"/><path class="cls-2" d="M346.39,202.08a5.58,5.58,0,0,1-6.91,0,3.43,3.43,0,0,1-1-2.44h1.79a2.07,2.07,0,0,0,.86,1.66,3.37,3.37,0,0,0,1.91.48,2.88,2.88,0,0,0,2-.59,1.51,1.51,0,0,0,.52-1.16c0-.8-.57-1.36-1.66-1.51l-2.39-.31a2.76,2.76,0,0,1-2.6-2.86,3.06,3.06,0,0,1,.88-2.08,4.33,4.33,0,0,1,3.13-1.18,4.22,4.22,0,0,1,3.38,1.34,3,3,0,0,1,.76,2H345.2a1.93,1.93,0,0,0-.61-1.32,2.5,2.5,0,0,0-1.74-.57,2.75,2.75,0,0,0-1.24.21,1.59,1.59,0,0,0-1.07,1.43c0,.88.55,1.26,1.43,1.39.59.08,1.43.17,2.56.36a3,3,0,0,1,1.87,5.1Z"/><path class="cls-2" d="M353.49,203.15a2.61,2.61,0,0,1-2.92-2.88v-6.36h-2.06v-1.53h2.06v-2.71l1.78-.42v3.13h3.15v1.53h-3.15v6.15c0,1,.44,1.45,1.43,1.45a13.09,13.09,0,0,0,1.83-.19v1.53A7.75,7.75,0,0,1,353.49,203.15Z"/><path class="cls-2" d="M366.45,198.28h-7.52a3.91,3.91,0,0,0,1,2.67,3,3,0,0,0,3.93.06,2.26,2.26,0,0,0,.63-1.16h1.74a3.91,3.91,0,0,1-1.64,2.62,4.89,4.89,0,0,1-2.71.8,4.53,4.53,0,0,1-3.53-1.6,6,6,0,0,1-1.32-3.95,6.49,6.49,0,0,1,.82-3.4,4.55,4.55,0,0,1,4-2.22,4.27,4.27,0,0,1,3.23,1.36,5.47,5.47,0,0,1,1.34,3.74Zm-2.46-3.7a2.52,2.52,0,0,0-2.1-1,3,3,0,0,0-2.92,3.13h5.67A3.71,3.71,0,0,0,364,194.58Z"/><path class="cls-2" d="M374.13,194a2.91,2.91,0,0,0-2,.84c-.86.82-1,2.29-1,3.4V203h-1.76V192.38H371l.15,1.87a3.3,3.3,0,0,1,3.17-1.93,5.64,5.64,0,0,1,.84.06v1.74A5.18,5.18,0,0,0,374.13,194Z"/><path class="cls-2" d="M389.23,202a4.78,4.78,0,0,1-6.42,0,7,7,0,0,1,0-8.69,4.78,4.78,0,0,1,6.42,0,7,7,0,0,1,0,8.69Zm-1.3-7.64a2.79,2.79,0,0,0-3.82,0,6,6,0,0,0,0,6.59,2.79,2.79,0,0,0,3.82,0,6,6,0,0,0,0-6.59Z"/><path class="cls-2" d="M400.55,203v-6.74c0-1.6-.65-2.54-2.33-2.54a2.6,2.6,0,0,0-2.31,1.64,7,7,0,0,0-.38,2.71V203h-1.78V192.38h1.55l.15,1.6a3.6,3.6,0,0,1,3.21-1.87c2.41,0,3.67,1.45,3.67,3.9v7Z"/><path class="cls-2" d="M412.71,189.84v4.85h6.93v1.76h-6.93V203h-1.87V188.11h9.64v1.72Z"/><path class="cls-2" d="M425.1,203.13c-1.55,0-2.23-.92-2.23-2.6V187.84h1.79v12.58c0,.71.23,1.09,1,1.09a6.74,6.74,0,0,0,.74,0V203A4.66,4.66,0,0,1,425.1,203.13Z"/><path class="cls-2" d="M428.84,189.94v-2.1h2.08v2.1ZM429,203V192.38h1.83V203Z"/><path class="cls-2" d="M442.4,202.22a4.16,4.16,0,0,1-2.92,1.07,3.71,3.71,0,0,1-3.09-1.51v5.77h-1.78V192.4h1.58l.13,1.39a3.72,3.72,0,0,1,3.17-1.66,4,4,0,0,1,3,1.16,7.14,7.14,0,0,1-.08,8.94Zm-3.21-8.59a2.45,2.45,0,0,0-1.72.69,5.45,5.45,0,0,0,0,6.76,2.45,2.45,0,0,0,1.72.69c2.37,0,3-2.12,3-4.07S441.56,193.64,439.19,193.64Z"/><path class="cls-2" d="M464.41,203V190.44l-4.62,12.35h-1.47l-4.62-12.45V203h-1.79V188.11h2.69l4.49,12.12,4.47-12.12h2.63V203Z"/><path class="cls-2" d="M477.89,203.15a1.51,1.51,0,0,1-1.53-1.62h0a3.87,3.87,0,0,1-3.42,1.74,3.33,3.33,0,0,1-3.65-3.28c0-1.37.88-3.15,3.78-3.32l3.23-.19v-.78a2.09,2.09,0,0,0-.55-1.62,2.39,2.39,0,0,0-1.74-.55,2.63,2.63,0,0,0-1.93.63,1.74,1.74,0,0,0-.53,1.28h-1.74a3.15,3.15,0,0,1,.92-2.23A4.57,4.57,0,0,1,474,192.1c2.06,0,3.23.88,3.74,2a4.07,4.07,0,0,1,.32,1.64v5.14c0,.57.23.71.59.71a2.6,2.6,0,0,0,.46-.06v1.32A2.46,2.46,0,0,1,477.89,203.15Zm-1.64-5.27-2.86.17c-1.07.06-2.33.57-2.33,1.91,0,.95.59,1.83,2.1,1.83a3,3,0,0,0,2.18-.86,3.43,3.43,0,0,0,.9-2.42Z"/><path class="cls-2" d="M486.57,194a2.91,2.91,0,0,0-2,.84c-.86.82-1,2.29-1,3.4V203h-1.76V192.38h1.58l.15,1.87a3.3,3.3,0,0,1,3.17-1.93,5.64,5.64,0,0,1,.84.06v1.74A5.18,5.18,0,0,0,486.57,194Z"/><path class="cls-2" d="M496.94,203l-3.32-5.12-2,2.27V203H489.8V187.84h1.79v9.89l4.81-5.35h2.16l-3.78,4.2L499,203Z"/><path class="cls-2" d="M509.5,198.28H502a3.92,3.92,0,0,0,1,2.67,3,3,0,0,0,3.93.06,2.25,2.25,0,0,0,.63-1.16h1.74a3.91,3.91,0,0,1-1.64,2.62,4.89,4.89,0,0,1-2.71.8,4.53,4.53,0,0,1-3.53-1.6,6,6,0,0,1-1.32-3.95,6.49,6.49,0,0,1,.82-3.4,4.55,4.55,0,0,1,4-2.22,4.27,4.27,0,0,1,3.23,1.36,5.48,5.48,0,0,1,1.34,3.74Zm-2.46-3.7a2.52,2.52,0,0,0-2.1-1,3,3,0,0,0-2.92,3.13h5.67A3.71,3.71,0,0,0,507,194.58Z"/><path class="cls-2" d="M515.71,203.15a2.61,2.61,0,0,1-2.92-2.88v-6.36h-2.06v-1.53h2.06v-2.71l1.78-.42v3.13h3.15v1.53h-3.15v6.15c0,1,.44,1.45,1.43,1.45a13.09,13.09,0,0,0,1.83-.19v1.53A7.74,7.74,0,0,1,515.71,203.15Z"/><g class="cls-3"><g class="cls-4"><path class="cls-2" d="M568,233H37V161H568ZM39,231H566V163H39Z"/></g></g><path class="cls-2" d="M123.52,17v6h-1.89V17l-5-8.84h2.1l3.91,7.08,3.88-7.08h2Z"/><path class="cls-2" d="M136.35,22a4.78,4.78,0,0,1-6.43,0,5.8,5.8,0,0,1-1.51-4.35,5.79,5.79,0,0,1,1.51-4.35,4.79,4.79,0,0,1,6.43,0,5.79,5.79,0,0,1,1.51,4.35A5.8,5.8,0,0,1,136.35,22ZM135,14.39a2.79,2.79,0,0,0-3.82,0,4.76,4.76,0,0,0-1,3.3,4.76,4.76,0,0,0,1,3.3A2.79,2.79,0,0,0,135,21a4.76,4.76,0,0,0,1-3.3A4.76,4.76,0,0,0,135,14.39Z"/><path class="cls-2" d="M147.63,23l-.15-1.62a3.45,3.45,0,0,1-3.15,1.87c-2.42,0-3.63-1.45-3.63-3.91v-7h1.79v6.72c0,1.6.59,2.54,2.27,2.54a2.4,2.4,0,0,0,1.76-.8,4.27,4.27,0,0,0,.88-2.94V12.38h1.79V23Z"/><path class="cls-2" d="M168.35,23h-1.72l-2.77-8.12L161,23h-1.7L156.6,12.38h1.76l2,8,2.71-7.89h1.53l2.67,7.89,2.06-8h1.74Z"/><path class="cls-2" d="M173.65,9.94V7.84h2.08v2.1ZM173.77,23V12.38h1.83V23Z"/><path class="cls-2" d="M181.59,23.13c-1.55,0-2.23-.92-2.23-2.6V7.84h1.79V20.42c0,.71.23,1.09,1,1.09a6.74,6.74,0,0,0,.74,0V23A4.66,4.66,0,0,1,181.59,23.13Z"/><path class="cls-2" d="M187.61,23.13c-1.55,0-2.22-.92-2.22-2.6V7.84h1.78V20.42c0,.71.23,1.09,1,1.09a6.71,6.71,0,0,0,.73,0V23A4.65,4.65,0,0,1,187.61,23.13Z"/><path class="cls-2" d="M201,14a2.91,2.91,0,0,0-2,.84c-.86.82-1,2.29-1,3.4V23h-1.76V12.38h1.57l.15,1.87a3.3,3.3,0,0,1,3.17-1.93,5.65,5.65,0,0,1,.84.06v1.74A5.19,5.19,0,0,0,201,14Z"/><path class="cls-2" d="M212.54,18.28H205a3.92,3.92,0,0,0,1,2.67A3,3,0,0,0,210,21a2.25,2.25,0,0,0,.63-1.16h1.74a3.91,3.91,0,0,1-1.64,2.62,4.9,4.9,0,0,1-2.71.8,4.53,4.53,0,0,1-3.53-1.6,6,6,0,0,1-1.32-3.95,6.49,6.49,0,0,1,.82-3.4,4.55,4.55,0,0,1,4-2.22,4.28,4.28,0,0,1,3.23,1.36,5.48,5.48,0,0,1,1.34,3.74Zm-2.46-3.7a2.52,2.52,0,0,0-2.1-1,3,3,0,0,0-2.92,3.13h5.67A3.71,3.71,0,0,0,210.08,14.58Z"/><path class="cls-2" d="M222.49,22.12a4.21,4.21,0,0,1-3.07,1.16,4.45,4.45,0,0,1-3.88-2,6.29,6.29,0,0,1-.88-3.59,6.29,6.29,0,0,1,.88-3.59,4.4,4.4,0,0,1,3.86-2,4.23,4.23,0,0,1,3,1.13A4.07,4.07,0,0,1,223.69,16h-1.8a2.67,2.67,0,0,0-.76-1.66,2.49,2.49,0,0,0-1.72-.65,2.69,2.69,0,0,0-1.85.69,4.35,4.35,0,0,0-1.07,3.34A4.35,4.35,0,0,0,217.56,21a2.68,2.68,0,0,0,1.85.69,2.49,2.49,0,0,0,1.81-.71,2.63,2.63,0,0,0,.71-1.58h1.81A4,4,0,0,1,222.49,22.12Z"/><path class="cls-2" d="M235.11,18.28H227.6a3.91,3.91,0,0,0,1,2.67,3,3,0,0,0,3.93.06,2.26,2.26,0,0,0,.63-1.16h1.74a3.91,3.91,0,0,1-1.64,2.62,4.9,4.9,0,0,1-2.71.8,4.53,4.53,0,0,1-3.53-1.6,6,6,0,0,1-1.32-3.95,6.49,6.49,0,0,1,.82-3.4,4.55,4.55,0,0,1,4-2.22,4.28,4.28,0,0,1,3.23,1.36,5.47,5.47,0,0,1,1.34,3.74Zm-2.46-3.7a2.52,2.52,0,0,0-2.1-1,3,3,0,0,0-2.92,3.13h5.67A3.71,3.71,0,0,0,232.66,14.58Z"/><path class="cls-2" d="M237.93,9.94V7.84H240v2.1ZM238.05,23V12.38h1.83V23Z"/><path class="cls-2" d="M247.86,23h-1.93L242,12.38h1.87l3.06,8.52,3-8.52h1.81Z"/><path class="cls-2" d="M262.26,18.28h-7.52a3.91,3.91,0,0,0,1,2.67,3,3,0,0,0,3.93.06,2.26,2.26,0,0,0,.63-1.16h1.74a3.91,3.91,0,0,1-1.64,2.62,4.89,4.89,0,0,1-2.71.8,4.53,4.53,0,0,1-3.53-1.6,6,6,0,0,1-1.32-3.95,6.49,6.49,0,0,1,.82-3.4,4.55,4.55,0,0,1,4-2.22,4.27,4.27,0,0,1,3.23,1.36,5.47,5.47,0,0,1,1.34,3.74Zm-2.46-3.7a2.52,2.52,0,0,0-2.1-1,3,3,0,0,0-2.92,3.13h5.67A3.71,3.71,0,0,0,259.81,14.58Z"/><path class="cls-2" d="M249.95,76a27.78,27.78,0,0,0-3.07-.13,34.19,34.19,0,0,0-6,.51,20.31,20.31,0,0,0,2.37-3.26,9.84,9.84,0,0,0,1.44-3.74c-1.89,1.76-3,2.27-5,2.27a7.09,7.09,0,0,1-4.64-12.19,7.05,7.05,0,0,1,4.32-1.73,12,12,0,0,1,1.7.13,6.45,6.45,0,0,1-1-3.36,6.88,6.88,0,1,1,13.76-.06,6.16,6.16,0,0,1-1,3.46,15.14,15.14,0,0,1,1.89-.13,6.9,6.9,0,0,1,5,2.59,7.05,7.05,0,0,1,1.47,4.32,6.79,6.79,0,0,1-6.78,7c-2,0-3.23-.51-5.18-2.24a7.64,7.64,0,0,0,1.18,3.33,22.21,22.21,0,0,0,2.82,3.62C252.57,76.24,252.57,76.24,249.95,76Zm-1.54-5.5A15.38,15.38,0,0,1,248,66.9c-.1-1.38-.1-1.38-.1-1.5a.55.55,0,0,1,.54-.58c.32,0,.42.16.51.93a3.85,3.85,0,0,0,.67,1.86,5.46,5.46,0,0,0,4.77,2.75,5.62,5.62,0,0,0,5.6-5.76,6,6,0,0,0-1.44-3.84,5.35,5.35,0,0,0-4.16-1.86,5.21,5.21,0,0,0-3.55,1.25c-.42.32-.61.42-.8.42a.55.55,0,0,1-.48-.51c0-.19.1-.32.54-.7a7.23,7.23,0,0,0,.83-.86,6.09,6.09,0,0,0,1.73-4.16A5.62,5.62,0,0,0,247,48.59a5.36,5.36,0,0,0-4.48,2.34,5.81,5.81,0,0,0-1.15,3.33,7,7,0,0,0,2,4.42,4.91,4.91,0,0,0,.7.67,1.15,1.15,0,0,1,.45.77.45.45,0,0,1-.48.45c-.22,0-.58-.22-1.44-.9a4.71,4.71,0,0,0-2.72-.8,5.94,5.94,0,0,0-4.26,1.86,5.64,5.64,0,1,0,9.22,6.11,4.93,4.93,0,0,0,.38-1.66c.06-.29.16-.38.42-.38.42,0,.58.16.58.54a17.45,17.45,0,0,1-.61,5.31,15,15,0,0,1-2,4.16,22.87,22.87,0,0,1,3.46-.19,28.92,28.92,0,0,1,3.29.16A12.34,12.34,0,0,1,248.41,70.45Z"/><path class="cls-2" d="M42.92,107l-.22.94a1.52,1.52,0,0,0-.39,0c-.69,0-1.13.35-1.36,1.29l-.17.66h1.4l-.24,1h-1.4L39,117H37.78l1.53-6.14H38.06l.24-1h1.26l.24-1A2.26,2.26,0,0,1,42.15,107,3.81,3.81,0,0,1,42.92,107Z"/><path class="cls-2" d="M48.56,112.69c0,2-1.33,4.51-4,4.51-1.85,0-2.84-1.11-2.84-3s1.32-4.51,4-4.51A2.66,2.66,0,0,1,48.56,112.69ZM43,114.2c0,1.25.56,2,1.68,2,1.77,0,2.62-2.07,2.62-3.5,0-1.25-.57-2-1.71-2C43.84,110.7,43,112.77,43,114.2Z"/><path class="cls-2" d="M54.82,109.87,54.54,111c-.15,0-.34,0-.49,0a2.78,2.78,0,0,0-2.7,2.44l-.9,3.63H49.22L51,109.88h1.18l-.25,1h0a3.18,3.18,0,0,1,2.37-1.06A2.17,2.17,0,0,1,54.82,109.87Z"/><path class="cls-2" d="M62.42,107c3,0,4.58,1.5,4.58,4.26A5.66,5.66,0,0,1,61,117H57.55L60,107Zm-3.32,8.83H61a4.37,4.37,0,0,0,4.59-4.48c0-2.09-1.09-3.19-3.28-3.19H61Z"/><path class="cls-2" d="M67.33,117l1.76-7.12h1.23L68.57,117Zm2.14-8.59.34-1.39H71l-.34,1.39Z"/><path class="cls-2" d="M77.18,111.83a4,4,0,0,1-.13.94l-.6,2.41a8,8,0,0,0-.29,1.82H75a4.16,4.16,0,0,1,.13-.9h0a3.21,3.21,0,0,1-2.47,1.05c-1.39,0-2.16-.74-2.16-1.83s.63-2.13,3.14-2.51c.69-.1,1.64-.2,2.24-.22l0-.13a3.41,3.41,0,0,0,.08-.63c0-.83-.55-1.19-1.39-1.19a1.76,1.76,0,0,0-1.83,1.42H71.56a3,3,0,0,1,3.14-2.37C76.27,109.69,77.18,110.37,77.18,111.83Zm-1.51,1.7c-.56,0-1.34.11-1.92.2-1.58.25-1.93.81-1.93,1.44s.45,1,1.26,1a2.48,2.48,0,0,0,2.44-2.07Z"/><path class="cls-2" d="M84.07,111.13h0l.31-1.25h1.19l-1.74,7a3.45,3.45,0,0,1-3.61,2.79c-1.71,0-2.62-.7-2.62-1.86a2,2,0,0,1,0-.39h1.22a1,1,0,0,0,0,.29c0,.64.52,1,1.44,1,1.25,0,2-.63,2.42-2.16l.15-.63h0a3.08,3.08,0,0,1-2.21,1c-1.48,0-2.33-1.06-2.33-2.79,0-1.89,1.32-4.44,3.71-4.44A2,2,0,0,1,84.07,111.13ZM79.6,114c0,1.16.52,1.88,1.46,1.88,1.71,0,2.59-1.93,2.59-3.29,0-1.18-.57-1.88-1.6-1.88C80.45,110.72,79.6,112.73,79.6,114Z"/><path class="cls-2" d="M93.07,112.69c0,2-1.33,4.51-4,4.51-1.85,0-2.84-1.11-2.84-3s1.32-4.51,3.95-4.51A2.66,2.66,0,0,1,93.07,112.69Zm-5.56,1.51c0,1.25.56,2,1.68,2,1.76,0,2.62-2.07,2.62-3.5,0-1.25-.57-2-1.71-2C88.35,110.7,87.51,112.77,87.51,114.2Z"/><path class="cls-2" d="M100.85,111.79a4.28,4.28,0,0,1-.14,1.05l-1,4.16H98.44l1-4.16a3.91,3.91,0,0,0,.13-.9,1.09,1.09,0,0,0-1.23-1.21A2.61,2.61,0,0,0,96,112.92L95,117H93.72l1.78-7.12h1.19l-.22.84h0a3.2,3.2,0,0,1,2.26-1A1.88,1.88,0,0,1,100.85,111.79Z"/><path class="cls-2" d="M108.22,111.83a4,4,0,0,1-.13.94l-.6,2.41a8,8,0,0,0-.29,1.82h-1.12a4.16,4.16,0,0,1,.13-.9h0a3.21,3.21,0,0,1-2.47,1.05c-1.39,0-2.16-.74-2.16-1.83s.63-2.13,3.14-2.51c.69-.1,1.64-.2,2.24-.22l0-.13a3.41,3.41,0,0,0,.08-.63c0-.83-.55-1.19-1.39-1.19a1.76,1.76,0,0,0-1.83,1.42H102.6a3,3,0,0,1,3.14-2.37C107.31,109.69,108.22,110.37,108.22,111.83Zm-1.51,1.7c-.56,0-1.34.11-1.92.2-1.58.25-1.93.81-1.93,1.44s.45,1,1.26,1a2.48,2.48,0,0,0,2.44-2.07Z"/><path class="cls-2" d="M109,117l2.48-10h1.23l-2.48,10Z"/><path class="cls-2" d="M123.8,109.32a3.23,3.23,0,0,1-.1.78h-1.3a3.33,3.33,0,0,0,.07-.6c0-1.06-.7-1.57-2-1.57-1.5,0-2.21.91-2.21,1.69s.67,1.26,2,1.68c1.44.49,2.62,1,2.62,2.76,0,1.42-1.3,3.12-4,3.12-2.09,0-3.28-.91-3.28-2.65a3.94,3.94,0,0,1,.1-.85h1.32a3.64,3.64,0,0,0-.08.71c0,1.15.76,1.68,2.07,1.68,1.81,0,2.46-1.08,2.46-1.86,0-1-.71-1.32-2-1.75-1.46-.5-2.59-1-2.59-2.69,0-1.3,1.19-3,3.67-3C122.76,106.83,123.8,107.68,123.8,109.32Z"/><path class="cls-2" d="M126.6,117.32c-1.13,1.82-2,2.33-3.45,2.33a2.25,2.25,0,0,1-.73-.1l.25-1a1.69,1.69,0,0,0,.56.08c1,0,1.4-.36,2.18-1.6l-.94-7.14h1.23l.66,5.66h0l3.46-5.66h1.4Z"/><path class="cls-2" d="M141.57,111.72a5.11,5.11,0,0,1-.15,1.12l-1,4.16h-1.23l1.05-4.23a4.12,4.12,0,0,0,.13-.91,1,1,0,0,0-1.12-1.12c-1,0-1.86.87-2.2,2.23l-1,4h-1.23l1.08-4.37a2.63,2.63,0,0,0,.1-.69c0-.77-.38-1.21-1.11-1.21-1,0-1.88.88-2.23,2.31l-1,4H130.4l1.76-7.12h1.19l-.18.77h0a2.74,2.74,0,0,1,2-.92,1.74,1.74,0,0,1,1.88,1.37,3.08,3.08,0,0,1,2.49-1.37A1.77,1.77,0,0,1,141.57,111.72Z"/><path class="cls-2" d="M153.55,111.72a5.1,5.1,0,0,1-.15,1.12l-1,4.16h-1.23l1.05-4.23a4.11,4.11,0,0,0,.13-.91,1,1,0,0,0-1.12-1.12c-1,0-1.86.87-2.2,2.23l-1,4h-1.23l1.08-4.37a2.64,2.64,0,0,0,.1-.69c0-.77-.38-1.21-1.11-1.21-1,0-1.88.88-2.23,2.31l-1,4h-1.23l1.76-7.12h1.19l-.18.77h0a2.73,2.73,0,0,1,2-.92,1.74,1.74,0,0,1,1.88,1.37,3.08,3.08,0,0,1,2.49-1.37A1.77,1.77,0,0,1,153.55,111.72Z"/><path class="cls-2" d="M155.92,113.69a3.79,3.79,0,0,0-.08.74,1.58,1.58,0,0,0,1.68,1.81,2.22,2.22,0,0,0,2.07-1.37h1.26a3.64,3.64,0,0,1-3.4,2.33,2.56,2.56,0,0,1-2.79-2.87c0-2,1.37-4.64,4-4.64a2.47,2.47,0,0,1,2.7,2.72,6,6,0,0,1-.18,1.29Zm.22-.94h4.08a2.68,2.68,0,0,0,0-.46,1.48,1.48,0,0,0-1.61-1.65A2.67,2.67,0,0,0,156.15,112.76Z"/><path class="cls-2" d="M163.92,114.8a2.18,2.18,0,0,0-.08.53c0,.49.24.7.78.7a2.35,2.35,0,0,0,.49-.06l-.27,1a2.61,2.61,0,0,1-.59.07c-1.15,0-1.68-.43-1.68-1.47a3.69,3.69,0,0,1,.13-.87l1-3.85h-1.25l.25-1h1.23l.44-1.72h1.23l-.43,1.72h1.42l-.25,1h-1.4Z"/><path class="cls-2" d="M171.83,109.87l-.28,1.11c-.15,0-.34,0-.49,0a2.78,2.78,0,0,0-2.7,2.44l-.9,3.63h-1.23l1.76-7.12h1.18l-.25,1h0a3.18,3.18,0,0,1,2.37-1.06A2.17,2.17,0,0,1,171.83,109.87Z"/><path class="cls-2" d="M173.9,117.32c-1.13,1.82-2,2.33-3.45,2.33a2.26,2.26,0,0,1-.73-.1l.25-1a1.69,1.69,0,0,0,.56.08c1,0,1.4-.36,2.19-1.6l-.94-7.14H173l.66,5.66h0l3.46-5.66h1.4Z"/><path class="cls-2" d="M177.34,119h-.81l1-2h-.5l.39-1.64H179l-.41,1.64Z"/><path class="cls-2" d="M191.1,109.7c0,1.53-1,2.52-3.35,3.68-2.13,1.06-2.65,1.65-2.9,2.51h5l-.27,1.11H183.1c.41-2.2,1.39-3.24,3.94-4.5,2-1,2.7-1.64,2.7-2.66a1.24,1.24,0,0,0-1.39-1.36,2.19,2.19,0,0,0-2.13,1.85h-1.36a3.6,3.6,0,0,1,3.57-3C190.09,107.36,191.1,108.3,191.1,109.7Z"/><path class="cls-2" d="M197,117h-1.35l-1.25-2.84h0L191.78,117h-1.61l3.57-3.75-1.58-3.36h1.32l1.12,2.54h0l2.28-2.54h1.6l-3.28,3.47Z"/><path class="cls-2" d="M209.37,109.32a3.23,3.23,0,0,1-.1.78H208a3.24,3.24,0,0,0,.07-.6c0-1.06-.7-1.57-2-1.57-1.5,0-2.21.91-2.21,1.69s.67,1.26,2,1.68c1.44.49,2.62,1,2.62,2.76,0,1.42-1.3,3.12-4,3.12-2.09,0-3.28-.91-3.28-2.65a4,4,0,0,1,.1-.85h1.32a3.57,3.57,0,0,0-.08.71c0,1.15.76,1.68,2.07,1.68,1.81,0,2.46-1.08,2.46-1.86,0-1-.71-1.32-2-1.75-1.46-.5-2.59-1-2.59-2.69,0-1.3,1.19-3,3.67-3C208.33,106.83,209.37,107.68,209.37,109.32Z"/><path class="cls-2" d="M212.16,117.32c-1.13,1.82-2,2.33-3.45,2.33a2.26,2.26,0,0,1-.73-.1l.25-1a1.7,1.7,0,0,0,.56.08c1,0,1.4-.36,2.19-1.6l-.94-7.14h1.23l.66,5.66h0l3.46-5.66h1.4Z"/><path class="cls-2" d="M227.13,111.72a5,5,0,0,1-.15,1.12l-1,4.16h-1.23l1.05-4.23a4.13,4.13,0,0,0,.13-.91,1,1,0,0,0-1.12-1.12c-1,0-1.86.87-2.2,2.23l-1,4h-1.23l1.08-4.37a2.59,2.59,0,0,0,.1-.69c0-.77-.38-1.21-1.11-1.21-1,0-1.88.88-2.23,2.31l-1,4H216l1.77-7.12h1.19l-.18.77h0a2.74,2.74,0,0,1,2-.92,1.74,1.74,0,0,1,1.88,1.37,3.08,3.08,0,0,1,2.49-1.37A1.77,1.77,0,0,1,227.13,111.72Z"/><path class="cls-2" d="M239.12,111.72a5.11,5.11,0,0,1-.15,1.12l-1,4.16h-1.23l1.05-4.23a4.12,4.12,0,0,0,.13-.91,1,1,0,0,0-1.12-1.12c-1,0-1.86.87-2.2,2.23l-1,4h-1.23l1.08-4.37a2.63,2.63,0,0,0,.1-.69c0-.77-.38-1.21-1.11-1.21-1,0-1.88.88-2.23,2.31l-1,4H228l1.76-7.12h1.19l-.18.77h0a2.74,2.74,0,0,1,2-.92,1.74,1.74,0,0,1,1.88,1.37,3.08,3.08,0,0,1,2.49-1.37A1.77,1.77,0,0,1,239.12,111.72Z"/><path class="cls-2" d="M241.49,113.69a3.73,3.73,0,0,0-.08.74,1.58,1.58,0,0,0,1.68,1.81,2.22,2.22,0,0,0,2.07-1.37h1.26a3.64,3.64,0,0,1-3.4,2.33,2.56,2.56,0,0,1-2.79-2.87c0-2,1.37-4.64,4-4.64a2.47,2.47,0,0,1,2.7,2.72,6,6,0,0,1-.18,1.29Zm.22-.94h4.08a2.67,2.67,0,0,0,0-.46,1.48,1.48,0,0,0-1.61-1.65A2.67,2.67,0,0,0,241.72,112.76Z"/><path class="cls-2" d="M249.49,114.8a2.13,2.13,0,0,0-.08.53c0,.49.24.7.78.7a2.35,2.35,0,0,0,.49-.06l-.27,1a2.61,2.61,0,0,1-.59.07c-1.15,0-1.68-.43-1.68-1.47a3.7,3.7,0,0,1,.13-.87l1-3.85H248l.25-1h1.23l.43-1.72h1.23l-.43,1.72h1.41l-.25,1h-1.4Z"/><path class="cls-2" d="M257.4,109.87l-.28,1.11c-.15,0-.34,0-.49,0a2.78,2.78,0,0,0-2.7,2.44L253,117h-1.23l1.76-7.12h1.18l-.25,1h0a3.18,3.18,0,0,1,2.37-1.06A2.17,2.17,0,0,1,257.4,109.87Z"/><path class="cls-2" d="M259.47,117.32c-1.13,1.82-2,2.33-3.45,2.33a2.26,2.26,0,0,1-.73-.1l.25-1a1.7,1.7,0,0,0,.56.08c1,0,1.4-.36,2.18-1.6l-.94-7.14h1.23l.66,5.66h0l3.46-5.66h1.4Z"/><path class="cls-2" d="M359.22,23V8.11h1.87V21.26h7.16V23Z"/><path class="cls-2" d="M370.18,9.94V7.84h2.08v2.1ZM370.3,23V12.38h1.83V23Z"/><path class="cls-2" d="M383,22.08a5.58,5.58,0,0,1-6.91,0,3.44,3.44,0,0,1-1-2.44h1.78a2.07,2.07,0,0,0,.86,1.66,3.36,3.36,0,0,0,1.91.48,2.88,2.88,0,0,0,2-.59,1.51,1.51,0,0,0,.53-1.16c0-.8-.57-1.36-1.66-1.51L378,18.21a2.76,2.76,0,0,1-2.6-2.86,3.05,3.05,0,0,1,.88-2.08,4.32,4.32,0,0,1,3.13-1.18,4.22,4.22,0,0,1,3.38,1.34,3,3,0,0,1,.76,2h-1.79a1.92,1.92,0,0,0-.61-1.32,2.49,2.49,0,0,0-1.74-.57,2.75,2.75,0,0,0-1.24.21,1.59,1.59,0,0,0-1.07,1.43c0,.88.54,1.26,1.43,1.39.59.08,1.43.17,2.56.36a3,3,0,0,1,1.87,5.1Z"/><path class="cls-2" d="M390.08,23.15a2.61,2.61,0,0,1-2.92-2.88V13.91h-2.06V12.38h2.06V9.67L389,9.25v3.13h3.15v1.53H389v6.15c0,1,.44,1.45,1.43,1.45a13.06,13.06,0,0,0,1.83-.19v1.53A7.73,7.73,0,0,1,390.08,23.15Z"/><path class="cls-2" d="M406.57,22a4.78,4.78,0,0,1-6.42,0,5.79,5.79,0,0,1-1.51-4.35,5.79,5.79,0,0,1,1.51-4.35,4.78,4.78,0,0,1,6.42,0,5.79,5.79,0,0,1,1.51,4.35A5.79,5.79,0,0,1,406.57,22Zm-1.3-7.64a2.79,2.79,0,0,0-3.82,0,4.76,4.76,0,0,0-1,3.3,4.76,4.76,0,0,0,1,3.3,2.79,2.79,0,0,0,3.82,0,4.76,4.76,0,0,0,1-3.3A4.76,4.76,0,0,0,405.27,14.39Z"/><path class="cls-2" d="M417.89,23V16.26c0-1.6-.65-2.54-2.33-2.54a2.6,2.6,0,0,0-2.31,1.64,7,7,0,0,0-.38,2.71V23h-1.78V12.38h1.55l.15,1.6A3.59,3.59,0,0,1,416,12.1c2.42,0,3.67,1.45,3.67,3.9v7Z"/><path class="cls-2" d="M430,9.84v4.85H437v1.76H430V23h-1.87V8.11h9.64V9.84Z"/><path class="cls-2" d="M442.44,23.13c-1.55,0-2.23-.92-2.23-2.6V7.84H442V20.42c0,.71.23,1.09,1,1.09a6.71,6.71,0,0,0,.73,0V23A4.65,4.65,0,0,1,442.44,23.13Z"/><path class="cls-2" d="M446.18,9.94V7.84h2.08v2.1ZM446.3,23V12.38h1.83V23Z"/><path class="cls-2" d="M459.74,22.22a4.16,4.16,0,0,1-2.92,1.07,3.71,3.71,0,0,1-3.09-1.51v5.77H452V12.4h1.58l.13,1.39a3.72,3.72,0,0,1,3.17-1.66,4,4,0,0,1,3,1.16,6.29,6.29,0,0,1,1.53,4.41A6.27,6.27,0,0,1,459.74,22.22Zm-3.21-8.59a2.45,2.45,0,0,0-1.72.69,4.4,4.4,0,0,0-1.18,3.38,4.4,4.4,0,0,0,1.18,3.38,2.45,2.45,0,0,0,1.72.69c2.37,0,3-2.12,3-4.07S458.9,13.64,456.53,13.64Z"/><path class="cls-2" d="M481.75,23V10.44l-4.62,12.35h-1.47L471,10.34V23h-1.79V8.11h2.69l4.49,12.12,4.47-12.12h2.63V23Z"/><path class="cls-2" d="M495.23,23.15a1.51,1.51,0,0,1-1.53-1.62h0a3.87,3.87,0,0,1-3.42,1.74A3.33,3.33,0,0,1,486.58,20c0-1.37.88-3.15,3.78-3.32l3.23-.19v-.78A2.09,2.09,0,0,0,493,14.1a2.39,2.39,0,0,0-1.74-.55,2.63,2.63,0,0,0-1.93.63,1.74,1.74,0,0,0-.52,1.28H487.1a3.15,3.15,0,0,1,.92-2.23,4.57,4.57,0,0,1,3.28-1.13c2.06,0,3.23.88,3.74,2a4.09,4.09,0,0,1,.31,1.64v5.14c0,.57.23.71.59.71a2.6,2.6,0,0,0,.46-.06v1.32A2.47,2.47,0,0,1,495.23,23.15Zm-1.64-5.27-2.86.17c-1.07.06-2.33.57-2.33,1.91,0,.95.59,1.83,2.1,1.83a3,3,0,0,0,2.18-.86,3.43,3.43,0,0,0,.9-2.42Z"/><path class="cls-2" d="M503.9,14a2.91,2.91,0,0,0-2,.84c-.86.82-1,2.29-1,3.4V23h-1.76V12.38h1.57l.15,1.87A3.3,3.3,0,0,1,504,12.31a5.65,5.65,0,0,1,.84.06v1.74A5.19,5.19,0,0,0,503.9,14Z"/><path class="cls-2" d="M514.28,23,511,17.88l-2,2.27V23h-1.79V7.84h1.79v9.89l4.81-5.35h2.16l-3.78,4.2L516.29,23Z"/><path class="cls-2" d="M526.83,18.28h-7.52a3.92,3.92,0,0,0,1,2.67,3,3,0,0,0,3.93.06,2.25,2.25,0,0,0,.63-1.16h1.74A3.91,3.91,0,0,1,525,22.47a4.89,4.89,0,0,1-2.71.8,4.53,4.53,0,0,1-3.53-1.6,6,6,0,0,1-1.32-3.95,6.49,6.49,0,0,1,.82-3.4,4.55,4.55,0,0,1,4-2.22,4.27,4.27,0,0,1,3.23,1.36,5.48,5.48,0,0,1,1.34,3.74Zm-2.46-3.7a2.52,2.52,0,0,0-2.1-1,3,3,0,0,0-2.92,3.13H525A3.71,3.71,0,0,0,524.38,14.58Z"/><path class="cls-2" d="M533.05,23.15a2.61,2.61,0,0,1-2.92-2.88V13.91h-2.06V12.38h2.06V9.67l1.78-.42v3.13h3.15v1.53h-3.15v6.15c0,1,.44,1.45,1.43,1.45a13.09,13.09,0,0,0,1.83-.19v1.53A7.74,7.74,0,0,1,533.05,23.15Z"/><path class="cls-2" d="M546.28,9.14a1.38,1.38,0,0,0-1.51,1.45v1.78h3.07v1.51h-3.07V23H543V13.89h-1.93V12.38H543V10.49a2.88,2.88,0,0,1,3.09-2.86,11,11,0,0,1,2,.19V9.31A13,13,0,0,0,546.28,9.14Z"/><path class="cls-2" d="M556.82,22a4.78,4.78,0,0,1-6.43,0,5.8,5.8,0,0,1-1.51-4.35,5.79,5.79,0,0,1,1.51-4.35,4.79,4.79,0,0,1,6.43,0,5.79,5.79,0,0,1,1.51,4.35A5.8,5.8,0,0,1,556.82,22Zm-1.3-7.64a2.79,2.79,0,0,0-3.82,0,4.76,4.76,0,0,0-1,3.3,4.76,4.76,0,0,0,1,3.3,2.79,2.79,0,0,0,3.82,0,4.76,4.76,0,0,0,1-3.3A4.76,4.76,0,0,0,555.52,14.39Z"/><path class="cls-2" d="M566.08,14a2.91,2.91,0,0,0-2,.84c-.86.82-1,2.29-1,3.4V23h-1.76V12.38h1.57l.15,1.87a3.3,3.3,0,0,1,3.17-1.93,5.66,5.66,0,0,1,.84.06v1.74A5.19,5.19,0,0,0,566.08,14Z"/><path class="cls-2" d="M553.95,76a27.78,27.78,0,0,0-3.07-.13,34.19,34.19,0,0,0-6,.51,20.31,20.31,0,0,0,2.37-3.26,9.84,9.84,0,0,0,1.44-3.74c-1.89,1.76-3,2.27-5,2.27a7.09,7.09,0,0,1-4.64-12.19,7.05,7.05,0,0,1,4.32-1.73,12,12,0,0,1,1.7.13,6.45,6.45,0,0,1-1-3.36,6.88,6.88,0,1,1,13.76-.06,6.16,6.16,0,0,1-1,3.46,15.14,15.14,0,0,1,1.89-.13,6.9,6.9,0,0,1,5,2.59,7.05,7.05,0,0,1,1.47,4.32,6.79,6.79,0,0,1-6.78,7c-2,0-3.23-.51-5.18-2.24a7.64,7.64,0,0,0,1.18,3.33,22.21,22.21,0,0,0,2.82,3.62C556.57,76.24,556.57,76.24,553.95,76Zm-1.54-5.5A15.38,15.38,0,0,1,552,66.9c-.1-1.38-.1-1.38-.1-1.5a.55.55,0,0,1,.54-.58c.32,0,.42.16.51.93a3.85,3.85,0,0,0,.67,1.86,5.46,5.46,0,0,0,4.77,2.75,5.62,5.62,0,0,0,5.6-5.76,6,6,0,0,0-1.44-3.84,5.35,5.35,0,0,0-4.16-1.86,5.21,5.21,0,0,0-3.55,1.25c-.42.32-.61.42-.8.42a.55.55,0,0,1-.48-.51c0-.19.1-.32.54-.7a7.23,7.23,0,0,0,.83-.86,6.09,6.09,0,0,0,1.73-4.16A5.62,5.62,0,0,0,551,48.59a5.36,5.36,0,0,0-4.48,2.34,5.81,5.81,0,0,0-1.15,3.33,7,7,0,0,0,2,4.42,4.91,4.91,0,0,0,.7.67,1.15,1.15,0,0,1,.45.77.45.45,0,0,1-.48.45c-.22,0-.58-.22-1.44-.9a4.71,4.71,0,0,0-2.72-.8,5.94,5.94,0,0,0-4.26,1.86,5.64,5.64,0,1,0,9.22,6.11,4.93,4.93,0,0,0,.38-1.66c.06-.29.16-.38.42-.38.42,0,.58.16.58.54a17.45,17.45,0,0,1-.61,5.31,15,15,0,0,1-2,4.16,22.87,22.87,0,0,1,3.46-.19,28.92,28.92,0,0,1,3.29.16A12.34,12.34,0,0,1,552.41,70.45Z"/><path class="cls-2" d="M471.92,109.32a3.23,3.23,0,0,1-.1.78h-1.3a3.24,3.24,0,0,0,.07-.6c0-1.06-.7-1.57-2-1.57-1.5,0-2.21.91-2.21,1.69s.67,1.26,2,1.68c1.44.49,2.62,1,2.62,2.76,0,1.42-1.3,3.12-4,3.12-2.09,0-3.28-.91-3.28-2.65a4,4,0,0,1,.1-.85h1.32a3.57,3.57,0,0,0-.08.71c0,1.15.76,1.68,2.07,1.68,1.81,0,2.46-1.08,2.46-1.86,0-1-.71-1.32-2-1.75-1.46-.5-2.59-1-2.59-2.69,0-1.3,1.19-3,3.67-3C470.88,106.83,471.92,107.68,471.92,109.32Z"/><path class="cls-2" d="M472.52,115.09a4.35,4.35,0,0,1,.15-1.05l1-4.16h1.23l-1,4.16a3.8,3.8,0,0,0-.11.9,1.08,1.08,0,0,0,1.22,1.21A2.61,2.61,0,0,0,477.4,114l1-4.08h1.23L477.88,117h-1.19l.21-.84h0a3.15,3.15,0,0,1-2.26,1A1.89,1.89,0,0,1,472.52,115.09Z"/><path class="cls-2" d="M486.06,111.13h0l.31-1.25h1.19l-1.74,7a3.45,3.45,0,0,1-3.61,2.79c-1.71,0-2.62-.7-2.62-1.86a2,2,0,0,1,0-.39h1.22a1,1,0,0,0,0,.29c0,.64.52,1,1.44,1,1.25,0,2-.63,2.42-2.16l.15-.63h0a3.08,3.08,0,0,1-2.21,1c-1.48,0-2.33-1.06-2.33-2.79,0-1.89,1.32-4.44,3.71-4.44A2,2,0,0,1,486.06,111.13ZM481.59,114c0,1.16.52,1.88,1.46,1.88,1.71,0,2.59-1.93,2.59-3.29,0-1.18-.57-1.88-1.6-1.88C482.44,110.72,481.59,112.73,481.59,114Z"/><path class="cls-2" d="M494,111.13h0l.31-1.25h1.19l-1.74,7a3.45,3.45,0,0,1-3.61,2.79c-1.71,0-2.62-.7-2.62-1.86a2,2,0,0,1,0-.39h1.22a1,1,0,0,0,0,.29c0,.64.52,1,1.44,1,1.25,0,2-.63,2.42-2.16l.15-.63h0a3.09,3.09,0,0,1-2.21,1c-1.48,0-2.32-1.06-2.32-2.79,0-1.89,1.32-4.44,3.71-4.44A2,2,0,0,1,494,111.13ZM489.51,114c0,1.16.52,1.88,1.46,1.88,1.71,0,2.59-1.93,2.59-3.29,0-1.18-.57-1.88-1.6-1.88C490.37,110.72,489.51,112.73,489.51,114Z"/><path class="cls-2" d="M497.38,113.69a3.72,3.72,0,0,0-.08.74,1.58,1.58,0,0,0,1.68,1.81,2.22,2.22,0,0,0,2.07-1.37h1.26a3.64,3.64,0,0,1-3.4,2.33,2.56,2.56,0,0,1-2.79-2.87c0-2,1.37-4.64,4-4.64a2.47,2.47,0,0,1,2.7,2.72,5.94,5.94,0,0,1-.18,1.29Zm.22-.94h4.08a2.77,2.77,0,0,0,0-.46,1.48,1.48,0,0,0-1.61-1.65A2.67,2.67,0,0,0,497.61,112.76Z"/><path class="cls-2" d="M509.81,111.57a2.49,2.49,0,0,1-.06.55h-1.19a4.23,4.23,0,0,0,0-.43c0-.67-.49-1-1.39-1s-1.51.42-1.51,1.09.43.78,1.41,1.11,2.12.66,2.12,2.07c0,1.12-1,2.28-3.07,2.28-1.69,0-2.67-.69-2.67-2a2.06,2.06,0,0,1,.07-.59h1.25a1.85,1.85,0,0,0-.06.48c0,.71.52,1.11,1.51,1.11S508,115.75,508,115s-.53-.9-1.61-1.25-1.86-.57-1.86-1.92c0-1.08,1-2.17,2.86-2.17C509,109.69,509.81,110.35,509.81,111.57Z"/><path class="cls-2" d="M512.19,114.8a2.13,2.13,0,0,0-.08.53c0,.49.24.7.78.7a2.35,2.35,0,0,0,.49-.06l-.27,1a2.61,2.61,0,0,1-.59.07c-1.15,0-1.68-.43-1.68-1.47a3.7,3.7,0,0,1,.13-.87l1-3.85h-1.25l.25-1h1.23l.43-1.72h1.23l-.43,1.72h1.41l-.25,1h-1.4Z"/><path class="cls-2" d="M515.85,113.69a3.79,3.79,0,0,0-.08.74,1.58,1.58,0,0,0,1.68,1.81,2.22,2.22,0,0,0,2.07-1.37h1.26a3.64,3.64,0,0,1-3.4,2.33,2.56,2.56,0,0,1-2.79-2.87c0-2,1.37-4.64,4-4.64a2.47,2.47,0,0,1,2.7,2.72,6,6,0,0,1-.18,1.29Zm.22-.94h4.08a2.68,2.68,0,0,0,0-.46,1.48,1.48,0,0,0-1.61-1.65A2.67,2.67,0,0,0,516.07,112.76Z"/><path class="cls-2" d="M526.68,117l.2-.77h0a3,3,0,0,1-2.12,1c-1.57,0-2.44-1-2.44-2.75,0-2,1.32-4.72,3.8-4.72a2,2,0,0,1,2,1.39h0l1-4.08h1.23l-2.48,10Zm-3.08-2.75c0,1.22.53,1.93,1.5,1.93,1.69,0,2.59-2,2.59-3.54,0-1.22-.53-1.93-1.5-1.93C524.5,110.71,523.6,112.74,523.6,114.25Z"/><path class="cls-2" d="M535.54,117l-1-10h1.26l.41,4.44c.14,1.42.25,2.84.35,4.27h0c.79-1.43,1.6-2.86,2.44-4.27l2.63-4.44h1.44l-5.93,10Z"/><path class="cls-2" d="M547.52,111.83a4,4,0,0,1-.13.94l-.6,2.41a8,8,0,0,0-.29,1.82h-1.12a4.16,4.16,0,0,1,.13-.9h0a3.21,3.21,0,0,1-2.47,1.05c-1.39,0-2.16-.74-2.16-1.83s.63-2.13,3.14-2.51c.69-.1,1.64-.2,2.24-.22l0-.13a3.41,3.41,0,0,0,.08-.63c0-.83-.55-1.19-1.39-1.19a1.76,1.76,0,0,0-1.83,1.42H541.9a3,3,0,0,1,3.14-2.37C546.61,109.69,547.52,110.37,547.52,111.83Zm-1.51,1.7c-.56,0-1.34.11-1.92.2-1.58.25-1.93.81-1.93,1.44s.45,1,1.26,1a2.48,2.48,0,0,0,2.44-2.07Z"/><path class="cls-2" d="M548.32,117l2.48-10H552l-2.48,10Z"/><path class="cls-2" d="M552.15,115.09a4.35,4.35,0,0,1,.15-1.05l1-4.16h1.23l-1,4.16a3.8,3.8,0,0,0-.11.9,1.08,1.08,0,0,0,1.22,1.21A2.61,2.61,0,0,0,557,114l1-4.08h1.23L557.51,117h-1.19l.21-.84h0a3.15,3.15,0,0,1-2.26,1A1.89,1.89,0,0,1,552.15,115.09Z"/><path class="cls-2" d="M561.16,113.69a3.73,3.73,0,0,0-.08.74,1.58,1.58,0,0,0,1.68,1.81,2.22,2.22,0,0,0,2.07-1.37h1.26a3.64,3.64,0,0,1-3.4,2.33,2.56,2.56,0,0,1-2.79-2.87c0-2,1.37-4.64,4-4.64a2.47,2.47,0,0,1,2.7,2.72,6,6,0,0,1-.18,1.29Zm.22-.94h4.08a2.67,2.67,0,0,0,0-.46,1.48,1.48,0,0,0-1.61-1.65A2.67,2.67,0,0,0,561.39,112.76Z"/><rect class="cls-2" x="357.79" y="89.5" width="209.97" height="1"/><path class="cls-2" d="M184.36,69.22v5.57h-2.91V69.22H171.28V66.56l9.15-13.34h3.94V66.78h3.52v2.43Zm-2.88-2.43V63.84c0-2.66,0-5.34.1-8h-.06c-1.63,2.53-3.26,5-5,7.42l-2.46,3.55Z"/><path class="cls-2" d="M204.91,58.75h-3c-.38-2.24-1.63-3.42-3.74-3.42-3,0-5,2.5-5.15,8.16h.06a6.17,6.17,0,0,1,5.31-2.75c4.06,0,6.82,2.85,6.82,7.07a7,7,0,0,1-7.36,7.42c-4.9,0-7.62-3.46-7.62-10.4,0-7.87,2.94-12.06,8-12.06C202.12,52.77,204.55,55,204.91,58.75Zm-11.39,9.12c0,2.94,1.66,4.8,4.32,4.8s4.32-1.89,4.32-4.8-1.7-4.74-4.29-4.74S193.51,65.09,193.51,67.87Z"/><path class="cls-2" d="M222.76,58.69c0,2.34-1.47,4-3.78,4.9v.06A5.32,5.32,0,0,1,223.18,69c0,3.78-3.07,6.27-7.55,6.27s-7.52-2.5-7.52-6.27a5.33,5.33,0,0,1,4.16-5.31v-.06c-2.27-.86-3.74-2.56-3.74-4.9,0-3.52,3-5.92,7.1-5.92S222.76,55.17,222.76,58.69ZM211.08,68.77c0,2.37,1.82,3.9,4.54,3.9s4.54-1.54,4.54-3.9-1.86-3.84-4.54-3.84S211.08,66.5,211.08,68.77Zm.35-10c0,2.24,1.63,3.65,4.19,3.65s4.19-1.41,4.19-3.65-1.7-3.49-4.19-3.49S211.43,56.67,211.43,58.78Z"/><path class="cls-2" d="M479.2,55.71l-.64,6.69h.06A5.73,5.73,0,0,1,483,60.61c4.22,0,7,2.78,7,7.1,0,4.58-3,7.52-7.55,7.52-4.22,0-7-2.34-7-6.18h3c0,2.3,1.73,3.62,4,3.62,2.78,0,4.51-1.82,4.51-4.86s-1.7-4.7-4.35-4.7a3.91,3.91,0,0,0-4.1,3L475.55,66l1.18-12.73H489v2.5Z"/><path class="cls-2" d="M508.45,64c0,7.26-2.75,11.23-7.81,11.23s-7.81-4-7.81-11.23,2.75-11.23,7.81-11.23S508.45,56.74,508.45,64Zm-12.54,0c0,5.66,1.66,8.7,4.74,8.7s4.77-3,4.77-8.7-1.66-8.64-4.77-8.64S495.91,58.37,495.91,64Z"/><path class="cls-2" d="M526.43,64c0,7.26-2.75,11.23-7.81,11.23s-7.81-4-7.81-11.23,2.75-11.23,7.81-11.23S526.43,56.74,526.43,64Zm-12.54,0c0,5.66,1.66,8.7,4.74,8.7s4.77-3,4.77-8.7-1.66-8.64-4.77-8.64S513.89,58.37,513.89,64Z"/></svg>