<svg id="Layer_1" data-name="Layer 1" xmlns="http://www.w3.org/2000/svg" xmlns:xlink="http://www.w3.org/1999/xlink" viewBox="0 0 603 242"><defs><style>.cls-1,.cls-30,.cls-8{fill:none;}.cls-19,.cls-2{font-size:21px;font-family:Akkurat-efluxRegular, Akkurat;}.cls-12,.cls-13,.cls-19,.cls-2,.cls-22,.cls-31{fill:#fff;}.cls-3{letter-spacing:0em;}.cls-19,.cls-4{letter-spacing:-0.01em;}.cls-5{letter-spacing:-0.01em;}.cls-6{clip-path:url(#clip-path);}.cls-7{clip-path:url(#clip-path-2);}.cls-30,.cls-8{stroke:#fff;stroke-miterlimit:10;}.cls-8{stroke-width:2px;}.cls-9{letter-spacing:-0.06em;}.cls-10{letter-spacing:-0.01em;}.cls-11{letter-spacing:-0.01em;}.cls-12,.cls-31{font-size:32px;}.cls-12{font-family:HiraginoSans-W3-83pv-RKSJ-H, Hiragino Sans;}.cls-13,.cls-22{font-size:14px;font-family:NeueHaasUnicaPro-Italic, Neue Haas Unica Pro;font-style:italic;}.cls-13,.cls-25{letter-spacing:-0.02em;}.cls-14{letter-spacing:-0.01em;}.cls-15{letter-spacing:-0.02em;}.cls-16,.cls-22{letter-spacing:-0.01em;}.cls-17{letter-spacing:-0.03em;}.cls-18{letter-spacing:0em;}.cls-20{letter-spacing:-0.02em;}.cls-21{letter-spacing:0em;}.cls-23{letter-spacing:0em;}.cls-24{letter-spacing:-0.02em;}.cls-26{letter-spacing:0em;}.cls-27{letter-spacing:-0.06em;}.cls-28{letter-spacing:-0.01em;}.cls-29{letter-spacing:0em;}.cls-31{font-family:NeueHaasUnicaPro-Regular, Neue Haas Unica Pro;}</style><clipPath id="clip-path"><rect class="cls-1" x="38" y="162" width="529" height="70"/></clipPath><clipPath id="clip-path-2"><rect class="cls-1" x="-813" y="-646" width="1440" height="1024"/></clipPath></defs><title>about-flip-right</title><text class="cls-2" transform="translate(88.33 203)"><tspan class="cls-3">Claim this C</tspan><tspan class="cls-4" x="114.38" y="0">lov</tspan><tspan class="cls-3" x="141.85" y="0">er and </tspan><tspan class="cls-5" x="207.08" y="0">R</tspan><tspan class="cls-3" x="220.69" y="0">egi</tspan><tspan class="cls-4" x="249.08" y="0">s</tspan><tspan class="cls-5" x="259.83" y="0">t</tspan><tspan class="cls-3" x="267.62" y="0">er on Flip Mar</tspan><tspan class="cls-5" x="399.52" y="0">k</tspan><tspan class="cls-4" x="410.67" y="0">e</tspan><tspan x="422.05" y="0">t</tspan></text><g class="cls-6"><g class="cls-7"><rect class="cls-8" x="38" y="162" width="529" height="70"/></g></g><text class="cls-2" transform="translate(116.63 23)"><tspan class="cls-9">Y</tspan><tspan class="cls-3" x="10.65" y="0">ou will </tspan><tspan class="cls-10" x="77.64" y="0">r</tspan><tspan class="cls-3" x="85.41" y="0">ecei</tspan><tspan class="cls-11" x="125.12" y="0">v</tspan><tspan x="135.13" y="0">e</tspan></text><text class="cls-12" transform="translate(231.1 74)">♧</text><text class="cls-13" transform="translate(37.23 117)">f<tspan class="cls-14" x="3.96" y="0">or Diagonal Symm</tspan><tspan class="cls-15" x="116.93" y="0">e</tspan><tspan class="cls-16" x="124.4" y="0">tr</tspan><tspan class="cls-17" x="133.75" y="0">y</tspan><tspan class="cls-16" x="139.89" y="0">, 2x Symm</tspan><tspan class="cls-15" x="202.49" y="0">e</tspan><tspan class="cls-16" x="209.97" y="0">tr</tspan><tspan class="cls-18" x="219.32" y="0">y</tspan></text><text class="cls-19" transform="translate(357.12 23)">L<tspan class="cls-3" x="11.23" y="0">i</tspan><tspan x="16.88" y="0">s</tspan><tspan class="cls-3" x="27.64" y="0">t on Flip Mar</tspan><tspan class="cls-5" x="148.07" y="0">k</tspan><tspan x="159.22" y="0">e</tspan><tspan class="cls-3" x="170.6" y="0">t </tspan><tspan class="cls-20" x="183.35" y="0">f</tspan><tspan class="cls-3" x="190.64" y="0">o</tspan><tspan class="cls-21" x="202.27" y="0">r</tspan></text><text class="cls-12" transform="translate(535.1 74)">♧</text><text class="cls-22" transform="translate(463.37 117)">Sugg<tspan class="cls-23" x="32.24" y="0">e</tspan><tspan class="cls-24" x="39.94" y="0">s</tspan><tspan class="cls-25" x="46.54" y="0">t</tspan><tspan class="cls-26" x="50.71" y="0">e</tspan><tspan class="cls-14" x="58.45" y="0">d </tspan><tspan class="cls-27" x="69.52" y="0">V</tspan><tspan class="cls-28" x="77.41" y="0">alu</tspan><tspan class="cls-29" x="96.02" y="0">e</tspan></text><line class="cls-30" x1="567.76" y1="90" x2="357.79" y2="90"/><text class="cls-31" transform="translate(170.67 74.78)">468</text><text class="cls-31" transform="translate(473.67 74.78)">500</text></svg>