<svg id="Layer_1" data-name="Layer 1" xmlns="http://www.w3.org/2000/svg" xmlns:xlink="http://www.w3.org/1999/xlink" viewBox="0 0 938 256"><defs><style>.cls-1{fill:none;}.cls-2{clip-path:url(#clip-path);}.cls-3{clip-path:url(#clip-path-2);}.cls-4{fill:#d8d8d8;}.cls-5{clip-path:url(#clip-path-3);}.cls-6{fill:#a23fa3;}.cls-7{clip-path:url(#clip-path-5);}.cls-8{fill:#fff;}.cls-9{fill:#b359b2;}</style><clipPath id="clip-path"><circle class="cls-1" cx="75.5" cy="76.5" r="64.5"/></clipPath><clipPath id="clip-path-2"><rect class="cls-1" x="-250" y="-562" width="1440" height="1024"/></clipPath><clipPath id="clip-path-3"><circle class="cls-1" cx="470.5" cy="76.5" r="64.5"/></clipPath><clipPath id="clip-path-5"><circle class="cls-1" cx="864.5" cy="76.5" r="64.5"/></clipPath></defs><title>flip-diagram.svg</title><g class="cls-2"><g class="cls-3"><rect class="cls-4" x="6" y="7" width="139" height="139"/></g></g><g class="cls-5"><g class="cls-3"><rect class="cls-6" x="401" y="7" width="139" height="139"/></g></g><g class="cls-7"><g class="cls-3"><rect x="795" y="7" width="139" height="139"/></g></g><path class="cls-8" d="M86.11,93l-2.78-8.06H68.54L65.8,93H61.48l12-34h5l12,34ZM75.88,63.24l-6,17.67h12Z"/><path class="cls-8" d="M481.54,89.88C479.62,91.94,476.36,93,473,93H459.27V59h13.59c3.17,0,6.43,1.06,8.3,3.12a8,8,0,0,1,2.21,5.67,7.78,7.78,0,0,1-4.9,7.54,8.56,8.56,0,0,1,5.66,8.21A9,9,0,0,1,481.54,89.88Zm-8.69-27.12h-9.41v10.7H473c3.55,0,6-1.58,6-5.38C479,64.53,476.12,62.76,472.85,62.76Zm.24,14.45h-9.65V89.06H473c3.74,0,6.77-1.82,6.77-5.86C479.77,79.42,476.69,77.21,473.09,77.21Z"/><path class="cls-8" d="M874.44,90a13.35,13.35,0,0,1-18.34,0c-3.7-3.6-4.27-8.59-4.27-14s.58-10.42,4.27-14a13.15,13.15,0,0,1,9.22-3.65,13,13,0,0,1,9.07,3.5,11.61,11.61,0,0,1,3.36,7.78h-4.42a7.4,7.4,0,0,0-1.87-4.75,8.25,8.25,0,0,0-6.14-2.5A8.64,8.64,0,0,0,859.13,65c-2.78,2.88-2.88,7.49-2.88,11s.1,8.16,2.88,11a8.64,8.64,0,0,0,6.19,2.59A8.42,8.42,0,0,0,871.51,87a7.8,7.8,0,0,0,1.87-4.9h4.42A11.86,11.86,0,0,1,874.44,90Z"/><path class="cls-9" d="M255.14,55V54l3.94-4.86a2.17,2.17,0,0,0,.53-1.4,1.44,1.44,0,0,0-1.6-1.57,1.56,1.56,0,0,0-1.65,1.76h-1.23A2.71,2.71,0,0,1,258,45.07a2.82,2.82,0,0,1,2.38,1.12,2.52,2.52,0,0,1,.45,1.51,3.2,3.2,0,0,1-.83,2.07l-3.31,4.1H261V55Z"/><path class="cls-9" d="M268,54.36a3.09,3.09,0,0,1-4.2,0c-1-1-1.15-2.35-1.15-4.23s.17-3.25,1.15-4.24a3.12,3.12,0,0,1,4.2,0c1,1,1.15,2.37,1.15,4.24S269,53.36,268,54.36Zm-.9-7.75a1.84,1.84,0,0,0-2.41,0c-.83.78-.8,2.2-.8,3.52s0,2.73.8,3.52a1.84,1.84,0,0,0,2.41,0c.83-.79.8-2.2.8-3.52S267.92,47.39,267.1,46.61Z"/><path class="cls-9" d="M275.83,54.36a3.09,3.09,0,0,1-4.2,0c-1-1-1.15-2.35-1.15-4.23s.17-3.25,1.15-4.24a3.12,3.12,0,0,1,4.2,0c1,1,1.15,2.37,1.15,4.24S276.81,53.36,275.83,54.36Zm-.9-7.75a1.84,1.84,0,0,0-2.41,0c-.83.78-.8,2.2-.8,3.52s0,2.73.8,3.52a1.84,1.84,0,0,0,2.41,0c.83-.79.8-2.2.8-3.52S275.76,47.39,274.94,46.61Z"/><path class="cls-9" d="M289.12,55.85a12.25,12.25,0,0,0-1.34-.06,15,15,0,0,0-2.61.22,8.86,8.86,0,0,0,1-1.43,4.32,4.32,0,0,0,.63-1.64,2.81,2.81,0,0,1-2.19,1,3.1,3.1,0,0,1-2-5.34,3.09,3.09,0,0,1,1.89-.76,5.3,5.3,0,0,1,.74.06,2.82,2.82,0,0,1-.42-1.47,3,3,0,1,1,6,0,2.7,2.7,0,0,1-.43,1.51,6.58,6.58,0,0,1,.83-.06,3,3,0,0,1,2.2,1.13,3.08,3.08,0,0,1,.64,1.89A3,3,0,0,1,288.85,53a3.34,3.34,0,0,0,.52,1.46A9.71,9.71,0,0,0,290.61,56Zm-.67-2.41a6.72,6.72,0,0,1-.2-1.55c0-.6,0-.6,0-.66a.24.24,0,0,1,.24-.25c.14,0,.18.07.22.41a1.68,1.68,0,0,0,.29.81,2.39,2.39,0,0,0,2.09,1.21,2.46,2.46,0,0,0,2.45-2.52,2.61,2.61,0,0,0-.63-1.68,2.34,2.34,0,0,0-1.82-.81,2.28,2.28,0,0,0-1.55.55c-.18.14-.27.18-.35.18a.24.24,0,0,1-.21-.22c0-.08,0-.14.24-.31a3.29,3.29,0,0,0,.36-.38,2.66,2.66,0,0,0,.76-1.82,2.46,2.46,0,0,0-2.47-2.51,2.35,2.35,0,0,0-2,1,2.55,2.55,0,0,0-.5,1.46,3.07,3.07,0,0,0,.87,1.93,2.17,2.17,0,0,0,.31.29.5.5,0,0,1,.2.34.2.2,0,0,1-.21.2c-.1,0-.25-.1-.63-.39a2.06,2.06,0,0,0-1.19-.35,2.6,2.6,0,0,0-1.86.81,2.47,2.47,0,1,0,4,2.68,2.16,2.16,0,0,0,.17-.73c0-.13.07-.17.18-.17s.25.07.25.24a7.62,7.62,0,0,1-.27,2.33,6.55,6.55,0,0,1-.85,1.82,9.91,9.91,0,0,1,1.51-.08,12.67,12.67,0,0,1,1.44.07A5.39,5.39,0,0,1,288.45,53.45Z"/><path d="M648.14,55V54l3.94-4.86a2.17,2.17,0,0,0,.53-1.4,1.44,1.44,0,0,0-1.6-1.57,1.56,1.56,0,0,0-1.65,1.76h-1.23A2.71,2.71,0,0,1,651,45.07a2.82,2.82,0,0,1,2.38,1.12,2.51,2.51,0,0,1,.45,1.51,3.2,3.2,0,0,1-.83,2.07l-3.31,4.1H654V55Z"/><path d="M661,54.36a3.08,3.08,0,0,1-4.2,0c-1-1-1.15-2.35-1.15-4.23s.17-3.25,1.15-4.24a3.12,3.12,0,0,1,4.2,0c1,1,1.15,2.37,1.15,4.24S662,53.36,661,54.36Zm-.9-7.75a1.84,1.84,0,0,0-2.41,0c-.83.78-.8,2.2-.8,3.52s0,2.73.8,3.52a1.84,1.84,0,0,0,2.41,0c.83-.79.8-2.2.8-3.52S660.92,47.39,660.1,46.61Z"/><path d="M668.83,54.36a3.08,3.08,0,0,1-4.2,0c-1-1-1.15-2.35-1.15-4.23s.17-3.25,1.15-4.24a3.12,3.12,0,0,1,4.2,0c1,1,1.15,2.37,1.15,4.24S669.81,53.36,668.83,54.36Zm-.9-7.75a1.84,1.84,0,0,0-2.41,0c-.83.78-.8,2.2-.8,3.52s0,2.73.8,3.52a1.84,1.84,0,0,0,2.41,0c.83-.79.8-2.2.8-3.52S668.76,47.39,667.94,46.61Z"/><path d="M682.12,55.85a12.27,12.27,0,0,0-1.35-.06,15,15,0,0,0-2.61.22,8.84,8.84,0,0,0,1-1.43,4.34,4.34,0,0,0,.63-1.64,2.81,2.81,0,0,1-2.19,1,3.1,3.1,0,0,1-2-5.34,3.09,3.09,0,0,1,1.89-.76,5.28,5.28,0,0,1,.74.06,2.82,2.82,0,0,1-.42-1.47,3,3,0,1,1,6,0,2.7,2.7,0,0,1-.43,1.51,6.58,6.58,0,0,1,.83-.06,3,3,0,0,1,2.2,1.13,3.09,3.09,0,0,1,.64,1.89A3,3,0,0,1,681.85,53a3.34,3.34,0,0,0,.52,1.46A9.68,9.68,0,0,0,683.61,56Zm-.67-2.41a6.72,6.72,0,0,1-.2-1.55c0-.6,0-.6,0-.66a.24.24,0,0,1,.24-.25c.14,0,.18.07.22.41a1.69,1.69,0,0,0,.29.81,2.39,2.39,0,0,0,2.09,1.21,2.46,2.46,0,0,0,2.45-2.52,2.61,2.61,0,0,0-.63-1.68,2.34,2.34,0,0,0-1.82-.81,2.28,2.28,0,0,0-1.55.55c-.18.14-.27.18-.35.18a.24.24,0,0,1-.21-.22c0-.08,0-.14.24-.31a3.33,3.33,0,0,0,.36-.38,2.66,2.66,0,0,0,.76-1.82,2.46,2.46,0,0,0-2.46-2.51,2.35,2.35,0,0,0-2,1,2.55,2.55,0,0,0-.5,1.46,3.07,3.07,0,0,0,.87,1.93,2.21,2.21,0,0,0,.31.29.5.5,0,0,1,.2.34.2.2,0,0,1-.21.2c-.1,0-.25-.1-.63-.39a2.06,2.06,0,0,0-1.19-.35,2.6,2.6,0,0,0-1.86.81,2.47,2.47,0,1,0,4,2.68,2.15,2.15,0,0,0,.17-.73c0-.13.07-.17.18-.17s.25.07.25.24a7.59,7.59,0,0,1-.27,2.33,6.52,6.52,0,0,1-.85,1.82,9.91,9.91,0,0,1,1.51-.08,12.66,12.66,0,0,1,1.44.07A5.4,5.4,0,0,1,681.45,53.45Z"/><path d="M451.14,222v-1l3.94-4.86a2.17,2.17,0,0,0,.53-1.4,1.44,1.44,0,0,0-1.6-1.57,1.56,1.56,0,0,0-1.65,1.76h-1.23a2.71,2.71,0,0,1,2.87-2.84,2.82,2.82,0,0,1,2.38,1.12,2.52,2.52,0,0,1,.45,1.51,3.2,3.2,0,0,1-.83,2.07l-3.31,4.1H457V222Z"/><path d="M464,221.36a3.09,3.09,0,0,1-4.2,0c-1-1-1.15-2.35-1.15-4.23s.17-3.25,1.15-4.24a3.12,3.12,0,0,1,4.2,0c1,1,1.15,2.37,1.15,4.24S465,220.36,464,221.36Zm-.9-7.75a1.84,1.84,0,0,0-2.41,0c-.83.78-.8,2.2-.8,3.52s0,2.73.8,3.52a1.84,1.84,0,0,0,2.41,0c.83-.79.8-2.2.8-3.52S463.92,214.39,463.1,213.61Z"/><path d="M471.83,221.36a3.09,3.09,0,0,1-4.2,0c-1-1-1.15-2.35-1.15-4.23s.17-3.25,1.15-4.24a3.12,3.12,0,0,1,4.2,0c1,1,1.15,2.37,1.15,4.24S472.81,220.36,471.83,221.36Zm-.9-7.75a1.84,1.84,0,0,0-2.41,0c-.83.78-.8,2.2-.8,3.52s0,2.73.8,3.52a1.84,1.84,0,0,0,2.41,0c.83-.79.8-2.2.8-3.52S471.76,214.39,470.94,213.61Z"/><path d="M485.12,222.85a12.25,12.25,0,0,0-1.34-.06,15,15,0,0,0-2.61.22,8.86,8.86,0,0,0,1-1.43,4.32,4.32,0,0,0,.63-1.64,2.81,2.81,0,0,1-2.19,1,3.1,3.1,0,0,1-2-5.34,3.09,3.09,0,0,1,1.89-.76,5.3,5.3,0,0,1,.74.06,2.82,2.82,0,0,1-.42-1.47,3,3,0,1,1,6,0,2.7,2.7,0,0,1-.43,1.51,6.58,6.58,0,0,1,.83-.06,3,3,0,0,1,2.2,1.13,3.08,3.08,0,0,1,.64,1.89,3,3,0,0,1-5.24,2.07,3.34,3.34,0,0,0,.52,1.46,9.71,9.71,0,0,0,1.23,1.58Zm-.67-2.41a6.72,6.72,0,0,1-.2-1.55c0-.6,0-.6,0-.66a.24.24,0,0,1,.24-.25c.14,0,.18.07.22.41a1.68,1.68,0,0,0,.29.81,2.39,2.39,0,0,0,2.09,1.21,2.46,2.46,0,0,0,2.45-2.52,2.61,2.61,0,0,0-.63-1.68,2.34,2.34,0,0,0-1.82-.81,2.28,2.28,0,0,0-1.55.55c-.18.14-.27.18-.35.18a.24.24,0,0,1-.21-.22c0-.08,0-.14.24-.31a3.29,3.29,0,0,0,.36-.38,2.66,2.66,0,0,0,.76-1.82,2.46,2.46,0,0,0-2.47-2.51,2.35,2.35,0,0,0-2,1,2.55,2.55,0,0,0-.5,1.46,3.07,3.07,0,0,0,.87,1.93,2.17,2.17,0,0,0,.31.29.5.5,0,0,1,.2.34.2.2,0,0,1-.21.2c-.1,0-.25-.1-.63-.39a2.06,2.06,0,0,0-1.19-.35,2.6,2.6,0,0,0-1.86.81,2.47,2.47,0,1,0,4,2.68,2.16,2.16,0,0,0,.17-.73c0-.13.07-.17.18-.17s.25.07.25.24a7.62,7.62,0,0,1-.27,2.33,6.55,6.55,0,0,1-.85,1.82,9.91,9.91,0,0,1,1.51-.08,12.67,12.67,0,0,1,1.44.07A5.39,5.39,0,0,1,484.45,220.45Z"/><rect class="cls-6" x="163" y="77.5" width="223" height="1"/><polygon class="cls-6" points="173.67 81.48 161.13 78 173.67 74.52 173.93 75.48 166.67 77.5 386 77.5 386 78.5 166.67 78.5 173.93 80.52 173.67 81.48"/><rect x="555" y="76.5" width="223" height="1"/><polygon points="565.67 80.48 553.13 77 565.67 73.52 565.93 74.48 558.67 76.5 778 76.5 778 77.5 558.67 77.5 565.93 79.52 565.67 80.48"/><path d="M470,245.5c-65.69,0-124.94-12.88-176.11-38.3S198.22,143.14,161.59,92.31l.81-.58c36.53,50.69,80.92,89.24,131.94,114.58S404.48,244.5,470,244.5s124.62-14.11,175.64-41.94,95.41-70.17,131.93-125.84l.84.55c-36.62,55.81-81.12,98.26-132.29,126.16S535.71,245.5,470,245.5Z"/><path d="M470,245.5c-65.69,0-124.94-12.88-176.11-38.3-50.18-24.92-94-62.59-130.19-112l2.63,7.13-.94.35-4.5-12.21,10.15,8.13-.62.78-5.84-4.68c36.11,49.21,79.75,86.73,129.75,111.56,51,25.34,110.13,38.19,175.66,38.19s124.62-14.11,175.64-41.94,95.41-70.17,131.93-125.84l.84.55c-36.62,55.81-81.12,98.26-132.29,126.16S535.71,245.5,470,245.5Z"/><path d="M652.08,19.71v2.66h4.51V24h-4.51v4h-1.81V18.07h6.86v1.64Z"/><path d="M660.38,28.08a1.77,1.77,0,0,1-2-2V17.87h1.76v8c0,.42.1.7.7.7h.29V28A2.94,2.94,0,0,1,660.38,28.08Z"/><path d="M662.63,19.71V17.9h1.88v1.81Zm.06,8.29V20.72h1.78V28Z"/><path d="M672.1,27.59a2.74,2.74,0,0,1-1.78.59,2.5,2.5,0,0,1-1.9-.71v3.32h-1.75V20.72h1.51l.11.8a2.38,2.38,0,0,1,2-1,2.75,2.75,0,0,1,1.77.62,3.92,3.92,0,0,1,1.3,3.18A4,4,0,0,1,672.1,27.59Zm-.94-5A1.44,1.44,0,0,0,670,22c-1.37,0-1.65,1.3-1.65,2.35s.28,2.34,1.65,2.34a1.44,1.44,0,0,0,1.18-.57,2.9,2.9,0,0,0,.46-1.76A3,3,0,0,0,671.16,22.59Z"/><path d="M677.78,28V26.6l3.8-4.52a2,2,0,0,0,.5-1.25,1.15,1.15,0,0,0-1.23-1.22,1.29,1.29,0,0,0-1.3,1.4h-1.79a2.83,2.83,0,0,1,3.11-2.94,2.76,2.76,0,0,1,3,2.75,4,4,0,0,1-1.06,2.38l-2.69,3.22H684V28Z"/><path d="M455.08,186.71v2.66h4.51V191h-4.51v4h-1.81v-9.93h6.86v1.64Z"/><path d="M463.38,195.08a1.77,1.77,0,0,1-2-2v-8.25h1.76v8c0,.42.1.7.7.7h.29V195A2.94,2.94,0,0,1,463.38,195.08Z"/><path d="M465.63,186.71V184.9h1.88v1.81Zm.06,8.29v-7.28h1.78V195Z"/><path d="M475.1,194.59a2.74,2.74,0,0,1-1.78.59,2.5,2.5,0,0,1-1.9-.71v3.32h-1.75V187.72h1.51l.11.8a2.38,2.38,0,0,1,2-1,2.74,2.74,0,0,1,1.76.62,3.92,3.92,0,0,1,1.3,3.18A4,4,0,0,1,475.1,194.59Zm-.94-5A1.44,1.44,0,0,0,473,189c-1.37,0-1.65,1.3-1.65,2.35s.28,2.34,1.65,2.34a1.44,1.44,0,0,0,1.18-.57,2.91,2.91,0,0,0,.46-1.76A3,3,0,0,0,474.16,189.59Z"/><path d="M480.78,195v-1.4l3.8-4.52a2,2,0,0,0,.5-1.25,1.15,1.15,0,0,0-1.23-1.22,1.29,1.29,0,0,0-1.3,1.4h-1.79a2.83,2.83,0,0,1,3.11-2.94,2.76,2.76,0,0,1,3,2.75,4,4,0,0,1-1.06,2.38l-2.69,3.22H487V195Z"/><path class="cls-9" d="M258.08,19.71v2.66h4.51V24h-4.51v4h-1.81V18.07h6.86v1.64Z"/><path class="cls-9" d="M266.38,28.08a1.77,1.77,0,0,1-2-2V17.87h1.76v8c0,.42.1.7.7.7h.29V28A2.94,2.94,0,0,1,266.38,28.08Z"/><path class="cls-9" d="M268.63,19.71V17.9h1.88v1.81Zm.06,8.29V20.72h1.78V28Z"/><path class="cls-9" d="M278.1,27.59a2.74,2.74,0,0,1-1.78.59,2.5,2.5,0,0,1-1.9-.71v3.32h-1.75V20.72h1.51l.11.8a2.38,2.38,0,0,1,2-1,2.74,2.74,0,0,1,1.76.62,3.92,3.92,0,0,1,1.3,3.18A4,4,0,0,1,278.1,27.59Zm-.94-5A1.44,1.44,0,0,0,276,22c-1.37,0-1.65,1.3-1.65,2.35s.28,2.34,1.65,2.34a1.44,1.44,0,0,0,1.18-.57,2.91,2.91,0,0,0,.46-1.76A3,3,0,0,0,277.16,22.59Z"/><path class="cls-9" d="M286.68,28V20.34l-2.14,1.55V20l2.4-1.72h1.5V28Z"/></svg>