<?xml version="1.0" standalone="no"?>
<!DOCTYPE svg PUBLIC "-//W3C//DTD SVG 20010904//EN"
 "http://www.w3.org/TR/2001/REC-SVG-20010904/DTD/svg10.dtd">
<svg version="1.0" xmlns="http://www.w3.org/2000/svg"
 width="700.000000pt" height="700.000000pt" viewBox="0 0 700.000000 700.000000"
 preserveAspectRatio="xMidYMid meet">
<metadata>
Created by potrace 1.11, written by Peter Selinger 2001-2013
</metadata>
<g transform="translate(0.000000,700.000000) scale(0.100000,-0.100000)"
fill="#000000" stroke="none">
<path d="M3149 6996 c-4 -3 -76 -13 -149 -21 -14 -1 -38 -5 -55 -8 -16 -4 -43
-9 -60 -12 -36 -5 -121 -22 -152 -30 -13 -3 -33 -7 -44 -10 -147 -32 -425
-123 -564 -184 -99 -44 -286 -138 -349 -175 -43 -25 -79 -46 -81 -46 -2 0 -50
-31 -107 -69 -749 -495 -1263 -1218 -1482 -2081 -19 -74 -37 -151 -40 -170 -3
-19 -7 -44 -10 -55 -4 -23 -23 -143 -31 -198 -26 -187 -26 -654 -1 -837 3 -19
8 -55 11 -80 48 -383 220 -892 412 -1218 24 -41 43 -76 43 -78 0 -5 172 -265
189 -287 6 -6 51 -62 101 -124 122 -152 238 -274 400 -422 91 -83 299 -242
415 -316 401 -256 801 -416 1265 -504 58 -11 130 -23 160 -26 30 -4 63 -8 74
-10 142 -26 679 -25 811 0 11 2 45 7 76 10 31 3 67 8 80 10 13 3 40 8 59 11
447 80 921 269 1290 514 154 103 191 129 298 217 506 415 874 938 1092 1548
56 157 103 335 145 545 9 47 19 114 30 215 3 28 8 68 11 90 3 22 6 144 8 270
3 208 -2 318 -19 454 -3 25 -8 60 -10 76 -2 17 -9 62 -15 100 -7 39 -14 79
-15 90 -17 112 -129 500 -174 600 -5 11 -33 74 -61 140 -106 243 -246 481
-420 710 -46 61 -86 112 -89 115 -3 3 -30 33 -58 66 -56 65 -199 211 -274 279
-527 478 -1154 774 -1859 880 -19 2 -53 8 -75 11 -43 7 -769 16 -776 10z"/>
</g>
</svg>
