<svg width="796" height="554" viewBox="0 0 796 554" fill="none" xmlns="http://www.w3.org/2000/svg">
<g filter="url(#filter0_d)">
<rect x="4" width="788" height="546" rx="8" fill="white"/>
<rect x="4.5" y="0.5" width="787" height="545" rx="7.5" stroke="#01B463"/>
</g>
<rect x="505.5" y="143.163" width="160.602" height="232.337" rx="7.5" fill="white" stroke="#01B463" stroke-dasharray="2 2"/>
<rect x="318.5" y="143.163" width="160.602" height="232.337" rx="7.5" fill="white" stroke="#01B463" stroke-dasharray="2 2"/>
<rect x="130.5" y="143.163" width="160.602" height="232.337" rx="7.5" fill="white" stroke="#01B463" stroke-dasharray="2 2"/>
<path fill-rule="evenodd" clip-rule="evenodd" d="M586 292.735C617.48 292.735 643 267.051 643 235.368C643 203.684 617.48 178 586 178C554.52 178 529 203.684 529 235.368C529 267.051 554.52 292.735 586 292.735Z" fill="#808080" stroke="#808080" stroke-width="0.984615"/>
<path fill-rule="evenodd" clip-rule="evenodd" d="M552.75 206.684C555.373 206.684 557.5 204.543 557.5 201.903C557.5 199.263 555.373 197.123 552.75 197.123C550.127 197.123 548 199.263 548 201.903C548 204.543 550.127 206.684 552.75 206.684Z" fill="black"/>
<path fill-rule="evenodd" clip-rule="evenodd" d="M552.75 216.245C555.373 216.245 557.5 214.105 557.5 211.465C557.5 208.824 555.373 206.684 552.75 206.684C550.127 206.684 548 208.824 548 211.465C548 214.105 550.127 216.245 552.75 216.245Z" fill="black"/>
<path fill-rule="evenodd" clip-rule="evenodd" d="M552.75 225.806C555.373 225.806 557.5 223.666 557.5 221.026C557.5 218.385 555.373 216.245 552.75 216.245C550.127 216.245 548 218.385 548 221.026C548 223.666 550.127 225.806 552.75 225.806Z" fill="black"/>
<path fill-rule="evenodd" clip-rule="evenodd" d="M552.75 235.367C555.373 235.367 557.5 233.227 557.5 230.587C557.5 227.947 555.373 225.806 552.75 225.806C550.127 225.806 548 227.947 548 230.587C548 233.227 550.127 235.367 552.75 235.367Z" fill="black"/>
<path fill-rule="evenodd" clip-rule="evenodd" d="M552.75 244.929C555.373 244.929 557.5 242.789 557.5 240.148C557.5 237.508 555.373 235.368 552.75 235.368C550.127 235.368 548 237.508 548 240.148C548 242.789 550.127 244.929 552.75 244.929Z" fill="black"/>
<path fill-rule="evenodd" clip-rule="evenodd" d="M552.75 254.49C555.373 254.49 557.5 252.35 557.5 249.71C557.5 247.07 555.373 244.929 552.75 244.929C550.127 244.929 548 247.07 548 249.71C548 252.35 550.127 254.49 552.75 254.49Z" fill="black"/>
<path fill-rule="evenodd" clip-rule="evenodd" d="M552.75 264.052C555.373 264.052 557.5 261.911 557.5 259.271C557.5 256.631 555.373 254.49 552.75 254.49C550.127 254.49 548 256.631 548 259.271C548 261.911 550.127 264.052 552.75 264.052Z" fill="black"/>
<path fill-rule="evenodd" clip-rule="evenodd" d="M552.75 273.613C555.373 273.613 557.5 271.472 557.5 268.832C557.5 266.192 555.373 264.051 552.75 264.051C550.127 264.051 548 266.192 548 268.832C548 271.472 550.127 273.613 552.75 273.613Z" fill="white"/>
<path fill-rule="evenodd" clip-rule="evenodd" d="M562.25 206.684C564.873 206.684 567 204.543 567 201.903C567 199.263 564.873 197.123 562.25 197.123C559.627 197.123 557.5 199.263 557.5 201.903C557.5 204.543 559.627 206.684 562.25 206.684Z" fill="black"/>
<path fill-rule="evenodd" clip-rule="evenodd" d="M562.25 216.245C564.873 216.245 567 214.105 567 211.465C567 208.824 564.873 206.684 562.25 206.684C559.627 206.684 557.5 208.824 557.5 211.465C557.5 214.105 559.627 216.245 562.25 216.245Z" fill="black"/>
<path fill-rule="evenodd" clip-rule="evenodd" d="M562.25 225.806C564.873 225.806 567 223.666 567 221.026C567 218.385 564.873 216.245 562.25 216.245C559.627 216.245 557.5 218.385 557.5 221.026C557.5 223.666 559.627 225.806 562.25 225.806Z" fill="white"/>
<path fill-rule="evenodd" clip-rule="evenodd" d="M562.25 235.367C564.873 235.367 567 233.227 567 230.587C567 227.947 564.873 225.806 562.25 225.806C559.627 225.806 557.5 227.947 557.5 230.587C557.5 233.227 559.627 235.367 562.25 235.367Z" fill="white"/>
<path fill-rule="evenodd" clip-rule="evenodd" d="M562.25 244.929C564.873 244.929 567 242.789 567 240.148C567 237.508 564.873 235.368 562.25 235.368C559.627 235.368 557.5 237.508 557.5 240.148C557.5 242.789 559.627 244.929 562.25 244.929Z" fill="white"/>
<path fill-rule="evenodd" clip-rule="evenodd" d="M562.25 254.49C564.873 254.49 567 252.35 567 249.71C567 247.07 564.873 244.929 562.25 244.929C559.627 244.929 557.5 247.07 557.5 249.71C557.5 252.35 559.627 254.49 562.25 254.49Z" fill="black"/>
<path fill-rule="evenodd" clip-rule="evenodd" d="M562.25 264.052C564.873 264.052 567 261.911 567 259.271C567 256.631 564.873 254.49 562.25 254.49C559.627 254.49 557.5 256.631 557.5 259.271C557.5 261.911 559.627 264.052 562.25 264.052Z" fill="white"/>
<path fill-rule="evenodd" clip-rule="evenodd" d="M562.25 273.613C564.873 273.613 567 271.472 567 268.832C567 266.192 564.873 264.051 562.25 264.051C559.627 264.051 557.5 266.192 557.5 268.832C557.5 271.472 559.627 273.613 562.25 273.613Z" fill="white"/>
<path fill-rule="evenodd" clip-rule="evenodd" d="M571.75 206.684C574.373 206.684 576.5 204.543 576.5 201.903C576.5 199.263 574.373 197.123 571.75 197.123C569.127 197.123 567 199.263 567 201.903C567 204.543 569.127 206.684 571.75 206.684Z" fill="black"/>
<path fill-rule="evenodd" clip-rule="evenodd" d="M571.75 216.245C574.373 216.245 576.5 214.105 576.5 211.465C576.5 208.824 574.373 206.684 571.75 206.684C569.127 206.684 567 208.824 567 211.465C567 214.105 569.127 216.245 571.75 216.245Z" fill="white"/>
<path fill-rule="evenodd" clip-rule="evenodd" d="M571.75 225.806C574.373 225.806 576.5 223.666 576.5 221.026C576.5 218.385 574.373 216.245 571.75 216.245C569.127 216.245 567 218.385 567 221.026C567 223.666 569.127 225.806 571.75 225.806Z" fill="black"/>
<path fill-rule="evenodd" clip-rule="evenodd" d="M571.75 235.367C574.373 235.367 576.5 233.227 576.5 230.587C576.5 227.947 574.373 225.806 571.75 225.806C569.127 225.806 567 227.947 567 230.587C567 233.227 569.127 235.367 571.75 235.367Z" fill="white"/>
<path fill-rule="evenodd" clip-rule="evenodd" d="M571.75 244.929C574.373 244.929 576.5 242.789 576.5 240.148C576.5 237.508 574.373 235.368 571.75 235.368C569.127 235.368 567 237.508 567 240.148C567 242.789 569.127 244.929 571.75 244.929Z" fill="black"/>
<path fill-rule="evenodd" clip-rule="evenodd" d="M571.75 254.49C574.373 254.49 576.5 252.35 576.5 249.71C576.5 247.07 574.373 244.929 571.75 244.929C569.127 244.929 567 247.07 567 249.71C567 252.35 569.127 254.49 571.75 254.49Z" fill="white"/>
<path fill-rule="evenodd" clip-rule="evenodd" d="M571.75 264.052C574.373 264.052 576.5 261.911 576.5 259.271C576.5 256.631 574.373 254.49 571.75 254.49C569.127 254.49 567 256.631 567 259.271C567 261.911 569.127 264.052 571.75 264.052Z" fill="black"/>
<path fill-rule="evenodd" clip-rule="evenodd" d="M571.75 273.613C574.373 273.613 576.5 271.472 576.5 268.832C576.5 266.192 574.373 264.051 571.75 264.051C569.127 264.051 567 266.192 567 268.832C567 271.472 569.127 273.613 571.75 273.613Z" fill="white"/>
<path fill-rule="evenodd" clip-rule="evenodd" d="M581.25 206.684C583.873 206.684 586 204.543 586 201.903C586 199.263 583.873 197.123 581.25 197.123C578.627 197.123 576.5 199.263 576.5 201.903C576.5 204.543 578.627 206.684 581.25 206.684Z" fill="black"/>
<path fill-rule="evenodd" clip-rule="evenodd" d="M581.25 216.245C583.873 216.245 586 214.105 586 211.465C586 208.824 583.873 206.684 581.25 206.684C578.627 206.684 576.5 208.824 576.5 211.465C576.5 214.105 578.627 216.245 581.25 216.245Z" fill="white"/>
<path fill-rule="evenodd" clip-rule="evenodd" d="M581.25 225.806C583.873 225.806 586 223.666 586 221.026C586 218.385 583.873 216.245 581.25 216.245C578.627 216.245 576.5 218.385 576.5 221.026C576.5 223.666 578.627 225.806 581.25 225.806Z" fill="white"/>
<path fill-rule="evenodd" clip-rule="evenodd" d="M581.25 235.367C583.873 235.367 586 233.227 586 230.587C586 227.947 583.873 225.806 581.25 225.806C578.627 225.806 576.5 227.947 576.5 230.587C576.5 233.227 578.627 235.367 581.25 235.367Z" fill="black"/>
<path fill-rule="evenodd" clip-rule="evenodd" d="M581.25 244.929C583.873 244.929 586 242.789 586 240.148C586 237.508 583.873 235.368 581.25 235.368C578.627 235.368 576.5 237.508 576.5 240.148C576.5 242.789 578.627 244.929 581.25 244.929Z" fill="white"/>
<path fill-rule="evenodd" clip-rule="evenodd" d="M581.25 254.49C583.873 254.49 586 252.35 586 249.71C586 247.07 583.873 244.929 581.25 244.929C578.627 244.929 576.5 247.07 576.5 249.71C576.5 252.35 578.627 254.49 581.25 254.49Z" fill="black"/>
<path fill-rule="evenodd" clip-rule="evenodd" d="M581.25 264.052C583.873 264.052 586 261.911 586 259.271C586 256.631 583.873 254.49 581.25 254.49C578.627 254.49 576.5 256.631 576.5 259.271C576.5 261.911 578.627 264.052 581.25 264.052Z" fill="black"/>
<path fill-rule="evenodd" clip-rule="evenodd" d="M581.25 273.613C583.873 273.613 586 271.472 586 268.832C586 266.192 583.873 264.051 581.25 264.051C578.627 264.051 576.5 266.192 576.5 268.832C576.5 271.472 578.627 273.613 581.25 273.613Z" fill="white"/>
<path fill-rule="evenodd" clip-rule="evenodd" d="M590.75 206.684C593.373 206.684 595.5 204.543 595.5 201.903C595.5 199.263 593.373 197.123 590.75 197.123C588.127 197.123 586 199.263 586 201.903C586 204.543 588.127 206.684 590.75 206.684Z" fill="black"/>
<path fill-rule="evenodd" clip-rule="evenodd" d="M590.75 216.245C593.373 216.245 595.5 214.105 595.5 211.465C595.5 208.824 593.373 206.684 590.75 206.684C588.127 206.684 586 208.824 586 211.465C586 214.105 588.127 216.245 590.75 216.245Z" fill="white"/>
<path fill-rule="evenodd" clip-rule="evenodd" d="M590.75 225.806C593.373 225.806 595.5 223.666 595.5 221.026C595.5 218.385 593.373 216.245 590.75 216.245C588.127 216.245 586 218.385 586 221.026C586 223.666 588.127 225.806 590.75 225.806Z" fill="black"/>
<path fill-rule="evenodd" clip-rule="evenodd" d="M590.75 235.367C593.373 235.367 595.5 233.227 595.5 230.587C595.5 227.947 593.373 225.806 590.75 225.806C588.127 225.806 586 227.947 586 230.587C586 233.227 588.127 235.367 590.75 235.367Z" fill="white"/>
<path fill-rule="evenodd" clip-rule="evenodd" d="M590.75 244.929C593.373 244.929 595.5 242.789 595.5 240.148C595.5 237.508 593.373 235.368 590.75 235.368C588.127 235.368 586 237.508 586 240.148C586 242.789 588.127 244.929 590.75 244.929Z" fill="black"/>
<path fill-rule="evenodd" clip-rule="evenodd" d="M590.75 254.49C593.373 254.49 595.5 252.35 595.5 249.71C595.5 247.07 593.373 244.929 590.75 244.929C588.127 244.929 586 247.07 586 249.71C586 252.35 588.127 254.49 590.75 254.49Z" fill="white"/>
<path fill-rule="evenodd" clip-rule="evenodd" d="M590.75 264.052C593.373 264.052 595.5 261.911 595.5 259.271C595.5 256.631 593.373 254.49 590.75 254.49C588.127 254.49 586 256.631 586 259.271C586 261.911 588.127 264.052 590.75 264.052Z" fill="black"/>
<path fill-rule="evenodd" clip-rule="evenodd" d="M590.75 273.613C593.373 273.613 595.5 271.472 595.5 268.832C595.5 266.192 593.373 264.051 590.75 264.051C588.127 264.051 586 266.192 586 268.832C586 271.472 588.127 273.613 590.75 273.613Z" fill="white"/>
<path fill-rule="evenodd" clip-rule="evenodd" d="M600.25 206.684C602.873 206.684 605 204.543 605 201.903C605 199.263 602.873 197.123 600.25 197.123C597.627 197.123 595.5 199.263 595.5 201.903C595.5 204.543 597.627 206.684 600.25 206.684Z" fill="black"/>
<path fill-rule="evenodd" clip-rule="evenodd" d="M600.25 216.245C602.873 216.245 605 214.105 605 211.465C605 208.824 602.873 206.684 600.25 206.684C597.627 206.684 595.5 208.824 595.5 211.465C595.5 214.105 597.627 216.245 600.25 216.245Z" fill="black"/>
<path fill-rule="evenodd" clip-rule="evenodd" d="M600.25 225.806C602.873 225.806 605 223.666 605 221.026C605 218.385 602.873 216.245 600.25 216.245C597.627 216.245 595.5 218.385 595.5 221.026C595.5 223.666 597.627 225.806 600.25 225.806Z" fill="white"/>
<path fill-rule="evenodd" clip-rule="evenodd" d="M600.25 235.367C602.873 235.367 605 233.227 605 230.587C605 227.947 602.873 225.806 600.25 225.806C597.627 225.806 595.5 227.947 595.5 230.587C595.5 233.227 597.627 235.367 600.25 235.367Z" fill="black"/>
<path fill-rule="evenodd" clip-rule="evenodd" d="M600.25 244.929C602.873 244.929 605 242.789 605 240.148C605 237.508 602.873 235.368 600.25 235.368C597.627 235.368 595.5 237.508 595.5 240.148C595.5 242.789 597.627 244.929 600.25 244.929Z" fill="white"/>
<path fill-rule="evenodd" clip-rule="evenodd" d="M600.25 254.49C602.873 254.49 605 252.35 605 249.71C605 247.07 602.873 244.929 600.25 244.929C597.627 244.929 595.5 247.07 595.5 249.71C595.5 252.35 597.627 254.49 600.25 254.49Z" fill="black"/>
<path fill-rule="evenodd" clip-rule="evenodd" d="M600.25 264.052C602.873 264.052 605 261.911 605 259.271C605 256.631 602.873 254.49 600.25 254.49C597.627 254.49 595.5 256.631 595.5 259.271C595.5 261.911 597.627 264.052 600.25 264.052Z" fill="black"/>
<path fill-rule="evenodd" clip-rule="evenodd" d="M600.25 273.613C602.873 273.613 605 271.472 605 268.832C605 266.192 602.873 264.051 600.25 264.051C597.627 264.051 595.5 266.192 595.5 268.832C595.5 271.472 597.627 273.613 600.25 273.613Z" fill="white"/>
<path fill-rule="evenodd" clip-rule="evenodd" d="M609.75 206.684C612.373 206.684 614.5 204.543 614.5 201.903C614.5 199.263 612.373 197.123 609.75 197.123C607.127 197.123 605 199.263 605 201.903C605 204.543 607.127 206.684 609.75 206.684Z" fill="black"/>
<path fill-rule="evenodd" clip-rule="evenodd" d="M609.75 216.245C612.373 216.245 614.5 214.105 614.5 211.465C614.5 208.824 612.373 206.684 609.75 206.684C607.127 206.684 605 208.824 605 211.465C605 214.105 607.127 216.245 609.75 216.245Z" fill="white"/>
<path fill-rule="evenodd" clip-rule="evenodd" d="M609.75 225.806C612.373 225.806 614.5 223.666 614.5 221.026C614.5 218.385 612.373 216.245 609.75 216.245C607.127 216.245 605 218.385 605 221.026C605 223.666 607.127 225.806 609.75 225.806Z" fill="black"/>
<path fill-rule="evenodd" clip-rule="evenodd" d="M609.75 235.367C612.373 235.367 614.5 233.227 614.5 230.587C614.5 227.947 612.373 225.806 609.75 225.806C607.127 225.806 605 227.947 605 230.587C605 233.227 607.127 235.367 609.75 235.367Z" fill="white"/>
<path fill-rule="evenodd" clip-rule="evenodd" d="M609.75 244.929C612.373 244.929 614.5 242.789 614.5 240.148C614.5 237.508 612.373 235.368 609.75 235.368C607.127 235.368 605 237.508 605 240.148C605 242.789 607.127 244.929 609.75 244.929Z" fill="black"/>
<path fill-rule="evenodd" clip-rule="evenodd" d="M609.75 254.49C612.373 254.49 614.5 252.35 614.5 249.71C614.5 247.07 612.373 244.929 609.75 244.929C607.127 244.929 605 247.07 605 249.71C605 252.35 607.127 254.49 609.75 254.49Z" fill="black"/>
<path fill-rule="evenodd" clip-rule="evenodd" d="M609.75 264.052C612.373 264.052 614.5 261.911 614.5 259.271C614.5 256.631 612.373 254.49 609.75 254.49C607.127 254.49 605 256.631 605 259.271C605 261.911 607.127 264.052 609.75 264.052Z" fill="black"/>
<path fill-rule="evenodd" clip-rule="evenodd" d="M609.75 273.613C612.373 273.613 614.5 271.472 614.5 268.832C614.5 266.192 612.373 264.051 609.75 264.051C607.127 264.051 605 266.192 605 268.832C605 271.472 607.127 273.613 609.75 273.613Z" fill="white"/>
<path fill-rule="evenodd" clip-rule="evenodd" d="M619.25 206.684C621.873 206.684 624 204.543 624 201.903C624 199.263 621.873 197.123 619.25 197.123C616.627 197.123 614.5 199.263 614.5 201.903C614.5 204.543 616.627 206.684 619.25 206.684Z" fill="white"/>
<path fill-rule="evenodd" clip-rule="evenodd" d="M619.25 216.245C621.873 216.245 624 214.105 624 211.465C624 208.824 621.873 206.684 619.25 206.684C616.627 206.684 614.5 208.824 614.5 211.465C614.5 214.105 616.627 216.245 619.25 216.245Z" fill="white"/>
<path fill-rule="evenodd" clip-rule="evenodd" d="M619.25 225.806C621.873 225.806 624 223.666 624 221.026C624 218.385 621.873 216.245 619.25 216.245C616.627 216.245 614.5 218.385 614.5 221.026C614.5 223.666 616.627 225.806 619.25 225.806Z" fill="white"/>
<path fill-rule="evenodd" clip-rule="evenodd" d="M619.25 235.367C621.873 235.367 624 233.227 624 230.587C624 227.947 621.873 225.806 619.25 225.806C616.627 225.806 614.5 227.947 614.5 230.587C614.5 233.227 616.627 235.367 619.25 235.367Z" fill="white"/>
<path fill-rule="evenodd" clip-rule="evenodd" d="M619.25 244.929C621.873 244.929 624 242.789 624 240.148C624 237.508 621.873 235.368 619.25 235.368C616.627 235.368 614.5 237.508 614.5 240.148C614.5 242.789 616.627 244.929 619.25 244.929Z" fill="white"/>
<path fill-rule="evenodd" clip-rule="evenodd" d="M619.25 254.49C621.873 254.49 624 252.35 624 249.71C624 247.07 621.873 244.929 619.25 244.929C616.627 244.929 614.5 247.07 614.5 249.71C614.5 252.35 616.627 254.49 619.25 254.49Z" fill="white"/>
<path fill-rule="evenodd" clip-rule="evenodd" d="M619.25 264.052C621.873 264.052 624 261.911 624 259.271C624 256.631 621.873 254.49 619.25 254.49C616.627 254.49 614.5 256.631 614.5 259.271C614.5 261.911 616.627 264.052 619.25 264.052Z" fill="white"/>
<path fill-rule="evenodd" clip-rule="evenodd" d="M619.25 273.613C621.873 273.613 624 271.472 624 268.832C624 266.192 621.873 264.051 619.25 264.051C616.627 264.051 614.5 266.192 614.5 268.832C614.5 271.472 616.627 273.613 619.25 273.613Z" fill="white"/>
<path d="M378.386 357H386.594V355.542H380.564C381.788 354.696 382.67 353.976 383.642 353.076C385.568 351.294 386.45 349.764 386.45 348C386.45 345.57 384.992 344.22 382.562 344.22C380.042 344.22 378.53 345.642 378.53 347.856C378.53 348.18 378.566 348.504 378.656 348.864L380.276 349.026C380.186 348.576 380.132 348.198 380.132 347.874C380.132 346.506 381.014 345.624 382.472 345.624C383.912 345.624 384.758 346.488 384.758 348.018C384.758 349.512 384.218 350.556 382.634 352.086C381.032 353.616 379.412 354.912 378.386 355.668V357ZM393.442 344.22C390.598 344.22 388.888 346.128 388.87 350.754C388.888 355.362 390.598 357.27 393.442 357.27C396.286 357.27 397.996 355.362 398.014 350.754C397.996 346.128 396.286 344.22 393.442 344.22ZM393.442 345.57C394.378 345.57 395.152 345.894 395.674 346.794L390.724 353.4C390.544 352.698 390.454 351.816 390.454 350.754C390.472 346.776 391.66 345.57 393.442 345.57ZM393.442 355.92C392.452 355.92 391.642 355.542 391.12 354.534L396.124 347.892C396.322 348.63 396.43 349.566 396.43 350.754C396.412 354.678 395.224 355.92 393.442 355.92ZM404.304 344.22C401.46 344.22 399.75 346.128 399.732 350.754C399.75 355.362 401.46 357.27 404.304 357.27C407.148 357.27 408.858 355.362 408.876 350.754C408.858 346.128 407.148 344.22 404.304 344.22ZM404.304 345.57C405.24 345.57 406.014 345.894 406.536 346.794L401.586 353.4C401.406 352.698 401.316 351.816 401.316 350.754C401.334 346.776 402.522 345.57 404.304 345.57ZM404.304 355.92C403.314 355.92 402.504 355.542 401.982 354.534L406.986 347.892C407.184 348.63 407.292 349.566 407.292 350.754C407.274 354.678 406.086 355.92 404.304 355.92Z" fill="#01B463"/>
<circle cx="420" cy="351" r="7" fill="#01B463" fill-opacity="0.12"/>
<path d="M420.454 352.798V348.97C421.081 349.069 421.422 349.465 421.532 350.125L422.687 349.938C422.522 348.816 421.697 348.101 420.454 348.024V347.111H419.805V348.035C418.287 348.178 417.407 349.223 417.407 350.895C417.407 352.545 418.309 353.612 419.805 353.755V354.679H420.454V353.766C421.664 353.678 422.467 352.985 422.676 351.885L421.554 351.654C421.455 352.303 421.092 352.71 420.454 352.798ZM418.606 350.884C418.606 349.817 419.046 349.124 419.805 348.981V352.787C419.024 352.633 418.606 351.962 418.606 350.884Z" fill="#01B463"/>
<path fill-rule="evenodd" clip-rule="evenodd" d="M211 292C242.48 292 268 266.48 268 235C268 203.52 242.48 178 211 178C179.52 178 154 203.52 154 235C154 266.48 179.52 292 211 292Z" fill="black" stroke="black" stroke-width="0.984615"/>
<path fill-rule="evenodd" clip-rule="evenodd" d="M177.75 206.5C180.373 206.5 182.5 204.373 182.5 201.75C182.5 199.127 180.373 197 177.75 197C175.127 197 173 199.127 173 201.75C173 204.373 175.127 206.5 177.75 206.5Z" fill="white"/>
<path fill-rule="evenodd" clip-rule="evenodd" d="M187.25 225.5C189.873 225.5 192 223.373 192 220.75C192 218.127 189.873 216 187.25 216C184.627 216 182.5 218.127 182.5 220.75C182.5 223.373 184.627 225.5 187.25 225.5Z" fill="white"/>
<path fill-rule="evenodd" clip-rule="evenodd" d="M187.25 235C189.873 235 192 232.873 192 230.25C192 227.627 189.873 225.5 187.25 225.5C184.627 225.5 182.5 227.627 182.5 230.25C182.5 232.873 184.627 235 187.25 235Z" fill="white"/>
<path fill-rule="evenodd" clip-rule="evenodd" d="M187.25 244.5C189.873 244.5 192 242.373 192 239.75C192 237.127 189.873 235 187.25 235C184.627 235 182.5 237.127 182.5 239.75C182.5 242.373 184.627 244.5 187.25 244.5Z" fill="white"/>
<path fill-rule="evenodd" clip-rule="evenodd" d="M187.25 254C189.873 254 192 251.873 192 249.25C192 246.627 189.873 244.5 187.25 244.5C184.627 244.5 182.5 246.627 182.5 249.25C182.5 251.873 184.627 254 187.25 254Z" fill="white"/>
<path fill-rule="evenodd" clip-rule="evenodd" d="M187.25 273C189.873 273 192 270.873 192 268.25C192 265.627 189.873 263.5 187.25 263.5C184.627 263.5 182.5 265.627 182.5 268.25C182.5 270.873 184.627 273 187.25 273Z" fill="white"/>
<path fill-rule="evenodd" clip-rule="evenodd" d="M196.75 254C199.373 254 201.5 251.873 201.5 249.25C201.5 246.627 199.373 244.5 196.75 244.5C194.127 244.5 192 246.627 192 249.25C192 251.873 194.127 254 196.75 254Z" fill="white"/>
<path fill-rule="evenodd" clip-rule="evenodd" d="M196.75 273C199.373 273 201.5 270.873 201.5 268.25C201.5 265.627 199.373 263.5 196.75 263.5C194.127 263.5 192 265.627 192 268.25C192 270.873 194.127 273 196.75 273Z" fill="white"/>
<path fill-rule="evenodd" clip-rule="evenodd" d="M206.25 244.5C208.873 244.5 211 242.373 211 239.75C211 237.127 208.873 235 206.25 235C203.627 235 201.5 237.127 201.5 239.75C201.5 242.373 203.627 244.5 206.25 244.5Z" fill="white"/>
<path fill-rule="evenodd" clip-rule="evenodd" d="M206.25 254C208.873 254 211 251.873 211 249.25C211 246.627 208.873 244.5 206.25 244.5C203.627 244.5 201.5 246.627 201.5 249.25C201.5 251.873 203.627 254 206.25 254Z" fill="white"/>
<path fill-rule="evenodd" clip-rule="evenodd" d="M206.25 273C208.873 273 211 270.873 211 268.25C211 265.627 208.873 263.5 206.25 263.5C203.627 263.5 201.5 265.627 201.5 268.25C201.5 270.873 203.627 273 206.25 273Z" fill="white"/>
<path fill-rule="evenodd" clip-rule="evenodd" d="M215.75 273C218.373 273 220.5 270.873 220.5 268.25C220.5 265.627 218.373 263.5 215.75 263.5C213.127 263.5 211 265.627 211 268.25C211 270.873 213.127 273 215.75 273Z" fill="white"/>
<path fill-rule="evenodd" clip-rule="evenodd" d="M225.25 216C227.873 216 230 213.873 230 211.25C230 208.627 227.873 206.5 225.25 206.5C222.627 206.5 220.5 208.627 220.5 211.25C220.5 213.873 222.627 216 225.25 216Z" fill="white"/>
<path fill-rule="evenodd" clip-rule="evenodd" d="M225.25 273C227.873 273 230 270.873 230 268.25C230 265.627 227.873 263.5 225.25 263.5C222.627 263.5 220.5 265.627 220.5 268.25C220.5 270.873 222.627 273 225.25 273Z" fill="white"/>
<path fill-rule="evenodd" clip-rule="evenodd" d="M234.75 273C237.373 273 239.5 270.873 239.5 268.25C239.5 265.627 237.373 263.5 234.75 263.5C232.127 263.5 230 265.627 230 268.25C230 270.873 232.127 273 234.75 273Z" fill="white"/>
<path fill-rule="evenodd" clip-rule="evenodd" d="M244.25 216C246.873 216 249 213.873 249 211.25C249 208.627 246.873 206.5 244.25 206.5C241.627 206.5 239.5 208.627 239.5 211.25C239.5 213.873 241.627 216 244.25 216Z" fill="white"/>
<path fill-rule="evenodd" clip-rule="evenodd" d="M244.25 225.5C246.873 225.5 249 223.373 249 220.75C249 218.127 246.873 216 244.25 216C241.627 216 239.5 218.127 239.5 220.75C239.5 223.373 241.627 225.5 244.25 225.5Z" fill="white"/>
<path fill-rule="evenodd" clip-rule="evenodd" d="M244.25 235C246.873 235 249 232.873 249 230.25C249 227.627 246.873 225.5 244.25 225.5C241.627 225.5 239.5 227.627 239.5 230.25C239.5 232.873 241.627 235 244.25 235Z" fill="white"/>
<path fill-rule="evenodd" clip-rule="evenodd" d="M244.25 244.5C246.873 244.5 249 242.373 249 239.75C249 237.127 246.873 235 244.25 235C241.627 235 239.5 237.127 239.5 239.75C239.5 242.373 241.627 244.5 244.25 244.5Z" fill="white"/>
<path fill-rule="evenodd" clip-rule="evenodd" d="M244.25 254C246.873 254 249 251.873 249 249.25C249 246.627 246.873 244.5 244.25 244.5C241.627 244.5 239.5 246.627 239.5 249.25C239.5 251.873 241.627 254 244.25 254Z" fill="white"/>
<path fill-rule="evenodd" clip-rule="evenodd" d="M244.25 263.5C246.873 263.5 249 261.373 249 258.75C249 256.127 246.873 254 244.25 254C241.627 254 239.5 256.127 239.5 258.75C239.5 261.373 241.627 263.5 244.25 263.5Z" fill="white"/>
<path fill-rule="evenodd" clip-rule="evenodd" d="M244.25 273C246.873 273 249 270.873 249 268.25C249 265.627 246.873 263.5 244.25 263.5C241.627 263.5 239.5 265.627 239.5 268.25C239.5 270.873 241.627 273 244.25 273Z" fill="white"/>
<path fill-rule="evenodd" clip-rule="evenodd" d="M399 292.735C430.48 292.735 456 267.051 456 235.368C456 203.684 430.48 178 399 178C367.52 178 342 203.684 342 235.368C342 267.051 367.52 292.735 399 292.735Z" fill="white" stroke="black" stroke-width="0.984615"/>
<path fill-rule="evenodd" clip-rule="evenodd" d="M365.75 264.052C368.373 264.052 370.5 261.911 370.5 259.271C370.5 256.631 368.373 254.49 365.75 254.49C363.127 254.49 361 256.631 361 259.271C361 261.911 363.127 264.052 365.75 264.052Z" fill="black"/>
<path fill-rule="evenodd" clip-rule="evenodd" d="M384.75 225.806C387.373 225.806 389.5 223.666 389.5 221.026C389.5 218.385 387.373 216.245 384.75 216.245C382.127 216.245 380 218.385 380 221.026C380 223.666 382.127 225.806 384.75 225.806Z" fill="black"/>
<path fill-rule="evenodd" clip-rule="evenodd" d="M384.75 235.367C387.373 235.367 389.5 233.227 389.5 230.587C389.5 227.947 387.373 225.806 384.75 225.806C382.127 225.806 380 227.947 380 230.587C380 233.227 382.127 235.367 384.75 235.367Z" fill="black"/>
<path fill-rule="evenodd" clip-rule="evenodd" d="M384.75 244.929C387.373 244.929 389.5 242.789 389.5 240.148C389.5 237.508 387.373 235.368 384.75 235.368C382.127 235.368 380 237.508 380 240.148C380 242.789 382.127 244.929 384.75 244.929Z" fill="black"/>
<path fill-rule="evenodd" clip-rule="evenodd" d="M384.75 254.49C387.373 254.49 389.5 252.35 389.5 249.71C389.5 247.07 387.373 244.929 384.75 244.929C382.127 244.929 380 247.07 380 249.71C380 252.35 382.127 254.49 384.75 254.49Z" fill="black"/>
<path fill-rule="evenodd" clip-rule="evenodd" d="M394.25 225.806C396.873 225.806 399 223.666 399 221.026C399 218.385 396.873 216.245 394.25 216.245C391.627 216.245 389.5 218.385 389.5 221.026C389.5 223.666 391.627 225.806 394.25 225.806Z" fill="black"/>
<path fill-rule="evenodd" clip-rule="evenodd" d="M394.25 235.367C396.873 235.367 399 233.227 399 230.587C399 227.947 396.873 225.806 394.25 225.806C391.627 225.806 389.5 227.947 389.5 230.587C389.5 233.227 391.627 235.367 394.25 235.367Z" fill="black"/>
<path fill-rule="evenodd" clip-rule="evenodd" d="M394.25 264.052C396.873 264.052 399 261.911 399 259.271C399 256.631 396.873 254.49 394.25 254.49C391.627 254.49 389.5 256.631 389.5 259.271C389.5 261.911 391.627 264.052 394.25 264.052Z" fill="black"/>
<path fill-rule="evenodd" clip-rule="evenodd" d="M403.75 225.806C406.373 225.806 408.5 223.666 408.5 221.026C408.5 218.385 406.373 216.245 403.75 216.245C401.127 216.245 399 218.385 399 221.026C399 223.666 401.127 225.806 403.75 225.806Z" fill="black"/>
<path fill-rule="evenodd" clip-rule="evenodd" d="M403.75 254.49C406.373 254.49 408.5 252.35 408.5 249.71C408.5 247.07 406.373 244.929 403.75 244.929C401.127 244.929 399 247.07 399 249.71C399 252.35 401.127 254.49 403.75 254.49Z" fill="black"/>
<path fill-rule="evenodd" clip-rule="evenodd" d="M403.75 264.052C406.373 264.052 408.5 261.911 408.5 259.271C408.5 256.631 406.373 254.49 403.75 254.49C401.127 254.49 399 256.631 399 259.271C399 261.911 401.127 264.052 403.75 264.052Z" fill="black"/>
<path fill-rule="evenodd" clip-rule="evenodd" d="M413.25 225.806C415.873 225.806 418 223.666 418 221.026C418 218.385 415.873 216.245 413.25 216.245C410.627 216.245 408.5 218.385 408.5 221.026C408.5 223.666 410.627 225.806 413.25 225.806Z" fill="black"/>
<path fill-rule="evenodd" clip-rule="evenodd" d="M413.25 244.929C415.873 244.929 418 242.789 418 240.148C418 237.508 415.873 235.368 413.25 235.368C410.627 235.368 408.5 237.508 408.5 240.148C408.5 242.789 410.627 244.929 413.25 244.929Z" fill="black"/>
<path fill-rule="evenodd" clip-rule="evenodd" d="M413.25 254.49C415.873 254.49 418 252.35 418 249.71C418 247.07 415.873 244.929 413.25 244.929C410.627 244.929 408.5 247.07 408.5 249.71C408.5 252.35 410.627 254.49 413.25 254.49Z" fill="black"/>
<path fill-rule="evenodd" clip-rule="evenodd" d="M413.25 264.052C415.873 264.052 418 261.911 418 259.271C418 256.631 415.873 254.49 413.25 254.49C410.627 254.49 408.5 256.631 408.5 259.271C408.5 261.911 410.627 264.052 413.25 264.052Z" fill="black"/>
<path fill-rule="evenodd" clip-rule="evenodd" d="M422.75 206.684C425.373 206.684 427.5 204.543 427.5 201.903C427.5 199.263 425.373 197.123 422.75 197.123C420.127 197.123 418 199.263 418 201.903C418 204.543 420.127 206.684 422.75 206.684Z" fill="black"/>
<path fill-rule="evenodd" clip-rule="evenodd" d="M422.75 235.367C425.373 235.367 427.5 233.227 427.5 230.587C427.5 227.947 425.373 225.806 422.75 225.806C420.127 225.806 418 227.947 418 230.587C418 233.227 420.127 235.367 422.75 235.367Z" fill="black"/>
<path fill-rule="evenodd" clip-rule="evenodd" d="M422.75 244.929C425.373 244.929 427.5 242.789 427.5 240.148C427.5 237.508 425.373 235.368 422.75 235.368C420.127 235.368 418 237.508 418 240.148C418 242.789 420.127 244.929 422.75 244.929Z" fill="black"/>
<path fill-rule="evenodd" clip-rule="evenodd" d="M422.75 254.49C425.373 254.49 427.5 252.35 427.5 249.71C427.5 247.07 425.373 244.929 422.75 244.929C420.127 244.929 418 247.07 418 249.71C418 252.35 420.127 254.49 422.75 254.49Z" fill="black"/>
<path fill-rule="evenodd" clip-rule="evenodd" d="M422.75 264.052C425.373 264.052 427.5 261.911 427.5 259.271C427.5 256.631 425.373 254.49 422.75 254.49C420.127 254.49 418 256.631 418 259.271C418 261.911 420.127 264.052 422.75 264.052Z" fill="black"/>
<circle cx="15" cy="10" r="3.5" stroke="#01B463"/>
<circle cx="28" cy="10" r="3.5" stroke="#01B463"/>
<circle cx="41" cy="10" r="3.5" stroke="#01B463"/>
<line x1="4" y1="18.5" x2="791.001" y2="18.5" stroke="#01B463"/>
<path d="M197.534 357H199.064V353.832H201.116V352.572H199.064V344.49H197.318L191.846 352.734V353.832H197.534V357ZM193.43 352.572C193.754 352.23 193.898 351.978 194.276 351.402L196.616 347.892C197.156 347.064 197.336 346.74 197.552 346.164H197.57C197.534 347.082 197.534 347.406 197.534 347.982V352.572H193.43ZM207.442 344.22C204.598 344.22 202.888 346.128 202.87 350.754C202.888 355.362 204.598 357.27 207.442 357.27C210.286 357.27 211.996 355.362 212.014 350.754C211.996 346.128 210.286 344.22 207.442 344.22ZM207.442 345.57C208.378 345.57 209.152 345.894 209.674 346.794L204.724 353.4C204.544 352.698 204.454 351.816 204.454 350.754C204.472 346.776 205.66 345.57 207.442 345.57ZM207.442 355.92C206.452 355.92 205.642 355.542 205.12 354.534L210.124 347.892C210.322 348.63 210.43 349.566 210.43 350.754C210.412 354.678 209.224 355.92 207.442 355.92ZM218.304 344.22C215.46 344.22 213.75 346.128 213.732 350.754C213.75 355.362 215.46 357.27 218.304 357.27C221.148 357.27 222.858 355.362 222.876 350.754C222.858 346.128 221.148 344.22 218.304 344.22ZM218.304 345.57C219.24 345.57 220.014 345.894 220.536 346.794L215.586 353.4C215.406 352.698 215.316 351.816 215.316 350.754C215.334 346.776 216.522 345.57 218.304 345.57ZM218.304 355.92C217.314 355.92 216.504 355.542 215.982 354.534L220.986 347.892C221.184 348.63 221.292 349.566 221.292 350.754C221.274 354.678 220.086 355.92 218.304 355.92Z" fill="#01B463"/>
<circle cx="234" cy="351" r="7" fill="#01B463" fill-opacity="0.12"/>
<path d="M234.454 352.798V348.97C235.081 349.069 235.422 349.465 235.532 350.125L236.687 349.938C236.522 348.816 235.697 348.101 234.454 348.024V347.111H233.805V348.035C232.287 348.178 231.407 349.223 231.407 350.895C231.407 352.545 232.309 353.612 233.805 353.755V354.679H234.454V353.766C235.664 353.678 236.467 352.985 236.676 351.885L235.554 351.654C235.455 352.303 235.092 352.71 234.454 352.798ZM232.606 350.884C232.606 349.817 233.046 349.124 233.805 348.981V352.787C233.024 352.633 232.606 351.962 232.606 350.884Z" fill="#01B463"/>
<path d="M564.386 357H572.594V355.542H566.564C567.788 354.696 568.67 353.976 569.642 353.076C571.568 351.294 572.45 349.764 572.45 348C572.45 345.57 570.992 344.22 568.562 344.22C566.042 344.22 564.53 345.642 564.53 347.856C564.53 348.18 564.566 348.504 564.656 348.864L566.276 349.026C566.186 348.576 566.132 348.198 566.132 347.874C566.132 346.506 567.014 345.624 568.472 345.624C569.912 345.624 570.758 346.488 570.758 348.018C570.758 349.512 570.218 350.556 568.634 352.086C567.032 353.616 565.412 354.912 564.386 355.668V357ZM579.442 344.22C576.598 344.22 574.888 346.128 574.87 350.754C574.888 355.362 576.598 357.27 579.442 357.27C582.286 357.27 583.996 355.362 584.014 350.754C583.996 346.128 582.286 344.22 579.442 344.22ZM579.442 345.57C580.378 345.57 581.152 345.894 581.674 346.794L576.724 353.4C576.544 352.698 576.454 351.816 576.454 350.754C576.472 346.776 577.66 345.57 579.442 345.57ZM579.442 355.92C578.452 355.92 577.642 355.542 577.12 354.534L582.124 347.892C582.322 348.63 582.43 349.566 582.43 350.754C582.412 354.678 581.224 355.92 579.442 355.92ZM590.304 344.22C587.46 344.22 585.75 346.128 585.732 350.754C585.75 355.362 587.46 357.27 590.304 357.27C593.148 357.27 594.858 355.362 594.876 350.754C594.858 346.128 593.148 344.22 590.304 344.22ZM590.304 345.57C591.24 345.57 592.014 345.894 592.536 346.794L587.586 353.4C587.406 352.698 587.316 351.816 587.316 350.754C587.334 346.776 588.522 345.57 590.304 345.57ZM590.304 355.92C589.314 355.92 588.504 355.542 587.982 354.534L592.986 347.892C593.184 348.63 593.292 349.566 593.292 350.754C593.274 354.678 592.086 355.92 590.304 355.92Z" fill="#01B463"/>
<circle cx="606" cy="351" r="7" fill="#01B463" fill-opacity="0.12"/>
<path d="M606.454 352.798V348.97C607.081 349.069 607.422 349.465 607.532 350.125L608.687 349.938C608.522 348.816 607.697 348.101 606.454 348.024V347.111H605.805V348.035C604.287 348.178 603.407 349.223 603.407 350.895C603.407 352.545 604.309 353.612 605.805 353.755V354.679H606.454V353.766C607.664 353.678 608.467 352.985 608.676 351.885L607.554 351.654C607.455 352.303 607.092 352.71 606.454 352.798ZM604.606 350.884C604.606 349.817 605.046 349.124 605.805 348.981V352.787C605.024 352.633 604.606 351.962 604.606 350.884Z" fill="#01B463"/>
<path d="M314.244 53.35C317.478 53.35 319.746 52.062 320.558 49.794L317.674 49.178C317.254 50.494 316.12 51.194 314.356 51.194C312.116 51.194 310.716 49.962 310.716 48.03C310.716 46.084 312.088 44.866 314.328 44.866C316.12 44.866 317.268 45.594 317.646 46.966L320.586 46.448C319.928 44.11 317.59 42.71 314.356 42.71C310.436 42.71 307.734 44.908 307.734 48.072C307.734 51.278 310.254 53.35 314.244 53.35ZM324.868 42.85H322.166V53H324.868V42.85ZM331.843 53.266C335.119 53.266 337.275 51.782 337.275 49.5C337.275 47.218 335.119 45.734 331.843 45.734C328.581 45.734 326.425 47.218 326.425 49.5C326.425 51.782 328.581 53.266 331.843 53.266ZM331.843 51.544C330.275 51.544 329.225 50.746 329.225 49.5C329.225 48.254 330.275 47.456 331.843 47.456C333.425 47.456 334.461 48.254 334.461 49.5C334.461 50.746 333.425 51.544 331.843 51.544ZM341.235 53H344.301L348.375 46H345.421L343.181 50.144C342.999 50.48 342.915 50.662 342.803 50.942H342.733C342.621 50.662 342.537 50.48 342.355 50.144L340.115 46H337.161L341.235 53ZM358.702 49.696C358.702 47.218 356.798 45.734 353.494 45.734C350.344 45.734 348.3 47.134 348.3 49.528C348.3 51.88 350.274 53.266 353.564 53.266C355.818 53.266 357.456 52.608 358.436 51.432L356.364 50.536C355.846 51.18 354.838 51.572 353.676 51.572C352.094 51.572 351.114 51.026 350.904 50.088H358.702V49.696ZM350.89 48.688C351.058 47.778 351.996 47.19 353.48 47.19C354.95 47.19 355.986 47.806 356.014 48.688H350.89ZM362.593 48.072V46H360.227V53H362.929V50.732C362.929 49.906 363.153 49.192 363.671 48.716C364.077 48.31 364.721 48.072 365.589 48.072C365.995 48.072 366.331 48.114 366.709 48.184V45.888C366.415 45.846 366.205 45.818 365.785 45.818C364.161 45.818 362.985 46.7 362.593 48.072ZM372.227 53.266C375.293 53.266 376.721 52.37 376.721 50.774C376.721 49.5 375.895 48.856 373.837 48.688L370.757 48.45C370.057 48.394 369.777 48.24 369.777 47.904C369.777 47.484 370.351 47.302 371.583 47.302C373.389 47.302 374.537 47.596 375.489 48.268L376.567 46.994C375.461 46.14 373.879 45.734 371.821 45.734C368.825 45.734 367.299 46.504 367.299 48.044C367.299 49.332 368.237 50.018 370.267 50.2L373.291 50.452C374.005 50.508 374.229 50.662 374.229 51.012C374.229 51.474 373.725 51.67 372.479 51.67C370.309 51.67 369.007 51.208 368.097 50.382L366.795 51.614C367.929 52.706 369.679 53.266 372.227 53.266ZM383.498 47.932V50.298H397.148V47.932H383.498ZM404.678 53H407.156V46.686C407.156 46.098 407.142 45.468 407.044 44.978H407.114C407.226 45.384 407.408 46 407.646 46.602L410.418 53H413.078L415.934 46.588C416.186 46.028 416.452 45.258 416.536 44.978H416.592C416.494 45.524 416.452 46.168 416.452 46.686V53H419.056V43.06H414.716L412.182 49.052C412.028 49.472 411.888 49.822 411.832 50.144H411.804C411.748 49.822 411.608 49.472 411.468 49.08L408.906 43.06H404.678V53ZM424.459 53.266C426.391 53.266 427.749 52.706 428.295 51.712C428.295 52.132 428.337 52.664 428.393 53H431.095C431.011 52.44 430.969 51.796 430.969 50.816V48.898C430.969 46.812 429.527 45.734 426.251 45.734C423.423 45.734 421.435 46.77 421.155 48.394H424.039C424.193 47.694 424.991 47.288 426.251 47.288C427.483 47.288 428.239 47.694 428.239 48.464V48.632L424.599 48.842C423.143 48.926 422.387 49.136 421.855 49.458C421.267 49.822 420.959 50.382 420.959 51.054C420.959 52.482 422.233 53.266 424.459 53.266ZM425.481 51.754C424.375 51.754 423.759 51.46 423.759 50.886C423.759 50.34 424.193 50.088 425.467 49.99L428.267 49.794V50.032C428.267 51.082 427.133 51.754 425.481 51.754ZM435.505 48.072V46H433.139V53H435.841V50.732C435.841 49.906 436.065 49.192 436.583 48.716C436.989 48.31 437.633 48.072 438.501 48.072C438.907 48.072 439.243 48.114 439.621 48.184V45.888C439.327 45.846 439.117 45.818 438.697 45.818C437.073 45.818 435.897 46.7 435.505 48.072ZM448.309 53H451.389L447.889 48.478L451.249 46H447.693L443.759 48.926V42.85H441.057V53H443.759V51.222L445.831 49.766L448.309 53ZM461.856 49.696C461.856 47.218 459.952 45.734 456.648 45.734C453.498 45.734 451.454 47.134 451.454 49.528C451.454 51.88 453.428 53.266 456.718 53.266C458.972 53.266 460.61 52.608 461.59 51.432L459.518 50.536C459 51.18 457.992 51.572 456.83 51.572C455.248 51.572 454.268 51.026 454.058 50.088H461.856V49.696ZM454.044 48.688C454.212 47.778 455.15 47.19 456.634 47.19C458.104 47.19 459.14 47.806 459.168 48.688H454.044ZM462.098 47.694H464.17V50.242C464.17 52.272 465.472 53.196 467.88 53.196C468.846 53.196 469.588 53.07 470.022 52.874V50.984C469.7 51.068 469.196 51.166 468.58 51.166C467.432 51.166 466.872 50.718 466.872 49.724V47.694H470.022V46H466.872V43.41L464.17 44.362V46H462.098V47.694Z" fill="#01B463"/>
<defs>
<filter id="filter0_d" x="0" y="0" width="796" height="554" filterUnits="userSpaceOnUse" color-interpolation-filters="sRGB">
<feFlood flood-opacity="0" result="BackgroundImageFix"/>
<feColorMatrix in="SourceAlpha" type="matrix" values="0 0 0 0 0 0 0 0 0 0 0 0 0 0 0 0 0 0 127 0"/>
<feOffset dy="4"/>
<feGaussianBlur stdDeviation="2"/>
<feColorMatrix type="matrix" values="0 0 0 0 0.00392157 0 0 0 0 0.705882 0 0 0 0 0.388235 0 0 0 1 0"/>
<feBlend mode="normal" in2="BackgroundImageFix" result="effect1_dropShadow"/>
<feBlend mode="normal" in="SourceGraphic" in2="effect1_dropShadow" result="shape"/>
</filter>
</defs>
</svg>
