<svg width="796" height="554" viewBox="0 0 796 554" fill="none" xmlns="http://www.w3.org/2000/svg">
<g filter="url(#filter0_d)">
<rect x="4" width="788" height="546" rx="8" fill="white"/>
<rect x="4.5" y="0.5" width="787" height="545" rx="7.5" stroke="#01B463"/>
</g>
<circle cx="15" cy="10" r="3.5" stroke="#01B463"/>
<circle cx="28" cy="10" r="3.5" stroke="#01B463"/>
<circle cx="41" cy="10" r="3.5" stroke="#01B463"/>
<line x1="4" y1="18.5" x2="791.001" y2="18.5" stroke="#01B463"/>
<path d="M621.495 46.0707C621.534 45.7973 621.344 45.5441 621.071 45.505C620.797 45.466 620.544 45.6559 620.505 45.9293L621.495 46.0707ZM620 53V53.5H620.434L620.495 53.0707L620 53ZM608.5 53L608.011 53.1048L608.096 53.5H608.5V53ZM607.489 45.8952C607.431 45.6252 607.165 45.4532 606.895 45.5111C606.625 45.569 606.453 45.8347 606.511 46.1048L607.489 45.8952ZM620.505 45.9293L619.505 52.9293L620.495 53.0707L621.495 46.0707L620.505 45.9293ZM620 52.5H608.5V53.5H620V52.5ZM608.989 52.8952L607.489 45.8952L606.511 46.1048L608.011 53.1048L608.989 52.8952Z" fill="#01B463"/>
<path d="M618 46C618 43.7909 616.209 42 614 42C611.791 42 610 43.7909 610 46" stroke="#01B463"/>
<path d="M605 45.5H623" stroke="#01B463"/>
<path d="M642.915 52H643.935V49.888H645.303V49.048H643.935V43.66H642.771L639.123 49.156V49.888H642.915V52ZM640.179 49.048C640.395 48.82 640.491 48.652 640.743 48.268L642.303 45.928C642.663 45.376 642.783 45.16 642.927 44.776H642.939C642.915 45.388 642.915 45.604 642.915 45.988V49.048H640.179Z" fill="#01B463"/>
<circle cx="671" cy="48" r="6.5" stroke="#01B463"/>
<path d="M671.465 50.153V46.325C672.092 46.424 672.433 46.82 672.543 47.48L673.698 47.293C673.533 46.171 672.708 45.456 671.465 45.379V44.466H670.816V45.39C669.298 45.533 668.418 46.578 668.418 48.25C668.418 49.9 669.32 50.967 670.816 51.11V52.034H671.465V51.121C672.675 51.033 673.478 50.34 673.687 49.24L672.565 49.009C672.466 49.658 672.103 50.065 671.465 50.153ZM669.617 48.239C669.617 47.172 670.057 46.479 670.816 46.336V50.142C670.035 49.988 669.617 49.317 669.617 48.239Z" fill="#01B463"/>
<path d="M694.087 52.18C695.863 52.18 696.991 51.148 696.991 49.636C696.991 48.508 696.355 47.74 695.263 47.548C696.127 47.32 696.703 46.588 696.703 45.76C696.703 44.38 695.767 43.48 694.147 43.48C692.443 43.48 691.327 44.488 691.327 46.096L692.335 46.312C692.335 45.1 692.983 44.38 694.087 44.38C695.095 44.38 695.623 44.908 695.623 45.76C695.623 46.576 695.131 47.224 694.051 47.224H693.571V48.112H694.087C695.287 48.112 695.911 48.748 695.911 49.636C695.911 50.68 695.251 51.28 694.123 51.28C692.935 51.28 692.275 50.548 692.227 49.492L691.171 49.624C691.219 51.112 692.299 52.18 694.087 52.18ZM701.915 52H702.935V49.888H704.303V49.048H702.935V43.66H701.771L698.123 49.156V49.888H701.915V52ZM699.179 49.048C699.395 48.82 699.491 48.652 699.743 48.268L701.303 45.928C701.663 45.376 701.783 45.16 701.927 44.776H701.939C701.915 45.388 701.915 45.604 701.915 45.988V49.048H699.179Z" fill="#01B463"/>
<path d="M655 35L655 59" stroke="#01B463"/>
<path d="M715 35L715 59" stroke="#01B463"/>
<path d="M596 35L596 59" stroke="#01B463"/>
<rect x="535.5" y="35.5" width="239" height="24" rx="7.5" stroke="#01B463"/>
<path fill-rule="evenodd" clip-rule="evenodd" d="M549.5 52C551.985 52 554 49.9853 554 47.5C554 45.0147 551.985 43 549.5 43C547.015 43 545 45.0147 545 47.5C545 49.9853 547.015 52 549.5 52Z" fill="#01B463" stroke="#01B463"/>
<path d="M572.177 43.48H569.153V52H570.293V48.52H572.177C573.941 48.52 575.069 47.536 575.069 46C575.069 44.464 573.941 43.48 572.177 43.48ZM572.057 47.56H570.293V44.44H572.057C573.161 44.44 573.869 45.052 573.869 46C573.869 46.948 573.161 47.56 572.057 47.56ZM577.403 52V43.48H576.263V52H577.403ZM582.624 52.204C583.896 52.204 584.868 51.556 585.24 50.632L585.396 52H586.224V47.548H582.708V48.508H585.204V48.652C585.204 49.468 584.892 51.232 582.792 51.232C580.944 51.232 580.056 49.696 580.056 47.752C580.056 45.676 581.04 44.236 582.78 44.236C584.304 44.236 584.82 45.292 584.94 46.012L586.068 45.856C585.924 44.908 585.168 43.276 582.816 43.276C580.296 43.276 578.892 45.136 578.892 47.74C578.892 50.308 580.296 52.204 582.624 52.204Z" fill="#01B463"/>
<path d="M735.808 44.7692C735.808 46.0225 734.792 47.0385 733.538 47.0385C732.285 47.0385 731.269 46.0225 731.269 44.7692C731.269 43.516 732.285 42.5 733.538 42.5C734.792 42.5 735.808 43.516 735.808 44.7692Z" stroke="#01B463"/>
<path d="M739.077 53.9999C739.077 50.9411 736.597 48.4614 733.538 48.4614C730.48 48.4614 728 50.9411 728 53.9999" stroke="#01B463"/>
<path d="M751 45L757.5 51.4615L764 45" stroke="#01B463"/>
<rect x="596.5" y="28" width="185" height="42" fill="white" fill-opacity="0.8"/>
<g opacity="0.1">
<path fill-rule="evenodd" clip-rule="evenodd" d="M655.46 271.156C631.182 271.156 611.502 290.964 611.502 315.398C611.502 339.832 631.182 359.64 655.46 359.64C679.737 359.64 699.418 339.832 699.418 315.398C699.418 290.964 679.737 271.156 655.46 271.156Z" fill="black" stroke="black" stroke-width="0.984615"/>
<path fill-rule="evenodd" clip-rule="evenodd" d="M681.102 337.519C679.079 337.519 677.439 339.17 677.439 341.206C677.439 343.242 679.079 344.893 681.102 344.893C683.125 344.893 684.765 343.242 684.765 341.206C684.765 339.17 683.125 337.519 681.102 337.519Z" fill="#01B463"/>
<path fill-rule="evenodd" clip-rule="evenodd" d="M673.776 330.145C671.753 330.145 670.113 331.796 670.113 333.832C670.113 335.868 671.753 337.519 673.776 337.519C675.799 337.519 677.439 335.868 677.439 333.832C677.439 331.796 675.799 330.145 673.776 330.145Z" fill="#01B463"/>
<path fill-rule="evenodd" clip-rule="evenodd" d="M659.123 308.024C657.1 308.024 655.46 309.675 655.46 311.711C655.46 313.747 657.1 315.398 659.123 315.398C661.146 315.398 662.786 313.747 662.786 311.711C662.786 309.675 661.146 308.024 659.123 308.024Z" fill="white"/>
<path fill-rule="evenodd" clip-rule="evenodd" d="M651.797 315.398C649.774 315.398 648.134 317.049 648.134 319.085C648.134 321.121 649.774 322.772 651.797 322.772C653.82 322.772 655.46 321.121 655.46 319.085C655.46 317.049 653.82 315.398 651.797 315.398Z" fill="white"/>
<path fill-rule="evenodd" clip-rule="evenodd" d="M651.797 300.65C649.774 300.65 648.134 302.301 648.134 304.337C648.134 306.373 649.774 308.024 651.797 308.024C653.82 308.024 655.46 306.373 655.46 304.337C655.46 302.301 653.82 300.65 651.797 300.65Z" fill="white"/>
<path fill-rule="evenodd" clip-rule="evenodd" d="M644.47 308.024C642.447 308.024 640.807 309.675 640.807 311.711C640.807 313.747 642.447 315.398 644.47 315.398C646.493 315.398 648.134 313.747 648.134 311.711C648.134 309.675 646.493 308.024 644.47 308.024Z" fill="white"/>
<g opacity="0.1">
<path fill-rule="evenodd" clip-rule="evenodd" d="M482.354 498.169C506.632 498.169 526.312 478.361 526.312 453.927C526.312 429.493 506.632 409.685 482.354 409.685C458.077 409.685 438.396 429.493 438.396 453.927C438.396 478.361 458.077 498.169 482.354 498.169Z" fill="black" stroke="black" stroke-width="0.984615"/>
<path fill-rule="evenodd" clip-rule="evenodd" d="M471.365 431.805C473.388 431.805 475.028 430.155 475.028 428.118C475.028 426.082 473.388 424.432 471.365 424.432C469.342 424.432 467.702 426.082 467.702 428.118C467.702 430.155 469.342 431.805 471.365 431.805Z" fill="white"/>
<path fill-rule="evenodd" clip-rule="evenodd" d="M471.365 446.553C473.388 446.553 475.028 444.903 475.028 442.867C475.028 440.83 473.388 439.18 471.365 439.18C469.342 439.18 467.702 440.83 467.702 442.867C467.702 444.903 469.342 446.553 471.365 446.553Z" fill="white"/>
<path fill-rule="evenodd" clip-rule="evenodd" d="M471.365 461.301C473.388 461.301 475.028 459.65 475.028 457.614C475.028 455.578 473.388 453.927 471.365 453.927C469.342 453.927 467.702 455.578 467.702 457.614C467.702 459.65 469.342 461.301 471.365 461.301Z" fill="white"/>
<path fill-rule="evenodd" clip-rule="evenodd" d="M471.365 476.048C473.388 476.048 475.028 474.397 475.028 472.361C475.028 470.325 473.388 468.674 471.365 468.674C469.342 468.674 467.702 470.325 467.702 472.361C467.702 474.397 469.342 476.048 471.365 476.048Z" fill="white"/>
<path fill-rule="evenodd" clip-rule="evenodd" d="M478.691 431.805C480.714 431.805 482.354 430.155 482.354 428.118C482.354 426.082 480.714 424.432 478.691 424.432C476.668 424.432 475.028 426.082 475.028 428.118C475.028 430.155 476.668 431.805 478.691 431.805Z" fill="white"/>
<path fill-rule="evenodd" clip-rule="evenodd" d="M478.691 439.179C480.714 439.179 482.354 437.529 482.354 435.492C482.354 433.456 480.714 431.806 478.691 431.806C476.668 431.806 475.028 433.456 475.028 435.492C475.028 437.529 476.668 439.179 478.691 439.179Z" fill="white"/>
<path fill-rule="evenodd" clip-rule="evenodd" d="M478.691 476.048C480.714 476.048 482.354 474.397 482.354 472.361C482.354 470.325 480.714 468.674 478.691 468.674C476.668 468.674 475.028 470.325 475.028 472.361C475.028 474.397 476.668 476.048 478.691 476.048Z" fill="white"/>
<path fill-rule="evenodd" clip-rule="evenodd" d="M486.017 431.805C488.041 431.805 489.681 430.155 489.681 428.118C489.681 426.082 488.041 424.432 486.017 424.432C483.994 424.432 482.354 426.082 482.354 428.118C482.354 430.155 483.994 431.805 486.017 431.805Z" fill="white"/>
<path fill-rule="evenodd" clip-rule="evenodd" d="M486.017 446.553C488.041 446.553 489.681 444.903 489.681 442.867C489.681 440.83 488.041 439.18 486.017 439.18C483.994 439.18 482.354 440.83 482.354 442.867C482.354 444.903 483.994 446.553 486.017 446.553Z" fill="white"/>
<path fill-rule="evenodd" clip-rule="evenodd" d="M493.344 431.805C495.367 431.805 497.007 430.155 497.007 428.118C497.007 426.082 495.367 424.432 493.344 424.432C491.321 424.432 489.681 426.082 489.681 428.118C489.681 430.155 491.321 431.805 493.344 431.805Z" fill="white"/>
<path fill-rule="evenodd" clip-rule="evenodd" d="M493.344 439.179C495.367 439.179 497.007 437.529 497.007 435.492C497.007 433.456 495.367 431.806 493.344 431.806C491.321 431.806 489.681 433.456 489.681 435.492C489.681 437.529 491.321 439.179 493.344 439.179Z" fill="white"/>
<path fill-rule="evenodd" clip-rule="evenodd" d="M500.67 431.805C502.693 431.805 504.333 430.155 504.333 428.118C504.333 426.082 502.693 424.432 500.67 424.432C498.647 424.432 497.007 426.082 497.007 428.118C497.007 430.155 498.647 431.805 500.67 431.805Z" fill="white"/>
<path fill-rule="evenodd" clip-rule="evenodd" d="M500.67 439.179C502.693 439.179 504.333 437.529 504.333 435.492C504.333 433.456 502.693 431.806 500.67 431.806C498.647 431.806 497.007 433.456 497.007 435.492C497.007 437.529 498.647 439.179 500.67 439.179Z" fill="white"/>
<path fill-rule="evenodd" clip-rule="evenodd" d="M500.67 446.553C502.693 446.553 504.333 444.903 504.333 442.867C504.333 440.83 502.693 439.18 500.67 439.18C498.647 439.18 497.007 440.83 497.007 442.867C497.007 444.903 498.647 446.553 500.67 446.553Z" fill="white"/>
<path fill-rule="evenodd" clip-rule="evenodd" d="M507.996 431.805C510.02 431.805 511.66 430.155 511.66 428.118C511.66 426.082 510.02 424.432 507.996 424.432C505.973 424.432 504.333 426.082 504.333 428.118C504.333 430.155 505.973 431.805 507.996 431.805Z" fill="white"/>
<path fill-rule="evenodd" clip-rule="evenodd" d="M507.996 439.179C510.02 439.179 511.66 437.529 511.66 435.492C511.66 433.456 510.02 431.806 507.996 431.806C505.973 431.806 504.333 433.456 504.333 435.492C504.333 437.529 505.973 439.179 507.996 439.179Z" fill="white"/>
<path fill-rule="evenodd" clip-rule="evenodd" d="M507.996 446.553C510.02 446.553 511.66 444.903 511.66 442.867C511.66 440.83 510.02 439.18 507.996 439.18C505.973 439.18 504.333 440.83 504.333 442.867C504.333 444.903 505.973 446.553 507.996 446.553Z" fill="white"/>
<path fill-rule="evenodd" clip-rule="evenodd" d="M507.996 453.927C510.02 453.927 511.66 452.276 511.66 450.24C511.66 448.204 510.02 446.553 507.996 446.553C505.973 446.553 504.333 448.204 504.333 450.24C504.333 452.276 505.973 453.927 507.996 453.927Z" fill="#01B463"/>
<path fill-rule="evenodd" clip-rule="evenodd" d="M507.996 461.301C510.02 461.301 511.66 459.65 511.66 457.614C511.66 455.578 510.02 453.927 507.996 453.927C505.973 453.927 504.333 455.578 504.333 457.614C504.333 459.65 505.973 461.301 507.996 461.301Z" fill="white"/>
<path fill-rule="evenodd" clip-rule="evenodd" d="M507.996 468.674C510.02 468.674 511.66 467.023 511.66 464.987C511.66 462.951 510.02 461.3 507.996 461.3C505.973 461.3 504.333 462.951 504.333 464.987C504.333 467.023 505.973 468.674 507.996 468.674Z" fill="white"/>
<path fill-rule="evenodd" clip-rule="evenodd" d="M507.996 476.048C510.02 476.048 511.66 474.397 511.66 472.361C511.66 470.325 510.02 468.674 507.996 468.674C505.973 468.674 504.333 470.325 504.333 472.361C504.333 474.397 505.973 476.048 507.996 476.048Z" fill="white"/>
<path fill-rule="evenodd" clip-rule="evenodd" d="M507.996 483.421C510.02 483.421 511.66 481.77 511.66 479.734C511.66 477.698 510.02 476.047 507.996 476.047C505.973 476.047 504.333 477.698 504.333 479.734C504.333 481.77 505.973 483.421 507.996 483.421Z" fill="white"/>
</g>
<path fill-rule="evenodd" clip-rule="evenodd" d="M656.042 219.484C680.319 219.484 700 199.676 700 175.242C700 150.808 680.319 131 656.042 131C631.764 131 612.084 150.808 612.084 175.242C612.084 199.676 631.764 219.484 656.042 219.484Z" fill="black" stroke="black" stroke-width="0.984615"/>
<path fill-rule="evenodd" clip-rule="evenodd" d="M637.726 160.494C639.749 160.494 641.389 158.843 641.389 156.807C641.389 154.771 639.749 153.12 637.726 153.12C635.703 153.12 634.063 154.771 634.063 156.807C634.063 158.843 635.703 160.494 637.726 160.494Z" fill="white"/>
<path fill-rule="evenodd" clip-rule="evenodd" d="M637.726 182.615C639.749 182.615 641.389 180.964 641.389 178.928C641.389 176.892 639.749 175.241 637.726 175.241C635.703 175.241 634.063 176.892 634.063 178.928C634.063 180.964 635.703 182.615 637.726 182.615Z" fill="white"/>
<path fill-rule="evenodd" clip-rule="evenodd" d="M637.726 189.989C639.749 189.989 641.389 188.338 641.389 186.302C641.389 184.266 639.749 182.615 637.726 182.615C635.703 182.615 634.063 184.266 634.063 186.302C634.063 188.338 635.703 189.989 637.726 189.989Z" fill="white"/>
<path fill-rule="evenodd" clip-rule="evenodd" d="M645.052 160.494C647.075 160.494 648.716 158.843 648.716 156.807C648.716 154.771 647.075 153.12 645.052 153.12C643.029 153.12 641.389 154.771 641.389 156.807C641.389 158.843 643.029 160.494 645.052 160.494Z" fill="white"/>
<path fill-rule="evenodd" clip-rule="evenodd" d="M645.052 197.362C647.075 197.362 648.716 195.712 648.716 193.676C648.716 191.639 647.075 189.989 645.052 189.989C643.029 189.989 641.389 191.639 641.389 193.676C641.389 195.712 643.029 197.362 645.052 197.362Z" fill="white"/>
<path fill-rule="evenodd" clip-rule="evenodd" d="M652.379 167.868C654.402 167.868 656.042 166.217 656.042 164.181C656.042 162.145 654.402 160.494 652.379 160.494C650.356 160.494 648.715 162.145 648.715 164.181C648.715 166.217 650.356 167.868 652.379 167.868Z" fill="white"/>
<path fill-rule="evenodd" clip-rule="evenodd" d="M652.379 197.362C654.402 197.362 656.042 195.712 656.042 193.676C656.042 191.639 654.402 189.989 652.379 189.989C650.356 189.989 648.715 191.639 648.715 193.676C648.715 195.712 650.356 197.362 652.379 197.362Z" fill="white"/>
<path fill-rule="evenodd" clip-rule="evenodd" d="M659.705 160.494C661.728 160.494 663.368 158.843 663.368 156.807C663.368 154.771 661.728 153.12 659.705 153.12C657.682 153.12 656.042 154.771 656.042 156.807C656.042 158.843 657.682 160.494 659.705 160.494Z" fill="white"/>
<path fill-rule="evenodd" clip-rule="evenodd" d="M659.705 182.615C661.728 182.615 663.368 180.964 663.368 178.928C663.368 176.892 661.728 175.241 659.705 175.241C657.682 175.241 656.042 176.892 656.042 178.928C656.042 180.964 657.682 182.615 659.705 182.615Z" fill="white"/>
<path fill-rule="evenodd" clip-rule="evenodd" d="M667.031 160.494C669.054 160.494 670.695 158.843 670.695 156.807C670.695 154.771 669.054 153.12 667.031 153.12C665.008 153.12 663.368 154.771 663.368 156.807C663.368 158.843 665.008 160.494 667.031 160.494Z" fill="white"/>
<path fill-rule="evenodd" clip-rule="evenodd" d="M667.031 182.615C669.054 182.615 670.695 180.964 670.695 178.928C670.695 176.892 669.054 175.241 667.031 175.241C665.008 175.241 663.368 176.892 663.368 178.928C663.368 180.964 665.008 182.615 667.031 182.615Z" fill="white"/>
<path fill-rule="evenodd" clip-rule="evenodd" d="M674.358 167.868C676.381 167.868 678.021 166.217 678.021 164.181C678.021 162.145 676.381 160.494 674.358 160.494C672.335 160.494 670.695 162.145 670.695 164.181C670.695 166.217 672.335 167.868 674.358 167.868Z" fill="white"/>
<path fill-rule="evenodd" clip-rule="evenodd" d="M674.358 189.989C676.381 189.989 678.021 188.338 678.021 186.302C678.021 184.266 676.381 182.615 674.358 182.615C672.335 182.615 670.695 184.266 670.695 186.302C670.695 188.338 672.335 189.989 674.358 189.989Z" fill="white"/>
<path fill-rule="evenodd" clip-rule="evenodd" d="M674.358 197.362C676.381 197.362 678.021 195.712 678.021 193.676C678.021 191.639 676.381 189.989 674.358 189.989C672.335 189.989 670.695 191.639 670.695 193.676C670.695 195.712 672.335 197.362 674.358 197.362Z" fill="white"/>
<g opacity="0.1">
<path fill-rule="evenodd" clip-rule="evenodd" d="M139.885 498.169C164.163 498.169 183.844 478.361 183.844 453.927C183.844 429.493 164.163 409.685 139.885 409.685C115.608 409.685 95.9272 429.493 95.9272 453.927C95.9272 478.361 115.608 498.169 139.885 498.169Z" fill="black" stroke="black" stroke-width="0.984615"/>
<path fill-rule="evenodd" clip-rule="evenodd" d="M121.57 446.553C123.593 446.553 125.233 444.903 125.233 442.867C125.233 440.83 123.593 439.18 121.57 439.18C119.546 439.18 117.906 440.83 117.906 442.867C117.906 444.903 119.546 446.553 121.57 446.553Z" fill="white"/>
<path fill-rule="evenodd" clip-rule="evenodd" d="M121.57 453.927C123.593 453.927 125.233 452.276 125.233 450.24C125.233 448.204 123.593 446.553 121.57 446.553C119.546 446.553 117.906 448.204 117.906 450.24C117.906 452.276 119.546 453.927 121.57 453.927Z" fill="white"/>
<path fill-rule="evenodd" clip-rule="evenodd" d="M128.896 439.179C130.919 439.179 132.559 437.529 132.559 435.492C132.559 433.456 130.919 431.806 128.896 431.806C126.873 431.806 125.233 433.456 125.233 435.492C125.233 437.529 126.873 439.179 128.896 439.179Z" fill="white"/>
<path fill-rule="evenodd" clip-rule="evenodd" d="M136.222 439.179C138.245 439.179 139.885 437.529 139.885 435.492C139.885 433.456 138.245 431.806 136.222 431.806C134.199 431.806 132.559 433.456 132.559 435.492C132.559 437.529 134.199 439.179 136.222 439.179Z" fill="white"/>
<path fill-rule="evenodd" clip-rule="evenodd" d="M136.222 461.301C138.245 461.301 139.885 459.65 139.885 457.614C139.885 455.578 138.245 453.927 136.222 453.927C134.199 453.927 132.559 455.578 132.559 457.614C132.559 459.65 134.199 461.301 136.222 461.301Z" fill="white"/>
<path fill-rule="evenodd" clip-rule="evenodd" d="M136.222 468.674C138.245 468.674 139.885 467.023 139.885 464.987C139.885 462.951 138.245 461.3 136.222 461.3C134.199 461.3 132.559 462.951 132.559 464.987C132.559 467.023 134.199 468.674 136.222 468.674Z" fill="white"/>
<path fill-rule="evenodd" clip-rule="evenodd" d="M143.549 446.553C145.572 446.553 147.212 444.903 147.212 442.867C147.212 440.83 145.572 439.18 143.549 439.18C141.526 439.18 139.885 440.83 139.885 442.867C139.885 444.903 141.526 446.553 143.549 446.553Z" fill="white"/>
<path fill-rule="evenodd" clip-rule="evenodd" d="M143.549 453.927C145.572 453.927 147.212 452.276 147.212 450.24C147.212 448.204 145.572 446.553 143.549 446.553C141.526 446.553 139.885 448.204 139.885 450.24C139.885 452.276 141.526 453.927 143.549 453.927Z" fill="white"/>
<path fill-rule="evenodd" clip-rule="evenodd" d="M143.549 476.048C145.572 476.048 147.212 474.397 147.212 472.361C147.212 470.325 145.572 468.674 143.549 468.674C141.526 468.674 139.885 470.325 139.885 472.361C139.885 474.397 141.526 476.048 143.549 476.048Z" fill="white"/>
<path fill-rule="evenodd" clip-rule="evenodd" d="M150.875 476.048C152.898 476.048 154.538 474.397 154.538 472.361C154.538 470.325 152.898 468.674 150.875 468.674C148.852 468.674 147.212 470.325 147.212 472.361C147.212 474.397 148.852 476.048 150.875 476.048Z" fill="white"/>
<path fill-rule="evenodd" clip-rule="evenodd" d="M158.201 461.301C160.224 461.301 161.865 459.65 161.865 457.614C161.865 455.578 160.224 453.927 158.201 453.927C156.178 453.927 154.538 455.578 154.538 457.614C154.538 459.65 156.178 461.301 158.201 461.301Z" fill="white"/>
<path fill-rule="evenodd" clip-rule="evenodd" d="M158.201 468.674C160.224 468.674 161.865 467.023 161.865 464.987C161.865 462.951 160.224 461.3 158.201 461.3C156.178 461.3 154.538 462.951 154.538 464.987C154.538 467.023 156.178 468.674 158.201 468.674Z" fill="white"/>
</g>
<g opacity="0.1">
<path fill-rule="evenodd" clip-rule="evenodd" d="M311.61 498.169C335.888 498.169 355.569 478.361 355.569 453.927C355.569 429.493 335.888 409.685 311.61 409.685C287.333 409.685 267.652 429.493 267.652 453.927C267.652 478.361 287.333 498.169 311.61 498.169Z" fill="white" stroke="black" stroke-width="0.984615"/>
<path fill-rule="evenodd" clip-rule="evenodd" d="M300.621 461.301C302.644 461.301 304.284 459.65 304.284 457.614C304.284 455.578 302.644 453.927 300.621 453.927C298.598 453.927 296.958 455.578 296.958 457.614C296.958 459.65 298.598 461.301 300.621 461.301Z" fill="black"/>
<path fill-rule="evenodd" clip-rule="evenodd" d="M329.926 476.048C331.95 476.048 333.59 474.397 333.59 472.361C333.59 470.325 331.95 468.674 329.926 468.674C327.903 468.674 326.263 470.325 326.263 472.361C326.263 474.397 327.903 476.048 329.926 476.048Z" fill="#01B463"/>
</g>
<g opacity="0.1">
<path fill-rule="evenodd" clip-rule="evenodd" d="M654.079 498.169C678.357 498.169 698.037 478.361 698.037 453.927C698.037 429.493 678.357 409.685 654.079 409.685C629.802 409.685 610.121 429.493 610.121 453.927C610.121 478.361 629.802 498.169 654.079 498.169Z" fill="white" stroke="black" stroke-width="0.984615"/>
<path fill-rule="evenodd" clip-rule="evenodd" d="M635.763 453.927C637.787 453.927 639.427 452.276 639.427 450.24C639.427 448.204 637.787 446.553 635.763 446.553C633.74 446.553 632.1 448.204 632.1 450.24C632.1 452.276 633.74 453.927 635.763 453.927Z" fill="black"/>
<path fill-rule="evenodd" clip-rule="evenodd" d="M635.763 461.301C637.787 461.301 639.427 459.65 639.427 457.614C639.427 455.578 637.787 453.927 635.763 453.927C633.74 453.927 632.1 455.578 632.1 457.614C632.1 459.65 633.74 461.301 635.763 461.301Z" fill="black"/>
<path fill-rule="evenodd" clip-rule="evenodd" d="M635.763 468.674C637.787 468.674 639.427 467.023 639.427 464.987C639.427 462.951 637.787 461.3 635.763 461.3C633.74 461.3 632.1 462.951 632.1 464.987C632.1 467.023 633.74 468.674 635.763 468.674Z" fill="black"/>
<path fill-rule="evenodd" clip-rule="evenodd" d="M643.09 446.553C645.113 446.553 646.753 444.903 646.753 442.867C646.753 440.83 645.113 439.18 643.09 439.18C641.067 439.18 639.427 440.83 639.427 442.867C639.427 444.903 641.067 446.553 643.09 446.553Z" fill="black"/>
<path fill-rule="evenodd" clip-rule="evenodd" d="M643.09 461.301C645.113 461.301 646.753 459.65 646.753 457.614C646.753 455.578 645.113 453.927 643.09 453.927C641.067 453.927 639.427 455.578 639.427 457.614C639.427 459.65 641.067 461.301 643.09 461.301Z" fill="black"/>
<path fill-rule="evenodd" clip-rule="evenodd" d="M643.09 476.048C645.113 476.048 646.753 474.397 646.753 472.361C646.753 470.325 645.113 468.674 643.09 468.674C641.067 468.674 639.427 470.325 639.427 472.361C639.427 474.397 641.067 476.048 643.09 476.048Z" fill="black"/>
<path fill-rule="evenodd" clip-rule="evenodd" d="M650.416 446.553C652.439 446.553 654.079 444.903 654.079 442.867C654.079 440.83 652.439 439.18 650.416 439.18C648.393 439.18 646.753 440.83 646.753 442.867C646.753 444.903 648.393 446.553 650.416 446.553Z" fill="black"/>
<path fill-rule="evenodd" clip-rule="evenodd" d="M650.416 453.927C652.439 453.927 654.079 452.276 654.079 450.24C654.079 448.204 652.439 446.553 650.416 446.553C648.393 446.553 646.753 448.204 646.753 450.24C646.753 452.276 648.393 453.927 650.416 453.927Z" fill="black"/>
<path fill-rule="evenodd" clip-rule="evenodd" d="M650.416 468.674C652.439 468.674 654.079 467.023 654.079 464.987C654.079 462.951 652.439 461.3 650.416 461.3C648.393 461.3 646.753 462.951 646.753 464.987C646.753 467.023 648.393 468.674 650.416 468.674Z" fill="black"/>
<path fill-rule="evenodd" clip-rule="evenodd" d="M650.416 476.048C652.439 476.048 654.079 474.397 654.079 472.361C654.079 470.325 652.439 468.674 650.416 468.674C648.393 468.674 646.753 470.325 646.753 472.361C646.753 474.397 648.393 476.048 650.416 476.048Z" fill="black"/>
<path fill-rule="evenodd" clip-rule="evenodd" d="M657.742 446.553C659.766 446.553 661.406 444.903 661.406 442.867C661.406 440.83 659.766 439.18 657.742 439.18C655.719 439.18 654.079 440.83 654.079 442.867C654.079 444.903 655.719 446.553 657.742 446.553Z" fill="black"/>
<path fill-rule="evenodd" clip-rule="evenodd" d="M657.742 461.301C659.766 461.301 661.406 459.65 661.406 457.614C661.406 455.578 659.766 453.927 657.742 453.927C655.719 453.927 654.079 455.578 654.079 457.614C654.079 459.65 655.719 461.301 657.742 461.301Z" fill="black"/>
<path fill-rule="evenodd" clip-rule="evenodd" d="M657.742 476.048C659.766 476.048 661.406 474.397 661.406 472.361C661.406 470.325 659.766 468.674 657.742 468.674C655.719 468.674 654.079 470.325 654.079 472.361C654.079 474.397 655.719 476.048 657.742 476.048Z" fill="black"/>
<path fill-rule="evenodd" clip-rule="evenodd" d="M665.069 453.927C667.092 453.927 668.732 452.276 668.732 450.24C668.732 448.204 667.092 446.553 665.069 446.553C663.046 446.553 661.406 448.204 661.406 450.24C661.406 452.276 663.046 453.927 665.069 453.927Z" fill="black"/>
<path fill-rule="evenodd" clip-rule="evenodd" d="M665.069 461.301C667.092 461.301 668.732 459.65 668.732 457.614C668.732 455.578 667.092 453.927 665.069 453.927C663.046 453.927 661.406 455.578 661.406 457.614C661.406 459.65 663.046 461.301 665.069 461.301Z" fill="black"/>
<path fill-rule="evenodd" clip-rule="evenodd" d="M665.069 468.674C667.092 468.674 668.732 467.023 668.732 464.987C668.732 462.951 667.092 461.3 665.069 461.3C663.046 461.3 661.406 462.951 661.406 464.987C661.406 467.023 663.046 468.674 665.069 468.674Z" fill="black"/>
<path fill-rule="evenodd" clip-rule="evenodd" d="M679.722 431.805C681.745 431.805 683.385 430.155 683.385 428.118C683.385 426.082 681.745 424.432 679.722 424.432C677.698 424.432 676.058 426.082 676.058 428.118C676.058 430.155 677.698 431.805 679.722 431.805Z" fill="#01B463"/>
</g>
<path fill-rule="evenodd" clip-rule="evenodd" d="M311.905 219.505C336.345 219.505 356.158 199.693 356.158 175.253C356.158 150.813 336.345 131 311.905 131C287.465 131 267.652 150.813 267.652 175.253C267.652 199.693 287.465 219.505 311.905 219.505Z" fill="white" stroke="black" stroke-width="0.984615"/>
<path fill-rule="evenodd" clip-rule="evenodd" d="M293.466 167.877C295.503 167.877 297.154 166.226 297.154 164.189C297.154 162.153 295.503 160.501 293.466 160.501C291.43 160.501 289.779 162.153 289.779 164.189C289.779 166.226 291.43 167.877 293.466 167.877Z" fill="black"/>
<path fill-rule="evenodd" clip-rule="evenodd" d="M308.217 167.877C310.254 167.877 311.905 166.226 311.905 164.189C311.905 162.153 310.254 160.501 308.217 160.501C306.181 160.501 304.529 162.153 304.529 164.189C304.529 166.226 306.181 167.877 308.217 167.877Z" fill="black"/>
<path fill-rule="evenodd" clip-rule="evenodd" d="M308.217 175.252C310.254 175.252 311.905 173.601 311.905 171.564C311.905 169.528 310.254 167.876 308.217 167.876C306.181 167.876 304.529 169.528 304.529 171.564C304.529 173.601 306.181 175.252 308.217 175.252Z" fill="black"/>
<path fill-rule="evenodd" clip-rule="evenodd" d="M308.217 182.628C310.254 182.628 311.905 180.977 311.905 178.94C311.905 176.903 310.254 175.252 308.217 175.252C306.181 175.252 304.529 176.903 304.529 178.94C304.529 180.977 306.181 182.628 308.217 182.628Z" fill="black"/>
<path fill-rule="evenodd" clip-rule="evenodd" d="M308.217 190.003C310.254 190.003 311.905 188.352 311.905 186.315C311.905 184.278 310.254 182.627 308.217 182.627C306.181 182.627 304.529 184.278 304.529 186.315C304.529 188.352 306.181 190.003 308.217 190.003Z" fill="black"/>
<path fill-rule="evenodd" clip-rule="evenodd" d="M308.217 197.379C310.254 197.379 311.905 195.728 311.905 193.691C311.905 191.654 310.254 190.003 308.217 190.003C306.181 190.003 304.529 191.654 304.529 193.691C304.529 195.728 306.181 197.379 308.217 197.379Z" fill="black"/>
<path fill-rule="evenodd" clip-rule="evenodd" d="M315.593 197.379C317.629 197.379 319.28 195.728 319.28 193.691C319.28 191.654 317.629 190.003 315.593 190.003C313.556 190.003 311.905 191.654 311.905 193.691C311.905 195.728 313.556 197.379 315.593 197.379Z" fill="black"/>
<path fill-rule="evenodd" clip-rule="evenodd" d="M322.968 197.379C325.005 197.379 326.656 195.728 326.656 193.691C326.656 191.654 325.005 190.003 322.968 190.003C320.931 190.003 319.28 191.654 319.28 193.691C319.28 195.728 320.931 197.379 322.968 197.379Z" fill="black"/>
<path fill-rule="evenodd" clip-rule="evenodd" d="M330.343 167.877C332.38 167.877 334.031 166.226 334.031 164.189C334.031 162.153 332.38 160.501 330.343 160.501C328.307 160.501 326.656 162.153 326.656 164.189C326.656 166.226 328.307 167.877 330.343 167.877Z" fill="black"/>
<path fill-rule="evenodd" clip-rule="evenodd" d="M330.343 175.252C332.38 175.252 334.031 173.601 334.031 171.564C334.031 169.528 332.38 167.876 330.343 167.876C328.307 167.876 326.656 169.528 326.656 171.564C326.656 173.601 328.307 175.252 330.343 175.252Z" fill="black"/>
<path fill-rule="evenodd" clip-rule="evenodd" d="M330.343 182.628C332.38 182.628 334.031 180.977 334.031 178.94C334.031 176.903 332.38 175.252 330.343 175.252C328.307 175.252 326.656 176.903 326.656 178.94C326.656 180.977 328.307 182.628 330.343 182.628Z" fill="black"/>
<path fill-rule="evenodd" clip-rule="evenodd" d="M330.343 190.003C332.38 190.003 334.031 188.352 334.031 186.315C334.031 184.278 332.38 182.627 330.343 182.627C328.307 182.627 326.656 184.278 326.656 186.315C326.656 188.352 328.307 190.003 330.343 190.003Z" fill="black"/>
<path fill-rule="evenodd" clip-rule="evenodd" d="M483.63 219.505C508.07 219.505 527.883 199.693 527.883 175.253C527.883 150.813 508.07 131 483.63 131C459.19 131 439.377 150.813 439.377 175.253C439.377 199.693 459.19 219.505 483.63 219.505Z" fill="black" stroke="black" stroke-width="0.984615"/>
<path fill-rule="evenodd" clip-rule="evenodd" d="M457.816 190.003C459.853 190.003 461.504 188.352 461.504 186.315C461.504 184.278 459.853 182.627 457.816 182.627C455.779 182.627 454.128 184.278 454.128 186.315C454.128 188.352 455.779 190.003 457.816 190.003Z" fill="white"/>
<path fill-rule="evenodd" clip-rule="evenodd" d="M457.816 197.379C459.853 197.379 461.504 195.728 461.504 193.691C461.504 191.654 459.853 190.003 457.816 190.003C455.779 190.003 454.128 191.654 454.128 193.691C454.128 195.728 455.779 197.379 457.816 197.379Z" fill="white"/>
<path fill-rule="evenodd" clip-rule="evenodd" d="M457.816 204.753C459.853 204.753 461.504 203.102 461.504 201.066C461.504 199.029 459.853 197.378 457.816 197.378C455.779 197.378 454.128 199.029 454.128 201.066C454.128 203.102 455.779 204.753 457.816 204.753Z" fill="white"/>
<path fill-rule="evenodd" clip-rule="evenodd" d="M465.191 197.379C467.228 197.379 468.879 195.728 468.879 193.691C468.879 191.654 467.228 190.003 465.191 190.003C463.155 190.003 461.504 191.654 461.504 193.691C461.504 195.728 463.155 197.379 465.191 197.379Z" fill="white"/>
<path fill-rule="evenodd" clip-rule="evenodd" d="M465.191 204.753C467.228 204.753 468.879 203.102 468.879 201.066C468.879 199.029 467.228 197.378 465.191 197.378C463.155 197.378 461.504 199.029 461.504 201.066C461.504 203.102 463.155 204.753 465.191 204.753Z" fill="white"/>
<path fill-rule="evenodd" clip-rule="evenodd" d="M472.567 190.003C474.603 190.003 476.254 188.352 476.254 186.315C476.254 184.278 474.603 182.627 472.567 182.627C470.53 182.627 468.879 184.278 468.879 186.315C468.879 188.352 470.53 190.003 472.567 190.003Z" fill="white"/>
<path fill-rule="evenodd" clip-rule="evenodd" d="M472.567 204.753C474.603 204.753 476.254 203.102 476.254 201.066C476.254 199.029 474.603 197.378 472.567 197.378C470.53 197.378 468.879 199.029 468.879 201.066C468.879 203.102 470.53 204.753 472.567 204.753Z" fill="white"/>
<path fill-rule="evenodd" clip-rule="evenodd" d="M479.942 167.877C481.979 167.877 483.63 166.226 483.63 164.189C483.63 162.153 481.979 160.501 479.942 160.501C477.906 160.501 476.255 162.153 476.255 164.189C476.255 166.226 477.906 167.877 479.942 167.877Z" fill="white"/>
<path fill-rule="evenodd" clip-rule="evenodd" d="M479.942 182.628C481.979 182.628 483.63 180.977 483.63 178.94C483.63 176.903 481.979 175.252 479.942 175.252C477.906 175.252 476.255 176.903 476.255 178.94C476.255 180.977 477.906 182.628 479.942 182.628Z" fill="white"/>
<path fill-rule="evenodd" clip-rule="evenodd" d="M494.693 167.877C496.73 167.877 498.381 166.226 498.381 164.189C498.381 162.153 496.73 160.501 494.693 160.501C492.656 160.501 491.005 162.153 491.005 164.189C491.005 166.226 492.656 167.877 494.693 167.877Z" fill="white"/>
<path fill-rule="evenodd" clip-rule="evenodd" d="M494.693 182.628C496.73 182.628 498.381 180.977 498.381 178.94C498.381 176.903 496.73 175.252 494.693 175.252C492.656 175.252 491.005 176.903 491.005 178.94C491.005 180.977 492.656 182.628 494.693 182.628Z" fill="white"/>
<path fill-rule="evenodd" clip-rule="evenodd" d="M140.18 359.829C164.62 359.829 184.432 340.016 184.432 315.576C184.432 291.136 164.62 271.324 140.18 271.324C115.74 271.324 95.9272 291.136 95.9272 315.576C95.9272 340.016 115.74 359.829 140.18 359.829Z" fill="black" stroke="black" stroke-width="0.984615"/>
<path fill-rule="evenodd" clip-rule="evenodd" d="M114.366 322.952C116.402 322.952 118.054 321.301 118.054 319.264C118.054 317.228 116.402 315.577 114.366 315.577C112.329 315.577 110.678 317.228 110.678 319.264C110.678 321.301 112.329 322.952 114.366 322.952Z" fill="white"/>
<path fill-rule="evenodd" clip-rule="evenodd" d="M114.366 330.327C116.402 330.327 118.054 328.676 118.054 326.639C118.054 324.603 116.402 322.952 114.366 322.952C112.329 322.952 110.678 324.603 110.678 326.639C110.678 328.676 112.329 330.327 114.366 330.327Z" fill="white"/>
<path fill-rule="evenodd" clip-rule="evenodd" d="M114.366 337.703C116.402 337.703 118.054 336.052 118.054 334.015C118.054 331.978 116.402 330.327 114.366 330.327C112.329 330.327 110.678 331.978 110.678 334.015C110.678 336.052 112.329 337.703 114.366 337.703Z" fill="white"/>
<path fill-rule="evenodd" clip-rule="evenodd" d="M114.366 345.078C116.402 345.078 118.054 343.427 118.054 341.39C118.054 339.354 116.402 337.703 114.366 337.703C112.329 337.703 110.678 339.354 110.678 341.39C110.678 343.427 112.329 345.078 114.366 345.078Z" fill="white"/>
<path fill-rule="evenodd" clip-rule="evenodd" d="M121.741 315.576C123.778 315.576 125.429 313.925 125.429 311.888C125.429 309.852 123.778 308.201 121.741 308.201C119.705 308.201 118.054 309.852 118.054 311.888C118.054 313.925 119.705 315.576 121.741 315.576Z" fill="white"/>
<path fill-rule="evenodd" clip-rule="evenodd" d="M121.741 322.952C123.778 322.952 125.429 321.301 125.429 319.264C125.429 317.228 123.778 315.577 121.741 315.577C119.705 315.577 118.054 317.228 118.054 319.264C118.054 321.301 119.705 322.952 121.741 322.952Z" fill="white"/>
<path fill-rule="evenodd" clip-rule="evenodd" d="M121.741 345.078C123.778 345.078 125.429 343.427 125.429 341.39C125.429 339.354 123.778 337.703 121.741 337.703C119.705 337.703 118.054 339.354 118.054 341.39C118.054 343.427 119.705 345.078 121.741 345.078Z" fill="white"/>
<path fill-rule="evenodd" clip-rule="evenodd" d="M129.117 308.201C131.153 308.201 132.804 306.55 132.804 304.513C132.804 302.476 131.153 300.825 129.117 300.825C127.08 300.825 125.429 302.476 125.429 304.513C125.429 306.55 127.08 308.201 129.117 308.201Z" fill="white"/>
<path fill-rule="evenodd" clip-rule="evenodd" d="M129.117 315.576C131.153 315.576 132.804 313.925 132.804 311.888C132.804 309.852 131.153 308.201 129.117 308.201C127.08 308.201 125.429 309.852 125.429 311.888C125.429 313.925 127.08 315.576 129.117 315.576Z" fill="white"/>
<path fill-rule="evenodd" clip-rule="evenodd" d="M129.117 345.078C131.153 345.078 132.804 343.427 132.804 341.39C132.804 339.354 131.153 337.703 129.117 337.703C127.08 337.703 125.429 339.354 125.429 341.39C125.429 343.427 127.08 345.078 129.117 345.078Z" fill="white"/>
<path fill-rule="evenodd" clip-rule="evenodd" d="M136.492 300.826C138.529 300.826 140.18 299.175 140.18 297.138C140.18 295.101 138.529 293.45 136.492 293.45C134.455 293.45 132.804 295.101 132.804 297.138C132.804 299.175 134.455 300.826 136.492 300.826Z" fill="white"/>
<path fill-rule="evenodd" clip-rule="evenodd" d="M136.492 308.201C138.529 308.201 140.18 306.55 140.18 304.513C140.18 302.476 138.529 300.825 136.492 300.825C134.455 300.825 132.804 302.476 132.804 304.513C132.804 306.55 134.455 308.201 136.492 308.201Z" fill="white"/>
<path fill-rule="evenodd" clip-rule="evenodd" d="M136.492 330.327C138.529 330.327 140.18 328.676 140.18 326.639C140.18 324.603 138.529 322.952 136.492 322.952C134.455 322.952 132.804 324.603 132.804 326.639C132.804 328.676 134.455 330.327 136.492 330.327Z" fill="white"/>
<path fill-rule="evenodd" clip-rule="evenodd" d="M136.492 345.078C138.529 345.078 140.18 343.427 140.18 341.39C140.18 339.354 138.529 337.703 136.492 337.703C134.455 337.703 132.804 339.354 132.804 341.39C132.804 343.427 134.455 345.078 136.492 345.078Z" fill="white"/>
<path fill-rule="evenodd" clip-rule="evenodd" d="M143.868 300.826C145.904 300.826 147.555 299.175 147.555 297.138C147.555 295.101 145.904 293.45 143.868 293.45C141.831 293.45 140.18 295.101 140.18 297.138C140.18 299.175 141.831 300.826 143.868 300.826Z" fill="white"/>
<path fill-rule="evenodd" clip-rule="evenodd" d="M143.868 345.078C145.904 345.078 147.555 343.427 147.555 341.39C147.555 339.354 145.904 337.703 143.868 337.703C141.831 337.703 140.18 339.354 140.18 341.39C140.18 343.427 141.831 345.078 143.868 345.078Z" fill="white"/>
<path fill-rule="evenodd" clip-rule="evenodd" d="M151.243 308.201C153.28 308.201 154.931 306.55 154.931 304.513C154.931 302.476 153.28 300.825 151.243 300.825C149.206 300.825 147.555 302.476 147.555 304.513C147.555 306.55 149.206 308.201 151.243 308.201Z" fill="white"/>
<path fill-rule="evenodd" clip-rule="evenodd" d="M151.243 315.576C153.28 315.576 154.931 313.925 154.931 311.888C154.931 309.852 153.28 308.201 151.243 308.201C149.206 308.201 147.555 309.852 147.555 311.888C147.555 313.925 149.206 315.576 151.243 315.576Z" fill="white"/>
<path fill-rule="evenodd" clip-rule="evenodd" d="M151.243 345.078C153.28 345.078 154.931 343.427 154.931 341.39C154.931 339.354 153.28 337.703 151.243 337.703C149.206 337.703 147.555 339.354 147.555 341.39C147.555 343.427 149.206 345.078 151.243 345.078Z" fill="white"/>
<path fill-rule="evenodd" clip-rule="evenodd" d="M158.618 315.576C160.655 315.576 162.306 313.925 162.306 311.888C162.306 309.852 160.655 308.201 158.618 308.201C156.582 308.201 154.931 309.852 154.931 311.888C154.931 313.925 156.582 315.576 158.618 315.576Z" fill="white"/>
<path fill-rule="evenodd" clip-rule="evenodd" d="M158.618 322.952C160.655 322.952 162.306 321.301 162.306 319.264C162.306 317.228 160.655 315.577 158.618 315.577C156.582 315.577 154.931 317.228 154.931 319.264C154.931 321.301 156.582 322.952 158.618 322.952Z" fill="white"/>
<path fill-rule="evenodd" clip-rule="evenodd" d="M158.618 330.327C160.655 330.327 162.306 328.676 162.306 326.639C162.306 324.603 160.655 322.952 158.618 322.952C156.582 322.952 154.931 324.603 154.931 326.639C154.931 328.676 156.582 330.327 158.618 330.327Z" fill="white"/>
<path fill-rule="evenodd" clip-rule="evenodd" d="M158.618 337.703C160.655 337.703 162.306 336.052 162.306 334.015C162.306 331.978 160.655 330.327 158.618 330.327C156.582 330.327 154.931 331.978 154.931 334.015C154.931 336.052 156.582 337.703 158.618 337.703Z" fill="white"/>
<path fill-rule="evenodd" clip-rule="evenodd" d="M158.618 345.078C160.655 345.078 162.306 343.427 162.306 341.39C162.306 339.354 160.655 337.703 158.618 337.703C156.582 337.703 154.931 339.354 154.931 341.39C154.931 343.427 156.582 345.078 158.618 345.078Z" fill="white"/>
<path fill-rule="evenodd" clip-rule="evenodd" d="M165.994 293.451C168.031 293.451 169.682 291.8 169.682 289.763C169.682 287.726 168.031 286.075 165.994 286.075C163.957 286.075 162.306 287.726 162.306 289.763C162.306 291.8 163.957 293.451 165.994 293.451Z" fill="white"/>
<path fill-rule="evenodd" clip-rule="evenodd" d="M165.994 322.952C168.031 322.952 169.682 321.301 169.682 319.264C169.682 317.228 168.031 315.577 165.994 315.577C163.957 315.577 162.306 317.228 162.306 319.264C162.306 321.301 163.957 322.952 165.994 322.952Z" fill="white"/>
<path fill-rule="evenodd" clip-rule="evenodd" d="M165.994 330.327C168.031 330.327 169.682 328.676 169.682 326.639C169.682 324.603 168.031 322.952 165.994 322.952C163.957 322.952 162.306 324.603 162.306 326.639C162.306 328.676 163.957 330.327 165.994 330.327Z" fill="white"/>
<path fill-rule="evenodd" clip-rule="evenodd" d="M165.994 337.703C168.031 337.703 169.682 336.052 169.682 334.015C169.682 331.978 168.031 330.327 165.994 330.327C163.957 330.327 162.306 331.978 162.306 334.015C162.306 336.052 163.957 337.703 165.994 337.703Z" fill="white"/>
<path fill-rule="evenodd" clip-rule="evenodd" d="M165.994 345.078C168.031 345.078 169.682 343.427 169.682 341.39C169.682 339.354 168.031 337.703 165.994 337.703C163.957 337.703 162.306 339.354 162.306 341.39C162.306 343.427 163.957 345.078 165.994 345.078Z" fill="white"/>
<path fill-rule="evenodd" clip-rule="evenodd" d="M483.63 359.829C508.07 359.829 527.883 340.016 527.883 315.576C527.883 291.136 508.07 271.324 483.63 271.324C459.19 271.324 439.377 291.136 439.377 315.576C439.377 340.016 459.19 359.829 483.63 359.829Z" fill="white" stroke="black" stroke-width="0.984615"/>
<path fill-rule="evenodd" clip-rule="evenodd" d="M465.191 322.952C467.228 322.952 468.879 321.301 468.879 319.264C468.879 317.228 467.228 315.577 465.191 315.577C463.155 315.577 461.504 317.228 461.504 319.264C461.504 321.301 463.155 322.952 465.191 322.952Z" fill="black"/>
<path fill-rule="evenodd" clip-rule="evenodd" d="M465.191 330.327C467.228 330.327 468.879 328.676 468.879 326.639C468.879 324.603 467.228 322.952 465.191 322.952C463.155 322.952 461.504 324.603 461.504 326.639C461.504 328.676 463.155 330.327 465.191 330.327Z" fill="black"/>
<path fill-rule="evenodd" clip-rule="evenodd" d="M472.567 315.576C474.603 315.576 476.255 313.925 476.255 311.888C476.255 309.852 474.603 308.201 472.567 308.201C470.53 308.201 468.879 309.852 468.879 311.888C468.879 313.925 470.53 315.576 472.567 315.576Z" fill="black"/>
<path fill-rule="evenodd" clip-rule="evenodd" d="M472.567 337.703C474.603 337.703 476.255 336.052 476.255 334.015C476.255 331.978 474.603 330.327 472.567 330.327C470.53 330.327 468.879 331.978 468.879 334.015C468.879 336.052 470.53 337.703 472.567 337.703Z" fill="black"/>
<path fill-rule="evenodd" clip-rule="evenodd" d="M479.942 308.201C481.979 308.201 483.63 306.55 483.63 304.513C483.63 302.476 481.979 300.825 479.942 300.825C477.906 300.825 476.254 302.476 476.254 304.513C476.254 306.55 477.906 308.201 479.942 308.201Z" fill="black"/>
<path fill-rule="evenodd" clip-rule="evenodd" d="M479.942 315.576C481.979 315.576 483.63 313.925 483.63 311.888C483.63 309.852 481.979 308.201 479.942 308.201C477.906 308.201 476.254 309.852 476.254 311.888C476.254 313.925 477.906 315.576 479.942 315.576Z" fill="black"/>
<path fill-rule="evenodd" clip-rule="evenodd" d="M479.942 337.703C481.979 337.703 483.63 336.052 483.63 334.015C483.63 331.978 481.979 330.327 479.942 330.327C477.906 330.327 476.254 331.978 476.254 334.015C476.254 336.052 477.906 337.703 479.942 337.703Z" fill="black"/>
<path fill-rule="evenodd" clip-rule="evenodd" d="M487.318 300.826C489.354 300.826 491.005 299.175 491.005 297.138C491.005 295.101 489.354 293.45 487.318 293.45C485.281 293.45 483.63 295.101 483.63 297.138C483.63 299.175 485.281 300.826 487.318 300.826Z" fill="black"/>
<path fill-rule="evenodd" clip-rule="evenodd" d="M487.318 337.703C489.354 337.703 491.005 336.052 491.005 334.015C491.005 331.978 489.354 330.327 487.318 330.327C485.281 330.327 483.63 331.978 483.63 334.015C483.63 336.052 485.281 337.703 487.318 337.703Z" fill="black"/>
<path fill-rule="evenodd" clip-rule="evenodd" d="M494.693 300.826C496.73 300.826 498.381 299.175 498.381 297.138C498.381 295.101 496.73 293.45 494.693 293.45C492.656 293.45 491.005 295.101 491.005 297.138C491.005 299.175 492.656 300.826 494.693 300.826Z" fill="black"/>
<path fill-rule="evenodd" clip-rule="evenodd" d="M494.693 337.703C496.73 337.703 498.381 336.052 498.381 334.015C498.381 331.978 496.73 330.327 494.693 330.327C492.656 330.327 491.005 331.978 491.005 334.015C491.005 336.052 492.656 337.703 494.693 337.703Z" fill="black"/>
<path fill-rule="evenodd" clip-rule="evenodd" d="M502.068 308.201C504.105 308.201 505.756 306.55 505.756 304.513C505.756 302.476 504.105 300.825 502.068 300.825C500.032 300.825 498.381 302.476 498.381 304.513C498.381 306.55 500.032 308.201 502.068 308.201Z" fill="black"/>
<path fill-rule="evenodd" clip-rule="evenodd" d="M502.068 315.576C504.105 315.576 505.756 313.925 505.756 311.888C505.756 309.852 504.105 308.201 502.068 308.201C500.032 308.201 498.381 309.852 498.381 311.888C498.381 313.925 500.032 315.576 502.068 315.576Z" fill="black"/>
<path fill-rule="evenodd" clip-rule="evenodd" d="M502.068 322.952C504.105 322.952 505.756 321.301 505.756 319.264C505.756 317.228 504.105 315.577 502.068 315.577C500.032 315.577 498.381 317.228 498.381 319.264C498.381 321.301 500.032 322.952 502.068 322.952Z" fill="black"/>
<path fill-rule="evenodd" clip-rule="evenodd" d="M502.068 330.327C504.105 330.327 505.756 328.676 505.756 326.639C505.756 324.603 504.105 322.952 502.068 322.952C500.032 322.952 498.381 324.603 498.381 326.639C498.381 328.676 500.032 330.327 502.068 330.327Z" fill="black"/>
<path fill-rule="evenodd" clip-rule="evenodd" d="M502.068 337.703C504.105 337.703 505.756 336.052 505.756 334.015C505.756 331.978 504.105 330.327 502.068 330.327C500.032 330.327 498.381 331.978 498.381 334.015C498.381 336.052 500.032 337.703 502.068 337.703Z" fill="black"/>
<path fill-rule="evenodd" clip-rule="evenodd" d="M140.18 219.505C164.62 219.505 184.432 199.693 184.432 175.253C184.432 150.813 164.62 131 140.18 131C115.74 131 95.9272 150.813 95.9272 175.253C95.9272 199.693 115.74 219.505 140.18 219.505Z" fill="white" stroke="black" stroke-width="0.984615"/>
<path fill-rule="evenodd" clip-rule="evenodd" d="M114.366 204.753C116.402 204.753 118.054 203.102 118.054 201.066C118.054 199.029 116.402 197.378 114.366 197.378C112.329 197.378 110.678 199.029 110.678 201.066C110.678 203.102 112.329 204.753 114.366 204.753Z" fill="black"/>
<path fill-rule="evenodd" clip-rule="evenodd" d="M121.741 182.628C123.778 182.628 125.429 180.977 125.429 178.94C125.429 176.903 123.778 175.252 121.741 175.252C119.705 175.252 118.054 176.903 118.054 178.94C118.054 180.977 119.705 182.628 121.741 182.628Z" fill="black"/>
<path fill-rule="evenodd" clip-rule="evenodd" d="M121.741 197.379C123.778 197.379 125.429 195.728 125.429 193.691C125.429 191.654 123.778 190.003 121.741 190.003C119.705 190.003 118.054 191.654 118.054 193.691C118.054 195.728 119.705 197.379 121.741 197.379Z" fill="black"/>
<path fill-rule="evenodd" clip-rule="evenodd" d="M129.117 175.252C131.153 175.252 132.804 173.601 132.804 171.564C132.804 169.528 131.153 167.876 129.117 167.876C127.08 167.876 125.429 169.528 125.429 171.564C125.429 173.601 127.08 175.252 129.117 175.252Z" fill="black"/>
<path fill-rule="evenodd" clip-rule="evenodd" d="M129.117 190.003C131.153 190.003 132.804 188.352 132.804 186.315C132.804 184.278 131.153 182.627 129.117 182.627C127.08 182.627 125.429 184.278 125.429 186.315C125.429 188.352 127.08 190.003 129.117 190.003Z" fill="black"/>
<path fill-rule="evenodd" clip-rule="evenodd" d="M136.492 167.877C138.529 167.877 140.18 166.226 140.18 164.189C140.18 162.153 138.529 160.501 136.492 160.501C134.455 160.501 132.804 162.153 132.804 164.189C132.804 166.226 134.455 167.877 136.492 167.877Z" fill="black"/>
<path fill-rule="evenodd" clip-rule="evenodd" d="M136.492 182.628C138.529 182.628 140.18 180.977 140.18 178.94C140.18 176.903 138.529 175.252 136.492 175.252C134.455 175.252 132.804 176.903 132.804 178.94C132.804 180.977 134.455 182.628 136.492 182.628Z" fill="black"/>
<path fill-rule="evenodd" clip-rule="evenodd" d="M136.492 197.379C138.529 197.379 140.18 195.728 140.18 193.691C140.18 191.654 138.529 190.003 136.492 190.003C134.455 190.003 132.804 191.654 132.804 193.691C132.804 195.728 134.455 197.379 136.492 197.379Z" fill="black"/>
<path fill-rule="evenodd" clip-rule="evenodd" d="M143.868 160.501C145.904 160.501 147.555 158.85 147.555 156.814C147.555 154.777 145.904 153.126 143.868 153.126C141.831 153.126 140.18 154.777 140.18 156.814C140.18 158.85 141.831 160.501 143.868 160.501Z" fill="black"/>
<path fill-rule="evenodd" clip-rule="evenodd" d="M143.868 175.252C145.904 175.252 147.555 173.601 147.555 171.564C147.555 169.528 145.904 167.876 143.868 167.876C141.831 167.876 140.18 169.528 140.18 171.564C140.18 173.601 141.831 175.252 143.868 175.252Z" fill="black"/>
<path fill-rule="evenodd" clip-rule="evenodd" d="M143.868 190.003C145.904 190.003 147.555 188.352 147.555 186.315C147.555 184.278 145.904 182.627 143.868 182.627C141.831 182.627 140.18 184.278 140.18 186.315C140.18 188.352 141.831 190.003 143.868 190.003Z" fill="black"/>
<path fill-rule="evenodd" clip-rule="evenodd" d="M151.243 167.877C153.28 167.877 154.931 166.226 154.931 164.189C154.931 162.153 153.28 160.501 151.243 160.501C149.206 160.501 147.555 162.153 147.555 164.189C147.555 166.226 149.206 167.877 151.243 167.877Z" fill="black"/>
<path fill-rule="evenodd" clip-rule="evenodd" d="M151.243 182.628C153.28 182.628 154.931 180.977 154.931 178.94C154.931 176.903 153.28 175.252 151.243 175.252C149.206 175.252 147.555 176.903 147.555 178.94C147.555 180.977 149.206 182.628 151.243 182.628Z" fill="black"/>
<path fill-rule="evenodd" clip-rule="evenodd" d="M158.618 175.252C160.655 175.252 162.306 173.601 162.306 171.564C162.306 169.528 160.655 167.876 158.618 167.876C156.582 167.876 154.931 169.528 154.931 171.564C154.931 173.601 156.582 175.252 158.618 175.252Z" fill="black"/>
<path fill-rule="evenodd" clip-rule="evenodd" d="M311.905 359.829C336.345 359.829 356.158 340.016 356.158 315.576C356.158 291.136 336.345 271.324 311.905 271.324C287.465 271.324 267.652 291.136 267.652 315.576C267.652 340.016 287.465 359.829 311.905 359.829Z" fill="black" stroke="black" stroke-width="0.984615"/>
<path fill-rule="evenodd" clip-rule="evenodd" d="M293.466 308.201C295.503 308.201 297.154 306.55 297.154 304.513C297.154 302.476 295.503 300.825 293.466 300.825C291.43 300.825 289.779 302.476 289.779 304.513C289.779 306.55 291.43 308.201 293.466 308.201Z" fill="white"/>
<path fill-rule="evenodd" clip-rule="evenodd" d="M293.466 322.952C295.503 322.952 297.154 321.301 297.154 319.264C297.154 317.228 295.503 315.577 293.466 315.577C291.43 315.577 289.779 317.228 289.779 319.264C289.779 321.301 291.43 322.952 293.466 322.952Z" fill="white"/>
<path fill-rule="evenodd" clip-rule="evenodd" d="M293.466 337.703C295.503 337.703 297.154 336.052 297.154 334.015C297.154 331.978 295.503 330.327 293.466 330.327C291.43 330.327 289.779 331.978 289.779 334.015C289.779 336.052 291.43 337.703 293.466 337.703Z" fill="white"/>
<path fill-rule="evenodd" clip-rule="evenodd" d="M300.842 300.826C302.878 300.826 304.529 299.175 304.529 297.138C304.529 295.101 302.878 293.45 300.842 293.45C298.805 293.45 297.154 295.101 297.154 297.138C297.154 299.175 298.805 300.826 300.842 300.826Z" fill="white"/>
<path fill-rule="evenodd" clip-rule="evenodd" d="M300.842 315.576C302.878 315.576 304.529 313.925 304.529 311.888C304.529 309.852 302.878 308.201 300.842 308.201C298.805 308.201 297.154 309.852 297.154 311.888C297.154 313.925 298.805 315.576 300.842 315.576Z" fill="white"/>
<path fill-rule="evenodd" clip-rule="evenodd" d="M300.842 330.327C302.878 330.327 304.529 328.676 304.529 326.639C304.529 324.603 302.878 322.952 300.842 322.952C298.805 322.952 297.154 324.603 297.154 326.639C297.154 328.676 298.805 330.327 300.842 330.327Z" fill="white"/>
<path fill-rule="evenodd" clip-rule="evenodd" d="M300.842 337.703C302.878 337.703 304.529 336.052 304.529 334.015C304.529 331.978 302.878 330.327 300.842 330.327C298.805 330.327 297.154 331.978 297.154 334.015C297.154 336.052 298.805 337.703 300.842 337.703Z" fill="white"/>
<path fill-rule="evenodd" clip-rule="evenodd" d="M308.217 293.451C310.254 293.451 311.905 291.8 311.905 289.763C311.905 287.726 310.254 286.075 308.217 286.075C306.18 286.075 304.529 287.726 304.529 289.763C304.529 291.8 306.18 293.451 308.217 293.451Z" fill="white"/>
<path fill-rule="evenodd" clip-rule="evenodd" d="M308.217 300.826C310.254 300.826 311.905 299.175 311.905 297.138C311.905 295.101 310.254 293.45 308.217 293.45C306.18 293.45 304.529 295.101 304.529 297.138C304.529 299.175 306.18 300.826 308.217 300.826Z" fill="white"/>
<path fill-rule="evenodd" clip-rule="evenodd" d="M308.217 308.201C310.254 308.201 311.905 306.55 311.905 304.513C311.905 302.476 310.254 300.825 308.217 300.825C306.18 300.825 304.529 302.476 304.529 304.513C304.529 306.55 306.18 308.201 308.217 308.201Z" fill="white"/>
<path fill-rule="evenodd" clip-rule="evenodd" d="M308.217 322.952C310.254 322.952 311.905 321.301 311.905 319.264C311.905 317.228 310.254 315.577 308.217 315.577C306.18 315.577 304.529 317.228 304.529 319.264C304.529 321.301 306.18 322.952 308.217 322.952Z" fill="white"/>
<path fill-rule="evenodd" clip-rule="evenodd" d="M308.217 337.703C310.254 337.703 311.905 336.052 311.905 334.015C311.905 331.978 310.254 330.327 308.217 330.327C306.18 330.327 304.529 331.978 304.529 334.015C304.529 336.052 306.18 337.703 308.217 337.703Z" fill="white"/>
<path fill-rule="evenodd" clip-rule="evenodd" d="M315.593 293.451C317.629 293.451 319.28 291.8 319.28 289.763C319.28 287.726 317.629 286.075 315.593 286.075C313.556 286.075 311.905 287.726 311.905 289.763C311.905 291.8 313.556 293.451 315.593 293.451Z" fill="white"/>
<path fill-rule="evenodd" clip-rule="evenodd" d="M315.593 300.826C317.629 300.826 319.28 299.175 319.28 297.138C319.28 295.101 317.629 293.45 315.593 293.45C313.556 293.45 311.905 295.101 311.905 297.138C311.905 299.175 313.556 300.826 315.593 300.826Z" fill="white"/>
<path fill-rule="evenodd" clip-rule="evenodd" d="M315.593 308.201C317.629 308.201 319.28 306.55 319.28 304.513C319.28 302.476 317.629 300.825 315.593 300.825C313.556 300.825 311.905 302.476 311.905 304.513C311.905 306.55 313.556 308.201 315.593 308.201Z" fill="white"/>
<path fill-rule="evenodd" clip-rule="evenodd" d="M315.593 315.576C317.629 315.576 319.28 313.925 319.28 311.888C319.28 309.852 317.629 308.201 315.593 308.201C313.556 308.201 311.905 309.852 311.905 311.888C311.905 313.925 313.556 315.576 315.593 315.576Z" fill="white"/>
<path fill-rule="evenodd" clip-rule="evenodd" d="M315.593 330.327C317.629 330.327 319.28 328.676 319.28 326.639C319.28 324.603 317.629 322.952 315.593 322.952C313.556 322.952 311.905 324.603 311.905 326.639C311.905 328.676 313.556 330.327 315.593 330.327Z" fill="white"/>
<path fill-rule="evenodd" clip-rule="evenodd" d="M315.593 337.703C317.629 337.703 319.28 336.052 319.28 334.015C319.28 331.978 317.629 330.327 315.593 330.327C313.556 330.327 311.905 331.978 311.905 334.015C311.905 336.052 313.556 337.703 315.593 337.703Z" fill="white"/>
<path fill-rule="evenodd" clip-rule="evenodd" d="M322.968 293.451C325.005 293.451 326.656 291.8 326.656 289.763C326.656 287.726 325.005 286.075 322.968 286.075C320.931 286.075 319.28 287.726 319.28 289.763C319.28 291.8 320.931 293.451 322.968 293.451Z" fill="white"/>
<path fill-rule="evenodd" clip-rule="evenodd" d="M322.968 308.201C325.005 308.201 326.656 306.55 326.656 304.513C326.656 302.476 325.005 300.825 322.968 300.825C320.931 300.825 319.28 302.476 319.28 304.513C319.28 306.55 320.931 308.201 322.968 308.201Z" fill="white"/>
<path fill-rule="evenodd" clip-rule="evenodd" d="M322.968 337.703C325.005 337.703 326.656 336.052 326.656 334.015C326.656 331.978 325.005 330.327 322.968 330.327C320.931 330.327 319.28 331.978 319.28 334.015C319.28 336.052 320.931 337.703 322.968 337.703Z" fill="white"/>
<path fill-rule="evenodd" clip-rule="evenodd" d="M330.343 293.451C332.38 293.451 334.031 291.8 334.031 289.763C334.031 287.726 332.38 286.075 330.343 286.075C328.307 286.075 326.656 287.726 326.656 289.763C326.656 291.8 328.307 293.451 330.343 293.451Z" fill="white"/>
<path fill-rule="evenodd" clip-rule="evenodd" d="M330.343 315.576C332.38 315.576 334.031 313.925 334.031 311.888C334.031 309.852 332.38 308.201 330.343 308.201C328.307 308.201 326.656 309.852 326.656 311.888C326.656 313.925 328.307 315.576 330.343 315.576Z" fill="white"/>
<path fill-rule="evenodd" clip-rule="evenodd" d="M330.343 322.952C332.38 322.952 334.031 321.301 334.031 319.264C334.031 317.228 332.38 315.577 330.343 315.577C328.307 315.577 326.656 317.228 326.656 319.264C326.656 321.301 328.307 322.952 330.343 322.952Z" fill="white"/>
<path fill-rule="evenodd" clip-rule="evenodd" d="M330.343 330.327C332.38 330.327 334.031 328.676 334.031 326.639C334.031 324.603 332.38 322.952 330.343 322.952C328.307 322.952 326.656 324.603 326.656 326.639C326.656 328.676 328.307 330.327 330.343 330.327Z" fill="white"/>
</g>
<path d="M577 79.5H596.5V123.5H419.5V79.5H554.5H554.66L554.79 79.4075L565.75 71.6135L576.71 79.4075L576.84 79.5H577Z" fill="white" stroke="#01B463"/>
<rect x="419.5" y="300.5" width="177" height="177" fill="white" stroke="#01B463"/>
<rect x="419.5" y="123.5" width="177" height="177" fill="white" stroke="#01B463"/>
<path d="M445.282 106H447.662V102.402L450.966 96.06H448.46L446.724 99.728C446.612 99.98 446.528 100.232 446.486 100.456H446.458C446.416 100.232 446.332 99.98 446.22 99.728L444.47 96.06H441.978L445.282 102.402V106ZM453.389 106.168C455.461 106.168 457.029 104.894 457.029 102.486C457.029 100.078 455.461 98.832 453.389 98.832C451.331 98.832 449.763 100.078 449.763 102.486C449.763 104.894 451.331 106.168 453.389 106.168ZM453.389 104.614C452.521 104.614 452.003 103.914 452.003 102.486C452.003 101.044 452.521 100.386 453.389 100.386C454.271 100.386 454.789 101.044 454.789 102.486C454.789 103.914 454.271 104.614 453.389 104.614ZM460.366 106.168C461.388 106.168 462.214 105.608 462.55 104.726V106H464.692V99H462.438V103.004C462.438 103.886 461.99 104.46 461.262 104.46C460.604 104.46 460.254 104.012 460.254 103.144V99H458.014V103.536C458.014 105.174 458.714 106.168 460.366 106.168ZM468.425 100.806V99H466.311V106H468.565V103.144C468.565 102.43 468.677 101.8 469.125 101.38C469.433 101.114 469.881 100.96 470.483 100.96C470.651 100.96 470.763 100.96 470.903 100.974V98.832H470.763C469.559 98.832 468.789 99.546 468.425 100.806ZM479.548 96.06H475.138V106H477.504V102.388H479.492C481.732 102.388 483.118 101.156 483.118 99.182C483.118 97.292 481.704 96.06 479.548 96.06ZM478.974 100.736H477.504V97.768H478.974C480.038 97.768 480.64 98.314 480.64 99.252C480.64 100.19 480.024 100.736 478.974 100.736ZM483.963 97.992H486.301V95.948H483.963V97.992ZM483.991 106H486.245V99H483.991V106ZM494.772 99.322V97.824C494.66 97.81 494.576 97.81 494.478 97.81C493.372 97.81 492.686 98.3 492.448 99.084C491.986 98.916 491.454 98.832 490.838 98.832C488.864 98.832 487.632 99.756 487.632 101.17C487.632 101.982 488.024 102.626 488.724 103.046C487.926 103.34 487.464 103.886 487.464 104.642C487.464 105.244 487.772 105.706 488.416 105.958C487.618 106.21 487.212 106.658 487.212 107.218C487.212 108.212 488.332 108.898 490.656 108.898C493.288 108.898 494.688 107.932 494.688 106.336C494.688 105.006 493.82 104.292 492.112 104.292H490.152C489.48 104.292 489.186 104.068 489.186 103.718C489.186 103.55 489.256 103.438 489.396 103.34C489.816 103.48 490.292 103.55 490.838 103.55C492.812 103.55 494.03 102.598 494.03 101.17C494.03 100.484 493.736 99.91 493.218 99.504C493.442 99.336 493.75 99.252 494.128 99.252C494.338 99.252 494.534 99.28 494.772 99.322ZM490.838 102.402C490.18 102.402 489.746 101.884 489.746 101.17C489.746 100.456 490.18 99.98 490.838 99.98C491.482 99.98 491.916 100.456 491.916 101.17C491.916 101.898 491.482 102.402 490.838 102.402ZM491.874 106.168C492.504 106.168 492.812 106.392 492.812 106.84C492.812 107.344 492.21 107.666 490.754 107.666C489.592 107.666 488.878 107.4 488.878 106.784C488.878 106.532 488.962 106.308 489.158 106.126C489.312 106.14 489.48 106.154 489.662 106.154L491.874 106.168ZM498.799 97.992H501.137V95.948H498.799V97.992ZM498.827 106H501.081V99H498.827V106ZM505.436 106.168C507.396 106.168 508.53 105.286 508.53 103.858C508.53 102.654 507.942 101.912 506.444 101.702L505.198 101.506C504.582 101.422 504.372 101.24 504.372 100.904C504.372 100.512 504.68 100.33 505.352 100.33C506.22 100.33 506.92 100.68 507.438 101.268L508.6 100.218C508.026 99.35 506.836 98.832 505.422 98.832C503.49 98.832 502.342 99.686 502.342 101.044C502.342 102.234 503.056 102.976 504.568 103.2L505.576 103.34C506.346 103.452 506.57 103.606 506.57 104.026C506.57 104.418 506.206 104.642 505.478 104.642C504.512 104.642 503.756 104.264 503.266 103.508L501.964 104.488C502.636 105.594 503.896 106.168 505.436 106.168ZM518.556 106H521.118L518.92 101.842C520.208 101.408 520.866 100.358 520.866 99.112C520.866 97.292 519.746 96.06 517.226 96.06H512.858V106H515.224V102.192H516.652L518.556 106ZM515.224 97.726H516.75C517.912 97.726 518.402 98.244 518.402 99.112C518.402 100.008 517.898 100.568 516.75 100.568H515.224V97.726ZM524.252 106.168C525.274 106.168 526.1 105.608 526.436 104.726V106H528.578V99H526.324V103.004C526.324 103.886 525.876 104.46 525.148 104.46C524.49 104.46 524.14 104.012 524.14 103.144V99H521.9V103.536C521.9 105.174 522.6 106.168 524.252 106.168ZM530.198 106H532.452V102.22C532.452 101.142 532.886 100.54 533.67 100.54C534.384 100.54 534.72 101.002 534.72 101.968V106H536.96V101.66C536.96 99.784 536.19 98.818 534.678 98.818C533.614 98.818 532.844 99.322 532.354 100.344V99H530.198V106ZM538.479 106H540.733V102.22C540.733 101.142 541.167 100.54 541.951 100.54C542.665 100.54 543.001 101.002 543.001 101.968V106H545.241V101.66C545.241 99.784 544.471 98.818 542.959 98.818C541.895 98.818 541.125 99.322 540.635 100.344V99H538.479V106ZM546.732 97.992H549.07V95.948H546.732V97.992ZM546.76 106H549.014V99H546.76V106ZM550.639 106H552.893V102.22C552.893 101.142 553.327 100.54 554.111 100.54C554.825 100.54 555.161 101.002 555.161 101.968V106H557.401V101.66C557.401 99.784 556.631 98.818 555.119 98.818C554.055 98.818 553.285 99.322 552.795 100.344V99H550.639V106ZM565.822 99.322V97.824C565.71 97.81 565.626 97.81 565.528 97.81C564.422 97.81 563.736 98.3 563.498 99.084C563.036 98.916 562.504 98.832 561.888 98.832C559.914 98.832 558.682 99.756 558.682 101.17C558.682 101.982 559.074 102.626 559.774 103.046C558.976 103.34 558.514 103.886 558.514 104.642C558.514 105.244 558.822 105.706 559.466 105.958C558.668 106.21 558.262 106.658 558.262 107.218C558.262 108.212 559.382 108.898 561.706 108.898C564.338 108.898 565.738 107.932 565.738 106.336C565.738 105.006 564.87 104.292 563.162 104.292H561.202C560.53 104.292 560.236 104.068 560.236 103.718C560.236 103.55 560.306 103.438 560.446 103.34C560.866 103.48 561.342 103.55 561.888 103.55C563.862 103.55 565.08 102.598 565.08 101.17C565.08 100.484 564.786 99.91 564.268 99.504C564.492 99.336 564.8 99.252 565.178 99.252C565.388 99.252 565.584 99.28 565.822 99.322ZM561.888 102.402C561.23 102.402 560.796 101.884 560.796 101.17C560.796 100.456 561.23 99.98 561.888 99.98C562.532 99.98 562.966 100.456 562.966 101.17C562.966 101.898 562.532 102.402 561.888 102.402ZM562.924 106.168C563.554 106.168 563.862 106.392 563.862 106.84C563.862 107.344 563.26 107.666 561.804 107.666C560.642 107.666 559.928 107.4 559.928 106.784C559.928 106.532 560.012 106.308 560.208 106.126C560.362 106.14 560.53 106.154 560.712 106.154L562.924 106.168Z" fill="#01B463"/>
<path fill-rule="evenodd" clip-rule="evenodd" d="M508.042 344.516C483.764 344.516 464.084 364.324 464.084 388.758C464.084 413.192 483.764 433 508.042 433C532.319 433 552 413.192 552 388.758C552 364.324 532.319 344.516 508.042 344.516Z" fill="black" stroke="black" stroke-width="0.984615"/>
<path fill-rule="evenodd" clip-rule="evenodd" d="M533.684 410.879C531.661 410.879 530.021 412.53 530.021 414.566C530.021 416.602 531.661 418.253 533.684 418.253C535.707 418.253 537.347 416.602 537.347 414.566C537.347 412.53 535.707 410.879 533.684 410.879Z" fill="#01B463"/>
<path fill-rule="evenodd" clip-rule="evenodd" d="M526.358 403.506C524.335 403.506 522.694 405.156 522.694 407.193C522.694 409.229 524.335 410.879 526.358 410.879C528.381 410.879 530.021 409.229 530.021 407.193C530.021 405.156 528.381 403.506 526.358 403.506Z" fill="#01B463"/>
<path fill-rule="evenodd" clip-rule="evenodd" d="M511.705 381.385C509.682 381.385 508.042 383.035 508.042 385.071C508.042 387.108 509.682 388.758 511.705 388.758C513.728 388.758 515.368 387.108 515.368 385.071C515.368 383.035 513.728 381.385 511.705 381.385Z" fill="white"/>
<path fill-rule="evenodd" clip-rule="evenodd" d="M504.379 388.759C502.356 388.759 500.715 390.409 500.715 392.446C500.715 394.482 502.356 396.132 504.379 396.132C506.402 396.132 508.042 394.482 508.042 392.446C508.042 390.409 506.402 388.759 504.379 388.759Z" fill="white"/>
<path fill-rule="evenodd" clip-rule="evenodd" d="M504.379 374.011C502.356 374.011 500.715 375.661 500.715 377.697C500.715 379.734 502.356 381.384 504.379 381.384C506.402 381.384 508.042 379.734 508.042 377.697C508.042 375.661 506.402 374.011 504.379 374.011Z" fill="white"/>
<path fill-rule="evenodd" clip-rule="evenodd" d="M497.052 381.385C495.029 381.385 493.389 383.035 493.389 385.071C493.389 387.108 495.029 388.758 497.052 388.758C499.075 388.758 500.715 387.108 500.715 385.071C500.715 383.035 499.075 381.385 497.052 381.385Z" fill="white"/>
<path fill-rule="evenodd" clip-rule="evenodd" d="M508.253 256.505C532.693 256.505 552.505 236.693 552.505 212.253C552.505 187.813 532.693 168 508.253 168C483.813 168 464 187.813 464 212.253C464 236.693 483.813 256.505 508.253 256.505Z" fill="white" stroke="black" stroke-width="0.984615"/>
<path fill-rule="evenodd" clip-rule="evenodd" d="M489.814 219.628C491.851 219.628 493.502 217.977 493.502 215.941C493.502 213.904 491.851 212.253 489.814 212.253C487.777 212.253 486.126 213.904 486.126 215.941C486.126 217.977 487.777 219.628 489.814 219.628Z" fill="black"/>
<path fill-rule="evenodd" clip-rule="evenodd" d="M489.814 227.003C491.851 227.003 493.502 225.352 493.502 223.316C493.502 221.279 491.851 219.628 489.814 219.628C487.777 219.628 486.126 221.279 486.126 223.316C486.126 225.352 487.777 227.003 489.814 227.003Z" fill="black"/>
<path fill-rule="evenodd" clip-rule="evenodd" d="M497.189 212.252C499.226 212.252 500.877 210.601 500.877 208.565C500.877 206.528 499.226 204.877 497.189 204.877C495.153 204.877 493.502 206.528 493.502 208.565C493.502 210.601 495.153 212.252 497.189 212.252Z" fill="black"/>
<path fill-rule="evenodd" clip-rule="evenodd" d="M497.189 234.379C499.226 234.379 500.877 232.728 500.877 230.691C500.877 228.654 499.226 227.003 497.189 227.003C495.153 227.003 493.502 228.654 493.502 230.691C493.502 232.728 495.153 234.379 497.189 234.379Z" fill="black"/>
<path fill-rule="evenodd" clip-rule="evenodd" d="M504.565 204.877C506.602 204.877 508.253 203.226 508.253 201.189C508.253 199.153 506.602 197.501 504.565 197.501C502.528 197.501 500.877 199.153 500.877 201.189C500.877 203.226 502.528 204.877 504.565 204.877Z" fill="black"/>
<path fill-rule="evenodd" clip-rule="evenodd" d="M504.565 212.252C506.602 212.252 508.253 210.601 508.253 208.565C508.253 206.528 506.602 204.877 504.565 204.877C502.528 204.877 500.877 206.528 500.877 208.565C500.877 210.601 502.528 212.252 504.565 212.252Z" fill="black"/>
<path fill-rule="evenodd" clip-rule="evenodd" d="M504.565 234.379C506.602 234.379 508.253 232.728 508.253 230.691C508.253 228.654 506.602 227.003 504.565 227.003C502.528 227.003 500.877 228.654 500.877 230.691C500.877 232.728 502.528 234.379 504.565 234.379Z" fill="black"/>
<path fill-rule="evenodd" clip-rule="evenodd" d="M511.94 197.502C513.977 197.502 515.628 195.851 515.628 193.814C515.628 191.778 513.977 190.126 511.94 190.126C509.904 190.126 508.253 191.778 508.253 193.814C508.253 195.851 509.904 197.502 511.94 197.502Z" fill="black"/>
<path fill-rule="evenodd" clip-rule="evenodd" d="M511.94 234.379C513.977 234.379 515.628 232.728 515.628 230.691C515.628 228.654 513.977 227.003 511.94 227.003C509.904 227.003 508.253 228.654 508.253 230.691C508.253 232.728 509.904 234.379 511.94 234.379Z" fill="black"/>
<path fill-rule="evenodd" clip-rule="evenodd" d="M519.316 197.502C521.352 197.502 523.003 195.851 523.003 193.814C523.003 191.778 521.352 190.126 519.316 190.126C517.279 190.126 515.628 191.778 515.628 193.814C515.628 195.851 517.279 197.502 519.316 197.502Z" fill="black"/>
<path fill-rule="evenodd" clip-rule="evenodd" d="M519.316 234.379C521.352 234.379 523.003 232.728 523.003 230.691C523.003 228.654 521.352 227.003 519.316 227.003C517.279 227.003 515.628 228.654 515.628 230.691C515.628 232.728 517.279 234.379 519.316 234.379Z" fill="black"/>
<path fill-rule="evenodd" clip-rule="evenodd" d="M526.691 204.877C528.728 204.877 530.379 203.226 530.379 201.189C530.379 199.153 528.728 197.501 526.691 197.501C524.654 197.501 523.003 199.153 523.003 201.189C523.003 203.226 524.654 204.877 526.691 204.877Z" fill="black"/>
<path fill-rule="evenodd" clip-rule="evenodd" d="M526.691 212.252C528.728 212.252 530.379 210.601 530.379 208.565C530.379 206.528 528.728 204.877 526.691 204.877C524.654 204.877 523.003 206.528 523.003 208.565C523.003 210.601 524.654 212.252 526.691 212.252Z" fill="black"/>
<path fill-rule="evenodd" clip-rule="evenodd" d="M526.691 219.628C528.728 219.628 530.379 217.977 530.379 215.941C530.379 213.904 528.728 212.253 526.691 212.253C524.654 212.253 523.003 213.904 523.003 215.941C523.003 217.977 524.654 219.628 526.691 219.628Z" fill="black"/>
<path fill-rule="evenodd" clip-rule="evenodd" d="M526.691 227.003C528.728 227.003 530.379 225.352 530.379 223.316C530.379 221.279 528.728 219.628 526.691 219.628C524.654 219.628 523.003 221.279 523.003 223.316C523.003 225.352 524.654 227.003 526.691 227.003Z" fill="black"/>
<path fill-rule="evenodd" clip-rule="evenodd" d="M526.691 234.379C528.728 234.379 530.379 232.728 530.379 230.691C530.379 228.654 528.728 227.003 526.691 227.003C524.654 227.003 523.003 228.654 523.003 230.691C523.003 232.728 524.654 234.379 526.691 234.379Z" fill="black"/>
<circle cx="578.586" cy="141" r="7.5" transform="rotate(-45 578.586 141)" stroke="#01B463"/>
<path d="M583.889 135.697C586.699 138.507 586.813 142.992 584.231 145.938L573.648 135.355C576.594 132.773 581.079 132.887 583.889 135.697Z" fill="#01B463" stroke="#01B463"/>
<circle cx="580.586" cy="317.728" r="7.5" transform="rotate(-45 580.586 317.728)" stroke="#01B463"/>
<path d="M585.889 312.425C588.699 315.235 588.813 319.72 586.231 322.666L575.648 312.083C578.594 309.501 583.079 309.615 585.889 312.425Z" fill="#01B463" stroke="#01B463"/>
<path d="M313.856 53.35C317.09 53.35 319.358 52.062 320.17 49.794L317.286 49.178C316.866 50.494 315.732 51.194 313.968 51.194C311.728 51.194 310.328 49.962 310.328 48.03C310.328 46.084 311.7 44.866 313.94 44.866C315.732 44.866 316.88 45.594 317.258 46.966L320.198 46.448C319.54 44.11 317.202 42.71 313.968 42.71C310.048 42.71 307.346 44.908 307.346 48.072C307.346 51.278 309.866 53.35 313.856 53.35ZM324.48 42.85H321.778V53H324.48V42.85ZM331.454 53.266C334.73 53.266 336.886 51.782 336.886 49.5C336.886 47.218 334.73 45.734 331.454 45.734C328.192 45.734 326.036 47.218 326.036 49.5C326.036 51.782 328.192 53.266 331.454 53.266ZM331.454 51.544C329.886 51.544 328.836 50.746 328.836 49.5C328.836 48.254 329.886 47.456 331.454 47.456C333.036 47.456 334.072 48.254 334.072 49.5C334.072 50.746 333.036 51.544 331.454 51.544ZM340.846 53H343.912L347.986 46H345.032L342.792 50.144C342.61 50.48 342.526 50.662 342.414 50.942H342.344C342.232 50.662 342.148 50.48 341.966 50.144L339.726 46H336.772L340.846 53ZM358.313 49.696C358.313 47.218 356.409 45.734 353.105 45.734C349.955 45.734 347.911 47.134 347.911 49.528C347.911 51.88 349.885 53.266 353.175 53.266C355.429 53.266 357.067 52.608 358.047 51.432L355.975 50.536C355.457 51.18 354.449 51.572 353.287 51.572C351.705 51.572 350.725 51.026 350.515 50.088H358.313V49.696ZM350.501 48.688C350.669 47.778 351.607 47.19 353.091 47.19C354.561 47.19 355.597 47.806 355.625 48.688H350.501ZM362.204 48.072V46H359.838V53H362.54V50.732C362.54 49.906 362.764 49.192 363.282 48.716C363.688 48.31 364.332 48.072 365.2 48.072C365.606 48.072 365.942 48.114 366.32 48.184V45.888C366.026 45.846 365.816 45.818 365.396 45.818C363.772 45.818 362.596 46.7 362.204 48.072ZM371.839 53.266C374.905 53.266 376.333 52.37 376.333 50.774C376.333 49.5 375.507 48.856 373.449 48.688L370.369 48.45C369.669 48.394 369.389 48.24 369.389 47.904C369.389 47.484 369.963 47.302 371.195 47.302C373.001 47.302 374.149 47.596 375.101 48.268L376.179 46.994C375.073 46.14 373.491 45.734 371.433 45.734C368.437 45.734 366.911 46.504 366.911 48.044C366.911 49.332 367.849 50.018 369.879 50.2L372.903 50.452C373.617 50.508 373.841 50.662 373.841 51.012C373.841 51.474 373.337 51.67 372.091 51.67C369.921 51.67 368.619 51.208 367.709 50.382L366.407 51.614C367.541 52.706 369.291 53.266 371.839 53.266ZM383.11 47.932V50.298H396.76V47.932H383.11ZM409.133 53.35C411.653 53.35 413.053 52.328 413.669 51.292L413.795 53H415.965V47.456H409.581V49.206H413.333V49.248C413.249 50.354 412.003 51.362 409.847 51.362C407.579 51.362 406.263 50.06 406.263 48.114C406.263 46.07 407.565 44.768 409.819 44.768C411.513 44.768 412.549 45.496 412.913 46.476L415.979 45.972C415.377 43.956 413.039 42.71 409.903 42.71C405.829 42.71 403.295 45.02 403.295 48.142C403.295 51.152 405.479 53.35 409.133 53.35ZM420.899 53.266C422.831 53.266 424.189 52.706 424.735 51.712C424.735 52.132 424.777 52.664 424.833 53H427.535C427.451 52.44 427.409 51.796 427.409 50.816V48.898C427.409 46.812 425.967 45.734 422.691 45.734C419.863 45.734 417.875 46.77 417.595 48.394H420.479C420.633 47.694 421.431 47.288 422.691 47.288C423.923 47.288 424.679 47.694 424.679 48.464V48.632L421.039 48.842C419.583 48.926 418.827 49.136 418.295 49.458C417.707 49.822 417.399 50.382 417.399 51.054C417.399 52.482 418.673 53.266 420.899 53.266ZM421.921 51.754C420.815 51.754 420.199 51.46 420.199 50.886C420.199 50.34 420.633 50.088 421.907 49.99L424.707 49.794V50.032C424.707 51.082 423.573 51.754 421.921 51.754ZM431.945 48.072V46H429.579V53H432.281V50.732C432.281 49.906 432.505 49.192 433.023 48.716C433.429 48.31 434.073 48.072 434.941 48.072C435.347 48.072 435.683 48.114 436.061 48.184V45.888C435.767 45.846 435.557 45.818 435.137 45.818C433.513 45.818 432.337 46.7 431.945 48.072ZM440.915 53.266C442.623 53.266 443.897 52.664 444.653 51.628V53H447.285V42.85H444.583V47.036C443.757 46.168 442.623 45.734 441.027 45.734C438.339 45.734 436.519 47.246 436.519 49.458C436.519 51.726 438.339 53.266 440.915 53.266ZM441.937 51.53C440.341 51.53 439.333 50.732 439.333 49.472C439.333 48.226 440.299 47.442 441.881 47.442C443.505 47.442 444.639 48.24 444.639 49.402V49.57C444.639 50.732 443.505 51.53 441.937 51.53ZM459.239 49.696C459.239 47.218 457.335 45.734 454.031 45.734C450.881 45.734 448.837 47.134 448.837 49.528C448.837 51.88 450.811 53.266 454.101 53.266C456.355 53.266 457.993 52.608 458.973 51.432L456.901 50.536C456.383 51.18 455.375 51.572 454.213 51.572C452.631 51.572 451.651 51.026 451.441 50.088H459.239V49.696ZM451.427 48.688C451.595 47.778 452.533 47.19 454.017 47.19C455.487 47.19 456.523 47.806 456.551 48.688H451.427ZM460.764 53H463.466V50.116C463.466 48.548 464.404 47.666 466.042 47.666C467.61 47.666 468.352 48.464 468.352 50.088V53H471.054V49.682C471.054 47.092 469.682 45.734 467.134 45.734C465.37 45.734 464.068 46.392 463.41 47.624V46H460.764V53Z" fill="#01B463" fill-opacity="0.25"/>
<defs>
<filter id="filter0_d" x="0" y="0" width="796" height="554" filterUnits="userSpaceOnUse" color-interpolation-filters="sRGB">
<feFlood flood-opacity="0" result="BackgroundImageFix"/>
<feColorMatrix in="SourceAlpha" type="matrix" values="0 0 0 0 0 0 0 0 0 0 0 0 0 0 0 0 0 0 127 0"/>
<feOffset dy="4"/>
<feGaussianBlur stdDeviation="2"/>
<feColorMatrix type="matrix" values="0 0 0 0 0.00392157 0 0 0 0 0.705882 0 0 0 0 0.388235 0 0 0 1 0"/>
<feBlend mode="normal" in2="BackgroundImageFix" result="effect1_dropShadow"/>
<feBlend mode="normal" in="SourceGraphic" in2="effect1_dropShadow" result="shape"/>
</filter>
</defs>
</svg>
