<svg width="796" height="554" viewBox="0 0 796 554" fill="none" xmlns="http://www.w3.org/2000/svg">
<g filter="url(#filter0_d)">
<rect x="4" width="788" height="546" rx="8" fill="white"/>
<rect x="4.5" y="0.5" width="787" height="545" rx="7.5" stroke="#01B463"/>
</g>
<path d="M139.88 117.408C144.584 117.408 147.656 114 147.656 108.48C147.656 102.912 144.584 99.552 139.88 99.552C135.152 99.552 132.08 102.912 132.08 108.48C132.08 113.928 135.152 117.408 139.88 117.408ZM139.88 115.488C136.472 115.488 134.48 112.752 134.48 108.48C134.48 104.112 136.472 101.472 139.88 101.472C143.288 101.472 145.256 104.112 145.256 108.48C145.256 112.824 143.288 115.488 139.88 115.488ZM148.802 106.68H151.034V113.4C151.034 115.632 151.706 117.216 154.298 117.216C155.066 117.216 155.546 117.144 156.074 117V115.128C155.666 115.224 155.354 115.296 154.826 115.296C153.602 115.296 153.074 114.696 153.074 113.328V106.68H156.074V105H153.074V100.992L151.034 101.856V105H148.802V106.68ZM158.883 117H160.923V110.736C160.923 108.024 162.099 106.464 164.163 106.464C165.891 106.464 166.779 107.568 166.779 109.68V117H168.819V109.536C168.819 106.344 167.451 104.664 164.859 104.664C162.987 104.664 161.643 105.552 160.923 107.256V99.6H158.883V117ZM181.959 110.16C181.959 106.56 180.087 104.712 176.847 104.712C173.415 104.712 171.399 107.136 171.399 111.144C171.399 115.104 173.439 117.288 176.871 117.288C179.295 117.288 181.047 116.136 181.887 113.952L180.207 113.208C179.679 114.672 178.551 115.488 177.015 115.488C174.879 115.488 173.463 113.952 173.439 111.6H181.959V110.16ZM179.895 109.944H173.439C173.487 107.688 174.687 106.32 176.799 106.32C178.767 106.32 179.895 107.472 179.895 109.68V109.944ZM187.182 99.6H185.142V117H187.182V99.6ZM193.492 99.6H191.452V117H193.492V99.6ZM202.153 117.288C205.537 117.288 207.745 114.912 207.745 111C207.745 107.088 205.537 104.712 202.153 104.712C198.769 104.712 196.561 107.088 196.561 111C196.561 114.912 198.769 117.288 202.153 117.288ZM202.153 115.512C199.993 115.512 198.721 113.976 198.721 111C198.721 108.024 199.993 106.488 202.153 106.488C204.313 106.488 205.585 108.024 205.585 111C205.585 113.976 204.313 115.512 202.153 115.512Z" fill="#01B463"/>
<rect x="505.5" y="143.163" width="160.602" height="232.337" rx="7.5" fill="white" stroke="#01B463" stroke-dasharray="2 2"/>
<rect x="318.5" y="143.163" width="160.602" height="232.337" rx="7.5" fill="white" stroke="#01B463" stroke-dasharray="2 2"/>
<rect x="130.5" y="143.163" width="160.602" height="232.337" rx="7.5" fill="white" stroke="#01B463" stroke-dasharray="2 2"/>
<path fill-rule="evenodd" clip-rule="evenodd" d="M586 292.735C617.48 292.735 643 267.051 643 235.368C643 203.684 617.48 178 586 178C554.52 178 529 203.684 529 235.368C529 267.051 554.52 292.735 586 292.735Z" fill="#808080" stroke="#808080" stroke-width="0.984615"/>
<path fill-rule="evenodd" clip-rule="evenodd" d="M552.75 206.684C555.373 206.684 557.5 204.544 557.5 201.903C557.5 199.263 555.373 197.123 552.75 197.123C550.127 197.123 548 199.263 548 201.903C548 204.544 550.127 206.684 552.75 206.684Z" fill="black"/>
<path fill-rule="evenodd" clip-rule="evenodd" d="M552.75 216.245C555.373 216.245 557.5 214.105 557.5 211.464C557.5 208.824 555.373 206.684 552.75 206.684C550.127 206.684 548 208.824 548 211.464C548 214.105 550.127 216.245 552.75 216.245Z" fill="black"/>
<path fill-rule="evenodd" clip-rule="evenodd" d="M552.75 225.806C555.373 225.806 557.5 223.666 557.5 221.026C557.5 218.385 555.373 216.245 552.75 216.245C550.127 216.245 548 218.385 548 221.026C548 223.666 550.127 225.806 552.75 225.806Z" fill="black"/>
<path fill-rule="evenodd" clip-rule="evenodd" d="M552.75 235.368C555.373 235.368 557.5 233.227 557.5 230.587C557.5 227.947 555.373 225.806 552.75 225.806C550.127 225.806 548 227.947 548 230.587C548 233.227 550.127 235.368 552.75 235.368Z" fill="black"/>
<path fill-rule="evenodd" clip-rule="evenodd" d="M552.75 244.929C555.373 244.929 557.5 242.789 557.5 240.149C557.5 237.508 555.373 235.368 552.75 235.368C550.127 235.368 548 237.508 548 240.149C548 242.789 550.127 244.929 552.75 244.929Z" fill="black"/>
<path fill-rule="evenodd" clip-rule="evenodd" d="M552.75 254.49C555.373 254.49 557.5 252.35 557.5 249.71C557.5 247.07 555.373 244.929 552.75 244.929C550.127 244.929 548 247.07 548 249.71C548 252.35 550.127 254.49 552.75 254.49Z" fill="black"/>
<path fill-rule="evenodd" clip-rule="evenodd" d="M552.75 264.052C555.373 264.052 557.5 261.911 557.5 259.271C557.5 256.631 555.373 254.49 552.75 254.49C550.127 254.49 548 256.631 548 259.271C548 261.911 550.127 264.052 552.75 264.052Z" fill="black"/>
<path fill-rule="evenodd" clip-rule="evenodd" d="M552.75 273.613C555.373 273.613 557.5 271.472 557.5 268.832C557.5 266.192 555.373 264.052 552.75 264.052C550.127 264.052 548 266.192 548 268.832C548 271.472 550.127 273.613 552.75 273.613Z" fill="white"/>
<path fill-rule="evenodd" clip-rule="evenodd" d="M562.25 206.684C564.873 206.684 567 204.544 567 201.903C567 199.263 564.873 197.123 562.25 197.123C559.627 197.123 557.5 199.263 557.5 201.903C557.5 204.544 559.627 206.684 562.25 206.684Z" fill="black"/>
<path fill-rule="evenodd" clip-rule="evenodd" d="M562.25 216.245C564.873 216.245 567 214.105 567 211.464C567 208.824 564.873 206.684 562.25 206.684C559.627 206.684 557.5 208.824 557.5 211.464C557.5 214.105 559.627 216.245 562.25 216.245Z" fill="black"/>
<path fill-rule="evenodd" clip-rule="evenodd" d="M562.25 225.806C564.873 225.806 567 223.666 567 221.026C567 218.385 564.873 216.245 562.25 216.245C559.627 216.245 557.5 218.385 557.5 221.026C557.5 223.666 559.627 225.806 562.25 225.806Z" fill="white"/>
<path fill-rule="evenodd" clip-rule="evenodd" d="M562.25 235.368C564.873 235.368 567 233.227 567 230.587C567 227.947 564.873 225.806 562.25 225.806C559.627 225.806 557.5 227.947 557.5 230.587C557.5 233.227 559.627 235.368 562.25 235.368Z" fill="white"/>
<path fill-rule="evenodd" clip-rule="evenodd" d="M562.25 244.929C564.873 244.929 567 242.789 567 240.149C567 237.508 564.873 235.368 562.25 235.368C559.627 235.368 557.5 237.508 557.5 240.149C557.5 242.789 559.627 244.929 562.25 244.929Z" fill="white"/>
<path fill-rule="evenodd" clip-rule="evenodd" d="M562.25 254.49C564.873 254.49 567 252.35 567 249.71C567 247.07 564.873 244.929 562.25 244.929C559.627 244.929 557.5 247.07 557.5 249.71C557.5 252.35 559.627 254.49 562.25 254.49Z" fill="black"/>
<path fill-rule="evenodd" clip-rule="evenodd" d="M562.25 264.052C564.873 264.052 567 261.911 567 259.271C567 256.631 564.873 254.49 562.25 254.49C559.627 254.49 557.5 256.631 557.5 259.271C557.5 261.911 559.627 264.052 562.25 264.052Z" fill="white"/>
<path fill-rule="evenodd" clip-rule="evenodd" d="M562.25 273.613C564.873 273.613 567 271.472 567 268.832C567 266.192 564.873 264.052 562.25 264.052C559.627 264.052 557.5 266.192 557.5 268.832C557.5 271.472 559.627 273.613 562.25 273.613Z" fill="white"/>
<path fill-rule="evenodd" clip-rule="evenodd" d="M571.75 206.684C574.373 206.684 576.5 204.544 576.5 201.903C576.5 199.263 574.373 197.123 571.75 197.123C569.127 197.123 567 199.263 567 201.903C567 204.544 569.127 206.684 571.75 206.684Z" fill="black"/>
<path fill-rule="evenodd" clip-rule="evenodd" d="M571.75 216.245C574.373 216.245 576.5 214.105 576.5 211.464C576.5 208.824 574.373 206.684 571.75 206.684C569.127 206.684 567 208.824 567 211.464C567 214.105 569.127 216.245 571.75 216.245Z" fill="white"/>
<path fill-rule="evenodd" clip-rule="evenodd" d="M571.75 225.806C574.373 225.806 576.5 223.666 576.5 221.026C576.5 218.385 574.373 216.245 571.75 216.245C569.127 216.245 567 218.385 567 221.026C567 223.666 569.127 225.806 571.75 225.806Z" fill="black"/>
<path fill-rule="evenodd" clip-rule="evenodd" d="M571.75 235.368C574.373 235.368 576.5 233.227 576.5 230.587C576.5 227.947 574.373 225.806 571.75 225.806C569.127 225.806 567 227.947 567 230.587C567 233.227 569.127 235.368 571.75 235.368Z" fill="white"/>
<path fill-rule="evenodd" clip-rule="evenodd" d="M571.75 244.929C574.373 244.929 576.5 242.789 576.5 240.149C576.5 237.508 574.373 235.368 571.75 235.368C569.127 235.368 567 237.508 567 240.149C567 242.789 569.127 244.929 571.75 244.929Z" fill="black"/>
<path fill-rule="evenodd" clip-rule="evenodd" d="M571.75 254.49C574.373 254.49 576.5 252.35 576.5 249.71C576.5 247.07 574.373 244.929 571.75 244.929C569.127 244.929 567 247.07 567 249.71C567 252.35 569.127 254.49 571.75 254.49Z" fill="white"/>
<path fill-rule="evenodd" clip-rule="evenodd" d="M571.75 264.052C574.373 264.052 576.5 261.911 576.5 259.271C576.5 256.631 574.373 254.49 571.75 254.49C569.127 254.49 567 256.631 567 259.271C567 261.911 569.127 264.052 571.75 264.052Z" fill="black"/>
<path fill-rule="evenodd" clip-rule="evenodd" d="M571.75 273.613C574.373 273.613 576.5 271.472 576.5 268.832C576.5 266.192 574.373 264.052 571.75 264.052C569.127 264.052 567 266.192 567 268.832C567 271.472 569.127 273.613 571.75 273.613Z" fill="white"/>
<path fill-rule="evenodd" clip-rule="evenodd" d="M581.25 206.684C583.873 206.684 586 204.544 586 201.903C586 199.263 583.873 197.123 581.25 197.123C578.627 197.123 576.5 199.263 576.5 201.903C576.5 204.544 578.627 206.684 581.25 206.684Z" fill="black"/>
<path fill-rule="evenodd" clip-rule="evenodd" d="M581.25 216.245C583.873 216.245 586 214.105 586 211.464C586 208.824 583.873 206.684 581.25 206.684C578.627 206.684 576.5 208.824 576.5 211.464C576.5 214.105 578.627 216.245 581.25 216.245Z" fill="white"/>
<path fill-rule="evenodd" clip-rule="evenodd" d="M581.25 225.806C583.873 225.806 586 223.666 586 221.026C586 218.385 583.873 216.245 581.25 216.245C578.627 216.245 576.5 218.385 576.5 221.026C576.5 223.666 578.627 225.806 581.25 225.806Z" fill="white"/>
<path fill-rule="evenodd" clip-rule="evenodd" d="M581.25 235.368C583.873 235.368 586 233.227 586 230.587C586 227.947 583.873 225.806 581.25 225.806C578.627 225.806 576.5 227.947 576.5 230.587C576.5 233.227 578.627 235.368 581.25 235.368Z" fill="black"/>
<path fill-rule="evenodd" clip-rule="evenodd" d="M581.25 244.929C583.873 244.929 586 242.789 586 240.149C586 237.508 583.873 235.368 581.25 235.368C578.627 235.368 576.5 237.508 576.5 240.149C576.5 242.789 578.627 244.929 581.25 244.929Z" fill="white"/>
<path fill-rule="evenodd" clip-rule="evenodd" d="M581.25 254.49C583.873 254.49 586 252.35 586 249.71C586 247.07 583.873 244.929 581.25 244.929C578.627 244.929 576.5 247.07 576.5 249.71C576.5 252.35 578.627 254.49 581.25 254.49Z" fill="black"/>
<path fill-rule="evenodd" clip-rule="evenodd" d="M581.25 264.052C583.873 264.052 586 261.911 586 259.271C586 256.631 583.873 254.49 581.25 254.49C578.627 254.49 576.5 256.631 576.5 259.271C576.5 261.911 578.627 264.052 581.25 264.052Z" fill="black"/>
<path fill-rule="evenodd" clip-rule="evenodd" d="M581.25 273.613C583.873 273.613 586 271.472 586 268.832C586 266.192 583.873 264.052 581.25 264.052C578.627 264.052 576.5 266.192 576.5 268.832C576.5 271.472 578.627 273.613 581.25 273.613Z" fill="white"/>
<path fill-rule="evenodd" clip-rule="evenodd" d="M590.75 206.684C593.373 206.684 595.5 204.544 595.5 201.903C595.5 199.263 593.373 197.123 590.75 197.123C588.127 197.123 586 199.263 586 201.903C586 204.544 588.127 206.684 590.75 206.684Z" fill="black"/>
<path fill-rule="evenodd" clip-rule="evenodd" d="M590.75 216.245C593.373 216.245 595.5 214.105 595.5 211.464C595.5 208.824 593.373 206.684 590.75 206.684C588.127 206.684 586 208.824 586 211.464C586 214.105 588.127 216.245 590.75 216.245Z" fill="white"/>
<path fill-rule="evenodd" clip-rule="evenodd" d="M590.75 225.806C593.373 225.806 595.5 223.666 595.5 221.026C595.5 218.385 593.373 216.245 590.75 216.245C588.127 216.245 586 218.385 586 221.026C586 223.666 588.127 225.806 590.75 225.806Z" fill="black"/>
<path fill-rule="evenodd" clip-rule="evenodd" d="M590.75 235.368C593.373 235.368 595.5 233.227 595.5 230.587C595.5 227.947 593.373 225.806 590.75 225.806C588.127 225.806 586 227.947 586 230.587C586 233.227 588.127 235.368 590.75 235.368Z" fill="white"/>
<path fill-rule="evenodd" clip-rule="evenodd" d="M590.75 244.929C593.373 244.929 595.5 242.789 595.5 240.149C595.5 237.508 593.373 235.368 590.75 235.368C588.127 235.368 586 237.508 586 240.149C586 242.789 588.127 244.929 590.75 244.929Z" fill="black"/>
<path fill-rule="evenodd" clip-rule="evenodd" d="M590.75 254.49C593.373 254.49 595.5 252.35 595.5 249.71C595.5 247.07 593.373 244.929 590.75 244.929C588.127 244.929 586 247.07 586 249.71C586 252.35 588.127 254.49 590.75 254.49Z" fill="white"/>
<path fill-rule="evenodd" clip-rule="evenodd" d="M590.75 264.052C593.373 264.052 595.5 261.911 595.5 259.271C595.5 256.631 593.373 254.49 590.75 254.49C588.127 254.49 586 256.631 586 259.271C586 261.911 588.127 264.052 590.75 264.052Z" fill="black"/>
<path fill-rule="evenodd" clip-rule="evenodd" d="M590.75 273.613C593.373 273.613 595.5 271.472 595.5 268.832C595.5 266.192 593.373 264.052 590.75 264.052C588.127 264.052 586 266.192 586 268.832C586 271.472 588.127 273.613 590.75 273.613Z" fill="white"/>
<path fill-rule="evenodd" clip-rule="evenodd" d="M600.25 206.684C602.873 206.684 605 204.544 605 201.903C605 199.263 602.873 197.123 600.25 197.123C597.627 197.123 595.5 199.263 595.5 201.903C595.5 204.544 597.627 206.684 600.25 206.684Z" fill="black"/>
<path fill-rule="evenodd" clip-rule="evenodd" d="M600.25 216.245C602.873 216.245 605 214.105 605 211.464C605 208.824 602.873 206.684 600.25 206.684C597.627 206.684 595.5 208.824 595.5 211.464C595.5 214.105 597.627 216.245 600.25 216.245Z" fill="black"/>
<path fill-rule="evenodd" clip-rule="evenodd" d="M600.25 225.806C602.873 225.806 605 223.666 605 221.026C605 218.385 602.873 216.245 600.25 216.245C597.627 216.245 595.5 218.385 595.5 221.026C595.5 223.666 597.627 225.806 600.25 225.806Z" fill="white"/>
<path fill-rule="evenodd" clip-rule="evenodd" d="M600.25 235.368C602.873 235.368 605 233.227 605 230.587C605 227.947 602.873 225.806 600.25 225.806C597.627 225.806 595.5 227.947 595.5 230.587C595.5 233.227 597.627 235.368 600.25 235.368Z" fill="black"/>
<path fill-rule="evenodd" clip-rule="evenodd" d="M600.25 244.929C602.873 244.929 605 242.789 605 240.149C605 237.508 602.873 235.368 600.25 235.368C597.627 235.368 595.5 237.508 595.5 240.149C595.5 242.789 597.627 244.929 600.25 244.929Z" fill="white"/>
<path fill-rule="evenodd" clip-rule="evenodd" d="M600.25 254.49C602.873 254.49 605 252.35 605 249.71C605 247.07 602.873 244.929 600.25 244.929C597.627 244.929 595.5 247.07 595.5 249.71C595.5 252.35 597.627 254.49 600.25 254.49Z" fill="black"/>
<path fill-rule="evenodd" clip-rule="evenodd" d="M600.25 264.052C602.873 264.052 605 261.911 605 259.271C605 256.631 602.873 254.49 600.25 254.49C597.627 254.49 595.5 256.631 595.5 259.271C595.5 261.911 597.627 264.052 600.25 264.052Z" fill="black"/>
<path fill-rule="evenodd" clip-rule="evenodd" d="M600.25 273.613C602.873 273.613 605 271.472 605 268.832C605 266.192 602.873 264.052 600.25 264.052C597.627 264.052 595.5 266.192 595.5 268.832C595.5 271.472 597.627 273.613 600.25 273.613Z" fill="white"/>
<path fill-rule="evenodd" clip-rule="evenodd" d="M609.75 206.684C612.373 206.684 614.5 204.544 614.5 201.903C614.5 199.263 612.373 197.123 609.75 197.123C607.127 197.123 605 199.263 605 201.903C605 204.544 607.127 206.684 609.75 206.684Z" fill="black"/>
<path fill-rule="evenodd" clip-rule="evenodd" d="M609.75 216.245C612.373 216.245 614.5 214.105 614.5 211.464C614.5 208.824 612.373 206.684 609.75 206.684C607.127 206.684 605 208.824 605 211.464C605 214.105 607.127 216.245 609.75 216.245Z" fill="white"/>
<path fill-rule="evenodd" clip-rule="evenodd" d="M609.75 225.806C612.373 225.806 614.5 223.666 614.5 221.026C614.5 218.385 612.373 216.245 609.75 216.245C607.127 216.245 605 218.385 605 221.026C605 223.666 607.127 225.806 609.75 225.806Z" fill="black"/>
<path fill-rule="evenodd" clip-rule="evenodd" d="M609.75 235.368C612.373 235.368 614.5 233.227 614.5 230.587C614.5 227.947 612.373 225.806 609.75 225.806C607.127 225.806 605 227.947 605 230.587C605 233.227 607.127 235.368 609.75 235.368Z" fill="white"/>
<path fill-rule="evenodd" clip-rule="evenodd" d="M609.75 244.929C612.373 244.929 614.5 242.789 614.5 240.149C614.5 237.508 612.373 235.368 609.75 235.368C607.127 235.368 605 237.508 605 240.149C605 242.789 607.127 244.929 609.75 244.929Z" fill="black"/>
<path fill-rule="evenodd" clip-rule="evenodd" d="M609.75 254.49C612.373 254.49 614.5 252.35 614.5 249.71C614.5 247.07 612.373 244.929 609.75 244.929C607.127 244.929 605 247.07 605 249.71C605 252.35 607.127 254.49 609.75 254.49Z" fill="black"/>
<path fill-rule="evenodd" clip-rule="evenodd" d="M609.75 264.052C612.373 264.052 614.5 261.911 614.5 259.271C614.5 256.631 612.373 254.49 609.75 254.49C607.127 254.49 605 256.631 605 259.271C605 261.911 607.127 264.052 609.75 264.052Z" fill="black"/>
<path fill-rule="evenodd" clip-rule="evenodd" d="M609.75 273.613C612.373 273.613 614.5 271.472 614.5 268.832C614.5 266.192 612.373 264.052 609.75 264.052C607.127 264.052 605 266.192 605 268.832C605 271.472 607.127 273.613 609.75 273.613Z" fill="white"/>
<path fill-rule="evenodd" clip-rule="evenodd" d="M619.25 206.684C621.873 206.684 624 204.544 624 201.903C624 199.263 621.873 197.123 619.25 197.123C616.627 197.123 614.5 199.263 614.5 201.903C614.5 204.544 616.627 206.684 619.25 206.684Z" fill="white"/>
<path fill-rule="evenodd" clip-rule="evenodd" d="M619.25 216.245C621.873 216.245 624 214.105 624 211.464C624 208.824 621.873 206.684 619.25 206.684C616.627 206.684 614.5 208.824 614.5 211.464C614.5 214.105 616.627 216.245 619.25 216.245Z" fill="white"/>
<path fill-rule="evenodd" clip-rule="evenodd" d="M619.25 225.806C621.873 225.806 624 223.666 624 221.026C624 218.385 621.873 216.245 619.25 216.245C616.627 216.245 614.5 218.385 614.5 221.026C614.5 223.666 616.627 225.806 619.25 225.806Z" fill="white"/>
<path fill-rule="evenodd" clip-rule="evenodd" d="M619.25 235.368C621.873 235.368 624 233.227 624 230.587C624 227.947 621.873 225.806 619.25 225.806C616.627 225.806 614.5 227.947 614.5 230.587C614.5 233.227 616.627 235.368 619.25 235.368Z" fill="white"/>
<path fill-rule="evenodd" clip-rule="evenodd" d="M619.25 244.929C621.873 244.929 624 242.789 624 240.149C624 237.508 621.873 235.368 619.25 235.368C616.627 235.368 614.5 237.508 614.5 240.149C614.5 242.789 616.627 244.929 619.25 244.929Z" fill="white"/>
<path fill-rule="evenodd" clip-rule="evenodd" d="M619.25 254.49C621.873 254.49 624 252.35 624 249.71C624 247.07 621.873 244.929 619.25 244.929C616.627 244.929 614.5 247.07 614.5 249.71C614.5 252.35 616.627 254.49 619.25 254.49Z" fill="white"/>
<path fill-rule="evenodd" clip-rule="evenodd" d="M619.25 264.052C621.873 264.052 624 261.911 624 259.271C624 256.631 621.873 254.49 619.25 254.49C616.627 254.49 614.5 256.631 614.5 259.271C614.5 261.911 616.627 264.052 619.25 264.052Z" fill="white"/>
<path fill-rule="evenodd" clip-rule="evenodd" d="M619.25 273.613C621.873 273.613 624 271.472 624 268.832C624 266.192 621.873 264.052 619.25 264.052C616.627 264.052 614.5 266.192 614.5 268.832C614.5 271.472 616.627 273.613 619.25 273.613Z" fill="white"/>
<path fill-rule="evenodd" clip-rule="evenodd" d="M211 292C242.48 292 268 266.48 268 235C268 203.52 242.48 178 211 178C179.52 178 154 203.52 154 235C154 266.48 179.52 292 211 292Z" fill="black" stroke="black" stroke-width="0.984615"/>
<path fill-rule="evenodd" clip-rule="evenodd" d="M177.75 206.5C180.373 206.5 182.5 204.374 182.5 201.75C182.5 199.127 180.373 197 177.75 197C175.127 197 173 199.127 173 201.75C173 204.374 175.127 206.5 177.75 206.5Z" fill="white"/>
<path fill-rule="evenodd" clip-rule="evenodd" d="M187.25 225.5C189.873 225.5 192 223.373 192 220.75C192 218.126 189.873 216 187.25 216C184.627 216 182.5 218.126 182.5 220.75C182.5 223.373 184.627 225.5 187.25 225.5Z" fill="white"/>
<path fill-rule="evenodd" clip-rule="evenodd" d="M187.25 235C189.873 235 192 232.874 192 230.25C192 227.627 189.873 225.5 187.25 225.5C184.627 225.5 182.5 227.627 182.5 230.25C182.5 232.874 184.627 235 187.25 235Z" fill="white"/>
<path fill-rule="evenodd" clip-rule="evenodd" d="M187.25 244.5C189.873 244.5 192 242.373 192 239.75C192 237.127 189.873 235 187.25 235C184.627 235 182.5 237.127 182.5 239.75C182.5 242.373 184.627 244.5 187.25 244.5Z" fill="white"/>
<path fill-rule="evenodd" clip-rule="evenodd" d="M187.25 254C189.873 254 192 251.873 192 249.25C192 246.626 189.873 244.5 187.25 244.5C184.627 244.5 182.5 246.626 182.5 249.25C182.5 251.873 184.627 254 187.25 254Z" fill="white"/>
<path fill-rule="evenodd" clip-rule="evenodd" d="M187.25 273C189.873 273 192 270.873 192 268.25C192 265.627 189.873 263.5 187.25 263.5C184.627 263.5 182.5 265.627 182.5 268.25C182.5 270.873 184.627 273 187.25 273Z" fill="white"/>
<path fill-rule="evenodd" clip-rule="evenodd" d="M196.75 254C199.373 254 201.5 251.873 201.5 249.25C201.5 246.626 199.373 244.5 196.75 244.5C194.127 244.5 192 246.626 192 249.25C192 251.873 194.127 254 196.75 254Z" fill="white"/>
<path fill-rule="evenodd" clip-rule="evenodd" d="M196.75 273C199.373 273 201.5 270.873 201.5 268.25C201.5 265.627 199.373 263.5 196.75 263.5C194.127 263.5 192 265.627 192 268.25C192 270.873 194.127 273 196.75 273Z" fill="white"/>
<path fill-rule="evenodd" clip-rule="evenodd" d="M206.25 244.5C208.873 244.5 211 242.373 211 239.75C211 237.127 208.873 235 206.25 235C203.627 235 201.5 237.127 201.5 239.75C201.5 242.373 203.627 244.5 206.25 244.5Z" fill="white"/>
<path fill-rule="evenodd" clip-rule="evenodd" d="M206.25 254C208.873 254 211 251.873 211 249.25C211 246.626 208.873 244.5 206.25 244.5C203.627 244.5 201.5 246.626 201.5 249.25C201.5 251.873 203.627 254 206.25 254Z" fill="white"/>
<path fill-rule="evenodd" clip-rule="evenodd" d="M206.25 273C208.873 273 211 270.873 211 268.25C211 265.627 208.873 263.5 206.25 263.5C203.627 263.5 201.5 265.627 201.5 268.25C201.5 270.873 203.627 273 206.25 273Z" fill="white"/>
<path fill-rule="evenodd" clip-rule="evenodd" d="M215.75 273C218.373 273 220.5 270.873 220.5 268.25C220.5 265.627 218.373 263.5 215.75 263.5C213.127 263.5 211 265.627 211 268.25C211 270.873 213.127 273 215.75 273Z" fill="white"/>
<path fill-rule="evenodd" clip-rule="evenodd" d="M225.25 216C227.873 216 230 213.873 230 211.25C230 208.627 227.873 206.5 225.25 206.5C222.627 206.5 220.5 208.627 220.5 211.25C220.5 213.873 222.627 216 225.25 216Z" fill="white"/>
<path fill-rule="evenodd" clip-rule="evenodd" d="M225.25 273C227.873 273 230 270.873 230 268.25C230 265.627 227.873 263.5 225.25 263.5C222.627 263.5 220.5 265.627 220.5 268.25C220.5 270.873 222.627 273 225.25 273Z" fill="white"/>
<path fill-rule="evenodd" clip-rule="evenodd" d="M234.75 273C237.373 273 239.5 270.873 239.5 268.25C239.5 265.627 237.373 263.5 234.75 263.5C232.127 263.5 230 265.627 230 268.25C230 270.873 232.127 273 234.75 273Z" fill="white"/>
<path fill-rule="evenodd" clip-rule="evenodd" d="M244.25 216C246.873 216 249 213.873 249 211.25C249 208.627 246.873 206.5 244.25 206.5C241.627 206.5 239.5 208.627 239.5 211.25C239.5 213.873 241.627 216 244.25 216Z" fill="white"/>
<path fill-rule="evenodd" clip-rule="evenodd" d="M244.25 225.5C246.873 225.5 249 223.373 249 220.75C249 218.126 246.873 216 244.25 216C241.627 216 239.5 218.126 239.5 220.75C239.5 223.373 241.627 225.5 244.25 225.5Z" fill="white"/>
<path fill-rule="evenodd" clip-rule="evenodd" d="M244.25 235C246.873 235 249 232.874 249 230.25C249 227.627 246.873 225.5 244.25 225.5C241.627 225.5 239.5 227.627 239.5 230.25C239.5 232.874 241.627 235 244.25 235Z" fill="white"/>
<path fill-rule="evenodd" clip-rule="evenodd" d="M244.25 244.5C246.873 244.5 249 242.373 249 239.75C249 237.127 246.873 235 244.25 235C241.627 235 239.5 237.127 239.5 239.75C239.5 242.373 241.627 244.5 244.25 244.5Z" fill="white"/>
<path fill-rule="evenodd" clip-rule="evenodd" d="M244.25 254C246.873 254 249 251.873 249 249.25C249 246.626 246.873 244.5 244.25 244.5C241.627 244.5 239.5 246.626 239.5 249.25C239.5 251.873 241.627 254 244.25 254Z" fill="white"/>
<path fill-rule="evenodd" clip-rule="evenodd" d="M244.25 263.5C246.873 263.5 249 261.374 249 258.75C249 256.127 246.873 254 244.25 254C241.627 254 239.5 256.127 239.5 258.75C239.5 261.374 241.627 263.5 244.25 263.5Z" fill="white"/>
<path fill-rule="evenodd" clip-rule="evenodd" d="M244.25 273C246.873 273 249 270.873 249 268.25C249 265.627 246.873 263.5 244.25 263.5C241.627 263.5 239.5 265.627 239.5 268.25C239.5 270.873 241.627 273 244.25 273Z" fill="white"/>
<path fill-rule="evenodd" clip-rule="evenodd" d="M399 292.735C430.48 292.735 456 267.051 456 235.368C456 203.684 430.48 178 399 178C367.52 178 342 203.684 342 235.368C342 267.051 367.52 292.735 399 292.735Z" fill="white" stroke="black" stroke-width="0.984615"/>
<path fill-rule="evenodd" clip-rule="evenodd" d="M365.75 264.052C368.373 264.052 370.5 261.911 370.5 259.271C370.5 256.631 368.373 254.49 365.75 254.49C363.127 254.49 361 256.631 361 259.271C361 261.911 363.127 264.052 365.75 264.052Z" fill="black"/>
<path fill-rule="evenodd" clip-rule="evenodd" d="M384.75 225.806C387.373 225.806 389.5 223.666 389.5 221.026C389.5 218.385 387.373 216.245 384.75 216.245C382.127 216.245 380 218.385 380 221.026C380 223.666 382.127 225.806 384.75 225.806Z" fill="black"/>
<path fill-rule="evenodd" clip-rule="evenodd" d="M384.75 235.368C387.373 235.368 389.5 233.227 389.5 230.587C389.5 227.947 387.373 225.806 384.75 225.806C382.127 225.806 380 227.947 380 230.587C380 233.227 382.127 235.368 384.75 235.368Z" fill="black"/>
<path fill-rule="evenodd" clip-rule="evenodd" d="M384.75 244.929C387.373 244.929 389.5 242.789 389.5 240.149C389.5 237.508 387.373 235.368 384.75 235.368C382.127 235.368 380 237.508 380 240.149C380 242.789 382.127 244.929 384.75 244.929Z" fill="black"/>
<path fill-rule="evenodd" clip-rule="evenodd" d="M384.75 254.49C387.373 254.49 389.5 252.35 389.5 249.71C389.5 247.07 387.373 244.929 384.75 244.929C382.127 244.929 380 247.07 380 249.71C380 252.35 382.127 254.49 384.75 254.49Z" fill="black"/>
<path fill-rule="evenodd" clip-rule="evenodd" d="M394.25 225.806C396.873 225.806 399 223.666 399 221.026C399 218.385 396.873 216.245 394.25 216.245C391.627 216.245 389.5 218.385 389.5 221.026C389.5 223.666 391.627 225.806 394.25 225.806Z" fill="black"/>
<path fill-rule="evenodd" clip-rule="evenodd" d="M394.25 235.368C396.873 235.368 399 233.227 399 230.587C399 227.947 396.873 225.806 394.25 225.806C391.627 225.806 389.5 227.947 389.5 230.587C389.5 233.227 391.627 235.368 394.25 235.368Z" fill="black"/>
<path fill-rule="evenodd" clip-rule="evenodd" d="M394.25 264.052C396.873 264.052 399 261.911 399 259.271C399 256.631 396.873 254.49 394.25 254.49C391.627 254.49 389.5 256.631 389.5 259.271C389.5 261.911 391.627 264.052 394.25 264.052Z" fill="black"/>
<path fill-rule="evenodd" clip-rule="evenodd" d="M403.75 225.806C406.373 225.806 408.5 223.666 408.5 221.026C408.5 218.385 406.373 216.245 403.75 216.245C401.127 216.245 399 218.385 399 221.026C399 223.666 401.127 225.806 403.75 225.806Z" fill="black"/>
<path fill-rule="evenodd" clip-rule="evenodd" d="M403.75 254.49C406.373 254.49 408.5 252.35 408.5 249.71C408.5 247.07 406.373 244.929 403.75 244.929C401.127 244.929 399 247.07 399 249.71C399 252.35 401.127 254.49 403.75 254.49Z" fill="black"/>
<path fill-rule="evenodd" clip-rule="evenodd" d="M403.75 264.052C406.373 264.052 408.5 261.911 408.5 259.271C408.5 256.631 406.373 254.49 403.75 254.49C401.127 254.49 399 256.631 399 259.271C399 261.911 401.127 264.052 403.75 264.052Z" fill="black"/>
<path fill-rule="evenodd" clip-rule="evenodd" d="M413.25 225.806C415.873 225.806 418 223.666 418 221.026C418 218.385 415.873 216.245 413.25 216.245C410.627 216.245 408.5 218.385 408.5 221.026C408.5 223.666 410.627 225.806 413.25 225.806Z" fill="black"/>
<path fill-rule="evenodd" clip-rule="evenodd" d="M413.25 244.929C415.873 244.929 418 242.789 418 240.149C418 237.508 415.873 235.368 413.25 235.368C410.627 235.368 408.5 237.508 408.5 240.149C408.5 242.789 410.627 244.929 413.25 244.929Z" fill="black"/>
<path fill-rule="evenodd" clip-rule="evenodd" d="M413.25 254.49C415.873 254.49 418 252.35 418 249.71C418 247.07 415.873 244.929 413.25 244.929C410.627 244.929 408.5 247.07 408.5 249.71C408.5 252.35 410.627 254.49 413.25 254.49Z" fill="black"/>
<path fill-rule="evenodd" clip-rule="evenodd" d="M413.25 264.052C415.873 264.052 418 261.911 418 259.271C418 256.631 415.873 254.49 413.25 254.49C410.627 254.49 408.5 256.631 408.5 259.271C408.5 261.911 410.627 264.052 413.25 264.052Z" fill="black"/>
<path fill-rule="evenodd" clip-rule="evenodd" d="M422.75 206.684C425.373 206.684 427.5 204.544 427.5 201.903C427.5 199.263 425.373 197.123 422.75 197.123C420.127 197.123 418 199.263 418 201.903C418 204.544 420.127 206.684 422.75 206.684Z" fill="black"/>
<path fill-rule="evenodd" clip-rule="evenodd" d="M422.75 235.368C425.373 235.368 427.5 233.227 427.5 230.587C427.5 227.947 425.373 225.806 422.75 225.806C420.127 225.806 418 227.947 418 230.587C418 233.227 420.127 235.368 422.75 235.368Z" fill="black"/>
<path fill-rule="evenodd" clip-rule="evenodd" d="M422.75 244.929C425.373 244.929 427.5 242.789 427.5 240.149C427.5 237.508 425.373 235.368 422.75 235.368C420.127 235.368 418 237.508 418 240.149C418 242.789 420.127 244.929 422.75 244.929Z" fill="black"/>
<path fill-rule="evenodd" clip-rule="evenodd" d="M422.75 254.49C425.373 254.49 427.5 252.35 427.5 249.71C427.5 247.07 425.373 244.929 422.75 244.929C420.127 244.929 418 247.07 418 249.71C418 252.35 420.127 254.49 422.75 254.49Z" fill="black"/>
<path fill-rule="evenodd" clip-rule="evenodd" d="M422.75 264.052C425.373 264.052 427.5 261.911 427.5 259.271C427.5 256.631 425.373 254.49 422.75 254.49C420.127 254.49 418 256.631 418 259.271C418 261.911 420.127 264.052 422.75 264.052Z" fill="black"/>
<circle cx="15" cy="10" r="3.5" stroke="#01B463"/>
<circle cx="28" cy="10" r="3.5" stroke="#01B463"/>
<circle cx="41" cy="10" r="3.5" stroke="#01B463"/>
<line x1="4" y1="18.5" x2="791.001" y2="18.5" stroke="#01B463"/>
<path d="M317.862 53.35C321.096 53.35 323.364 52.062 324.176 49.794L321.292 49.178C320.872 50.494 319.738 51.194 317.974 51.194C315.734 51.194 314.334 49.962 314.334 48.03C314.334 46.084 315.706 44.866 317.946 44.866C319.738 44.866 320.886 45.594 321.264 46.966L324.204 46.448C323.546 44.11 321.208 42.71 317.974 42.71C314.054 42.71 311.352 44.908 311.352 48.072C311.352 51.278 313.872 53.35 317.862 53.35ZM328.485 42.85H325.783V53H328.485V42.85ZM335.46 53.266C338.736 53.266 340.892 51.782 340.892 49.5C340.892 47.218 338.736 45.734 335.46 45.734C332.198 45.734 330.042 47.218 330.042 49.5C330.042 51.782 332.198 53.266 335.46 53.266ZM335.46 51.544C333.892 51.544 332.842 50.746 332.842 49.5C332.842 48.254 333.892 47.456 335.46 47.456C337.042 47.456 338.078 48.254 338.078 49.5C338.078 50.746 337.042 51.544 335.46 51.544ZM344.852 53H347.918L351.992 46H349.038L346.798 50.144C346.616 50.48 346.532 50.662 346.42 50.942H346.35C346.238 50.662 346.154 50.48 345.972 50.144L343.732 46H340.778L344.852 53ZM362.319 49.696C362.319 47.218 360.415 45.734 357.111 45.734C353.961 45.734 351.917 47.134 351.917 49.528C351.917 51.88 353.891 53.266 357.181 53.266C359.435 53.266 361.073 52.608 362.053 51.432L359.981 50.536C359.463 51.18 358.455 51.572 357.293 51.572C355.711 51.572 354.731 51.026 354.521 50.088H362.319V49.696ZM354.507 48.688C354.675 47.778 355.613 47.19 357.097 47.19C358.567 47.19 359.603 47.806 359.631 48.688H354.507ZM366.21 48.072V46H363.844V53H366.546V50.732C366.546 49.906 366.77 49.192 367.288 48.716C367.694 48.31 368.338 48.072 369.206 48.072C369.612 48.072 369.948 48.114 370.326 48.184V45.888C370.032 45.846 369.822 45.818 369.402 45.818C367.778 45.818 366.602 46.7 366.21 48.072ZM375.844 53.266C378.91 53.266 380.338 52.37 380.338 50.774C380.338 49.5 379.512 48.856 377.454 48.688L374.374 48.45C373.674 48.394 373.394 48.24 373.394 47.904C373.394 47.484 373.968 47.302 375.2 47.302C377.006 47.302 378.154 47.596 379.106 48.268L380.184 46.994C379.078 46.14 377.496 45.734 375.438 45.734C372.442 45.734 370.916 46.504 370.916 48.044C370.916 49.332 371.854 50.018 373.884 50.2L376.908 50.452C377.622 50.508 377.846 50.662 377.846 51.012C377.846 51.474 377.342 51.67 376.096 51.67C373.926 51.67 372.624 51.208 371.714 50.382L370.412 51.614C371.546 52.706 373.296 53.266 375.844 53.266ZM387.116 47.932V50.298H400.766V47.932H387.116ZM415.043 43.06H408.295V53H411.123V49.85H414.987C417.549 49.85 419.201 48.492 419.201 46.364C419.201 44.306 417.647 43.06 415.043 43.06ZM414.343 47.946H411.123V44.964H414.357C415.547 44.964 416.219 45.482 416.219 46.434C416.219 47.4 415.519 47.946 414.343 47.946ZM422.935 48.072V46H420.569V53H423.271V50.732C423.271 49.906 423.495 49.192 424.013 48.716C424.419 48.31 425.063 48.072 425.931 48.072C426.337 48.072 426.673 48.114 427.051 48.184V45.888C426.757 45.846 426.547 45.818 426.127 45.818C424.503 45.818 423.327 46.7 422.935 48.072ZM432.927 53.266C436.203 53.266 438.359 51.782 438.359 49.5C438.359 47.218 436.203 45.734 432.927 45.734C429.665 45.734 427.509 47.218 427.509 49.5C427.509 51.782 429.665 53.266 432.927 53.266ZM432.927 51.544C431.359 51.544 430.309 50.746 430.309 49.5C430.309 48.254 431.359 47.456 432.927 47.456C434.509 47.456 435.545 48.254 435.545 49.5C435.545 50.746 434.509 51.544 432.927 51.544ZM446.463 46H443.397V45.762C443.397 44.866 443.817 44.544 444.951 44.544C445.483 44.544 445.917 44.572 446.463 44.684V42.878C445.959 42.78 445.315 42.71 444.713 42.71C441.997 42.71 440.681 43.69 440.681 45.734V46H438.539V47.694H440.681V53H443.397V47.694H446.463V46ZM447.751 44.964H450.607V42.822H447.751V44.964ZM447.835 53H450.537V46H447.835V53ZM455.607 42.85H452.905V53H455.607V42.85ZM467.565 49.696C467.565 47.218 465.661 45.734 462.357 45.734C459.207 45.734 457.163 47.134 457.163 49.528C457.163 51.88 459.137 53.266 462.427 53.266C464.681 53.266 466.319 52.608 467.299 51.432L465.227 50.536C464.709 51.18 463.701 51.572 462.539 51.572C460.957 51.572 459.977 51.026 459.767 50.088H467.565V49.696ZM459.753 48.688C459.921 47.778 460.859 47.19 462.343 47.19C463.813 47.19 464.849 47.806 464.877 48.688H459.753Z" fill="#01B463"/>
<defs>
<filter id="filter0_d" x="0" y="0" width="796" height="554" filterUnits="userSpaceOnUse" color-interpolation-filters="sRGB">
<feFlood flood-opacity="0" result="BackgroundImageFix"/>
<feColorMatrix in="SourceAlpha" type="matrix" values="0 0 0 0 0 0 0 0 0 0 0 0 0 0 0 0 0 0 127 0"/>
<feOffset dy="4"/>
<feGaussianBlur stdDeviation="2"/>
<feColorMatrix type="matrix" values="0 0 0 0 0.00392157 0 0 0 0 0.705882 0 0 0 0 0.388235 0 0 0 1 0"/>
<feBlend mode="normal" in2="BackgroundImageFix" result="effect1_dropShadow"/>
<feBlend mode="normal" in="SourceGraphic" in2="effect1_dropShadow" result="shape"/>
</filter>
</defs>
</svg>
