<svg width="1230" height="750" viewBox="0 0 1230 750" fill="none" xmlns="http://www.w3.org/2000/svg">
<path fill-rule="evenodd" clip-rule="evenodd" d="M374.596 674C340.025 674 312 702.206 312 737C312 771.794 340.025 800 374.596 800C409.167 800 437.192 771.794 437.192 737C437.192 702.206 409.167 674 374.596 674Z" fill="black" stroke="black" stroke-width="0.984615"/>
<path fill-rule="evenodd" clip-rule="evenodd" d="M379.813 726.5C376.932 726.5 374.596 728.851 374.596 731.75C374.596 734.649 376.932 737 379.813 737C382.693 737 385.029 734.649 385.029 731.75C385.029 728.851 382.693 726.5 379.813 726.5Z" fill="white"/>
<path fill-rule="evenodd" clip-rule="evenodd" d="M369.38 737C366.499 737 364.163 739.351 364.163 742.25C364.163 745.149 366.499 747.5 369.38 747.5C372.261 747.5 374.596 745.149 374.596 742.25C374.596 739.351 372.261 737 369.38 737Z" fill="white"/>
<path fill-rule="evenodd" clip-rule="evenodd" d="M369.38 716C366.499 716 364.163 718.351 364.163 721.25C364.163 724.149 366.499 726.5 369.38 726.5C372.261 726.5 374.596 724.149 374.596 721.25C374.596 718.351 372.261 716 369.38 716Z" fill="white"/>
<path fill-rule="evenodd" clip-rule="evenodd" d="M358.947 726.5C356.066 726.5 353.731 728.851 353.731 731.75C353.731 734.649 356.066 737 358.947 737C361.828 737 364.163 734.649 364.163 731.75C364.163 728.851 361.828 726.5 358.947 726.5Z" fill="white"/>
<path fill-rule="evenodd" clip-rule="evenodd" d="M113.596 711C148.167 711 176.192 682.794 176.192 648C176.192 613.206 148.167 585 113.596 585C79.0253 585 51 613.206 51 648C51 682.794 79.0253 711 113.596 711Z" fill="white" stroke="black" stroke-width="0.984615"/>
<path fill-rule="evenodd" clip-rule="evenodd" d="M77.0817 679.5C79.9626 679.5 82.2981 677.149 82.2981 674.25C82.2981 671.351 79.9626 669 77.0817 669C74.2008 669 71.8654 671.351 71.8654 674.25C71.8654 677.149 74.2008 679.5 77.0817 679.5Z" fill="black"/>
<path fill-rule="evenodd" clip-rule="evenodd" d="M97.9471 637.5C100.828 637.5 103.163 635.149 103.163 632.25C103.163 629.351 100.828 627 97.9471 627C95.0662 627 92.7308 629.351 92.7308 632.25C92.7308 635.149 95.0662 637.5 97.9471 637.5Z" fill="black"/>
<path fill-rule="evenodd" clip-rule="evenodd" d="M97.9471 648C100.828 648 103.163 645.649 103.163 642.75C103.163 639.851 100.828 637.5 97.9471 637.5C95.0662 637.5 92.7308 639.851 92.7308 642.75C92.7308 645.649 95.0662 648 97.9471 648Z" fill="black"/>
<path fill-rule="evenodd" clip-rule="evenodd" d="M97.9471 658.5C100.828 658.5 103.163 656.149 103.163 653.25C103.163 650.351 100.828 648 97.9471 648C95.0662 648 92.7308 650.351 92.7308 653.25C92.7308 656.149 95.0662 658.5 97.9471 658.5Z" fill="black"/>
<path fill-rule="evenodd" clip-rule="evenodd" d="M97.9471 669C100.828 669 103.163 666.649 103.163 663.75C103.163 660.851 100.828 658.5 97.9471 658.5C95.0662 658.5 92.7308 660.851 92.7308 663.75C92.7308 666.649 95.0662 669 97.9471 669Z" fill="black"/>
<path fill-rule="evenodd" clip-rule="evenodd" d="M108.38 637.5C111.261 637.5 113.596 635.149 113.596 632.25C113.596 629.351 111.261 627 108.38 627C105.499 627 103.163 629.351 103.163 632.25C103.163 635.149 105.499 637.5 108.38 637.5Z" fill="black"/>
<path fill-rule="evenodd" clip-rule="evenodd" d="M108.38 648C111.261 648 113.596 645.649 113.596 642.75C113.596 639.851 111.261 637.5 108.38 637.5C105.499 637.5 103.163 639.851 103.163 642.75C103.163 645.649 105.499 648 108.38 648Z" fill="black"/>
<path fill-rule="evenodd" clip-rule="evenodd" d="M108.38 679.5C111.261 679.5 113.596 677.149 113.596 674.25C113.596 671.351 111.261 669 108.38 669C105.499 669 103.163 671.351 103.163 674.25C103.163 677.149 105.499 679.5 108.38 679.5Z" fill="black"/>
<path fill-rule="evenodd" clip-rule="evenodd" d="M118.813 637.5C121.693 637.5 124.029 635.149 124.029 632.25C124.029 629.351 121.693 627 118.813 627C115.932 627 113.596 629.351 113.596 632.25C113.596 635.149 115.932 637.5 118.813 637.5Z" fill="black"/>
<path fill-rule="evenodd" clip-rule="evenodd" d="M118.813 669C121.693 669 124.029 666.649 124.029 663.75C124.029 660.851 121.693 658.5 118.813 658.5C115.932 658.5 113.596 660.851 113.596 663.75C113.596 666.649 115.932 669 118.813 669Z" fill="black"/>
<path fill-rule="evenodd" clip-rule="evenodd" d="M118.813 679.5C121.693 679.5 124.029 677.149 124.029 674.25C124.029 671.351 121.693 669 118.813 669C115.932 669 113.596 671.351 113.596 674.25C113.596 677.149 115.932 679.5 118.813 679.5Z" fill="black"/>
<path fill-rule="evenodd" clip-rule="evenodd" d="M129.245 637.5C132.126 637.5 134.462 635.149 134.462 632.25C134.462 629.351 132.126 627 129.245 627C126.364 627 124.029 629.351 124.029 632.25C124.029 635.149 126.364 637.5 129.245 637.5Z" fill="black"/>
<path fill-rule="evenodd" clip-rule="evenodd" d="M129.245 658.5C132.126 658.5 134.462 656.149 134.462 653.25C134.462 650.351 132.126 648 129.245 648C126.364 648 124.029 650.351 124.029 653.25C124.029 656.149 126.364 658.5 129.245 658.5Z" fill="black"/>
<path fill-rule="evenodd" clip-rule="evenodd" d="M129.245 669C132.126 669 134.462 666.649 134.462 663.75C134.462 660.851 132.126 658.5 129.245 658.5C126.364 658.5 124.029 660.851 124.029 663.75C124.029 666.649 126.364 669 129.245 669Z" fill="black"/>
<path fill-rule="evenodd" clip-rule="evenodd" d="M129.245 679.5C132.126 679.5 134.462 677.149 134.462 674.25C134.462 671.351 132.126 669 129.245 669C126.364 669 124.029 671.351 124.029 674.25C124.029 677.149 126.364 679.5 129.245 679.5Z" fill="black"/>
<path fill-rule="evenodd" clip-rule="evenodd" d="M139.678 616.5C142.559 616.5 144.894 614.149 144.894 611.25C144.894 608.351 142.559 606 139.678 606C136.797 606 134.462 608.351 134.462 611.25C134.462 614.149 136.797 616.5 139.678 616.5Z" fill="black"/>
<path fill-rule="evenodd" clip-rule="evenodd" d="M139.678 648C142.559 648 144.894 645.649 144.894 642.75C144.894 639.851 142.559 637.5 139.678 637.5C136.797 637.5 134.462 639.851 134.462 642.75C134.462 645.649 136.797 648 139.678 648Z" fill="black"/>
<path fill-rule="evenodd" clip-rule="evenodd" d="M139.678 658.5C142.559 658.5 144.894 656.149 144.894 653.25C144.894 650.351 142.559 648 139.678 648C136.797 648 134.462 650.351 134.462 653.25C134.462 656.149 136.797 658.5 139.678 658.5Z" fill="black"/>
<path fill-rule="evenodd" clip-rule="evenodd" d="M139.678 669C142.559 669 144.894 666.649 144.894 663.75C144.894 660.851 142.559 658.5 139.678 658.5C136.797 658.5 134.462 660.851 134.462 663.75C134.462 666.649 136.797 669 139.678 669Z" fill="black"/>
<path fill-rule="evenodd" clip-rule="evenodd" d="M139.678 679.5C142.559 679.5 144.894 677.149 144.894 674.25C144.894 671.351 142.559 669 139.678 669C136.797 669 134.462 671.351 134.462 674.25C134.462 677.149 136.797 679.5 139.678 679.5Z" fill="black"/>
<path fill-rule="evenodd" clip-rule="evenodd" d="M1075.6 836C1110.17 836 1138.19 807.794 1138.19 773C1138.19 738.206 1110.17 710 1075.6 710C1041.03 710 1013 738.206 1013 773C1013 807.794 1041.03 836 1075.6 836Z" fill="black" stroke="black" stroke-width="0.984615"/>
<path fill-rule="evenodd" clip-rule="evenodd" d="M1059.95 741.5C1062.83 741.5 1065.16 739.149 1065.16 736.25C1065.16 733.351 1062.83 731 1059.95 731C1057.07 731 1054.73 733.351 1054.73 736.25C1054.73 739.149 1057.07 741.5 1059.95 741.5Z" fill="white"/>
<path fill-rule="evenodd" clip-rule="evenodd" d="M1070.38 741.5C1073.26 741.5 1075.6 739.149 1075.6 736.25C1075.6 733.351 1073.26 731 1070.38 731C1067.5 731 1065.16 733.351 1065.16 736.25C1065.16 739.149 1067.5 741.5 1070.38 741.5Z" fill="white"/>
<path fill-rule="evenodd" clip-rule="evenodd" d="M1070.38 752C1073.26 752 1075.6 749.649 1075.6 746.75C1075.6 743.851 1073.26 741.5 1070.38 741.5C1067.5 741.5 1065.16 743.851 1065.16 746.75C1065.16 749.649 1067.5 752 1070.38 752Z" fill="white"/>
<path fill-rule="evenodd" clip-rule="evenodd" d="M1080.81 741.5C1083.69 741.5 1086.03 739.149 1086.03 736.25C1086.03 733.351 1083.69 731 1080.81 731C1077.93 731 1075.6 733.351 1075.6 736.25C1075.6 739.149 1077.93 741.5 1080.81 741.5Z" fill="white"/>
<path fill-rule="evenodd" clip-rule="evenodd" d="M1091.25 741.5C1094.13 741.5 1096.46 739.149 1096.46 736.25C1096.46 733.351 1094.13 731 1091.25 731C1088.36 731 1086.03 733.351 1086.03 736.25C1086.03 739.149 1088.36 741.5 1091.25 741.5Z" fill="white"/>
<path fill-rule="evenodd" clip-rule="evenodd" d="M1091.25 752C1094.13 752 1096.46 749.649 1096.46 746.75C1096.46 743.851 1094.13 741.5 1091.25 741.5C1088.36 741.5 1086.03 743.851 1086.03 746.75C1086.03 749.649 1088.36 752 1091.25 752Z" fill="white"/>
<path fill-rule="evenodd" clip-rule="evenodd" d="M1101.68 741.5C1104.56 741.5 1106.89 739.149 1106.89 736.25C1106.89 733.351 1104.56 731 1101.68 731C1098.8 731 1096.46 733.351 1096.46 736.25C1096.46 739.149 1098.8 741.5 1101.68 741.5Z" fill="white"/>
<path fill-rule="evenodd" clip-rule="evenodd" d="M1101.68 752C1104.56 752 1106.89 749.649 1106.89 746.75C1106.89 743.851 1104.56 741.5 1101.68 741.5C1098.8 741.5 1096.46 743.851 1096.46 746.75C1096.46 749.649 1098.8 752 1101.68 752Z" fill="white"/>
<path fill-rule="evenodd" clip-rule="evenodd" d="M1112.11 741.5C1114.99 741.5 1117.33 739.149 1117.33 736.25C1117.33 733.351 1114.99 731 1112.11 731C1109.23 731 1106.89 733.351 1106.89 736.25C1106.89 739.149 1109.23 741.5 1112.11 741.5Z" fill="white"/>
<path fill-rule="evenodd" clip-rule="evenodd" d="M1112.11 752C1114.99 752 1117.33 749.649 1117.33 746.75C1117.33 743.851 1114.99 741.5 1112.11 741.5C1109.23 741.5 1106.89 743.851 1106.89 746.75C1106.89 749.649 1109.23 752 1112.11 752Z" fill="white"/>
<path fill-rule="evenodd" clip-rule="evenodd" d="M912.596 65C947.167 65 975.192 36.7939 975.192 2C975.192 -32.7939 947.167 -61 912.596 -61C878.025 -61 850 -32.7939 850 2C850 36.7939 878.025 65 912.596 65Z" fill="black" stroke="black" stroke-width="0.984615"/>
<path fill-rule="evenodd" clip-rule="evenodd" d="M886.514 12.5C889.395 12.5 891.731 10.1495 891.731 7.25C891.731 4.35051 889.395 2 886.514 2C883.634 2 881.298 4.35051 881.298 7.25C881.298 10.1495 883.634 12.5 886.514 12.5Z" fill="white"/>
<path fill-rule="evenodd" clip-rule="evenodd" d="M886.514 23C889.395 23 891.731 20.6495 891.731 17.75C891.731 14.8505 889.395 12.5 886.514 12.5C883.634 12.5 881.298 14.8505 881.298 17.75C881.298 20.6495 883.634 23 886.514 23Z" fill="white"/>
<path fill-rule="evenodd" clip-rule="evenodd" d="M896.947 33.5C899.828 33.5 902.163 31.1495 902.163 28.25C902.163 25.3505 899.828 23 896.947 23C894.066 23 891.731 25.3505 891.731 28.25C891.731 31.1495 894.066 33.5 896.947 33.5Z" fill="white"/>
<path fill-rule="evenodd" clip-rule="evenodd" d="M907.38 33.5C910.261 33.5 912.596 31.1495 912.596 28.25C912.596 25.3505 910.261 23 907.38 23C904.499 23 902.163 25.3505 902.163 28.25C902.163 31.1495 904.499 33.5 907.38 33.5Z" fill="white"/>
<path fill-rule="evenodd" clip-rule="evenodd" d="M917.812 12.5C920.693 12.5 923.029 10.1495 923.029 7.25C923.029 4.35051 920.693 2 917.812 2C914.932 2 912.596 4.35051 912.596 7.25C912.596 10.1495 914.932 12.5 917.812 12.5Z" fill="white"/>
<path fill-rule="evenodd" clip-rule="evenodd" d="M928.245 12.5C931.126 12.5 933.462 10.1495 933.462 7.25C933.462 4.35051 931.126 2 928.245 2C925.364 2 923.029 4.35051 923.029 7.25C923.029 10.1495 925.364 12.5 928.245 12.5Z" fill="white"/>
<path fill-rule="evenodd" clip-rule="evenodd" d="M938.678 23C941.559 23 943.894 20.6495 943.894 17.75C943.894 14.8505 941.559 12.5 938.678 12.5C935.797 12.5 933.462 14.8505 933.462 17.75C933.462 20.6495 935.797 23 938.678 23Z" fill="white"/>
<path fill-rule="evenodd" clip-rule="evenodd" d="M938.678 33.5C941.559 33.5 943.894 31.1495 943.894 28.25C943.894 25.3505 941.559 23 938.678 23C935.797 23 933.462 25.3505 933.462 28.25C933.462 31.1495 935.797 33.5 938.678 33.5Z" fill="white"/>
<path fill-rule="evenodd" clip-rule="evenodd" d="M208.596 523C243.167 523 271.192 494.794 271.192 460C271.192 425.206 243.167 397 208.596 397C174.025 397 146 425.206 146 460C146 494.794 174.025 523 208.596 523Z" fill="black" stroke="black" stroke-width="0.984615"/>
<path fill-rule="evenodd" clip-rule="evenodd" d="M182.514 449.5C185.395 449.5 187.731 447.149 187.731 444.25C187.731 441.351 185.395 439 182.514 439C179.634 439 177.298 441.351 177.298 444.25C177.298 447.149 179.634 449.5 182.514 449.5Z" fill="white"/>
<path fill-rule="evenodd" clip-rule="evenodd" d="M182.514 460C185.395 460 187.731 457.649 187.731 454.75C187.731 451.851 185.395 449.5 182.514 449.5C179.634 449.5 177.298 451.851 177.298 454.75C177.298 457.649 179.634 460 182.514 460Z" fill="white"/>
<path fill-rule="evenodd" clip-rule="evenodd" d="M192.947 439C195.828 439 198.163 436.649 198.163 433.75C198.163 430.851 195.828 428.5 192.947 428.5C190.066 428.5 187.731 430.851 187.731 433.75C187.731 436.649 190.066 439 192.947 439Z" fill="white"/>
<path fill-rule="evenodd" clip-rule="evenodd" d="M203.38 439C206.261 439 208.596 436.649 208.596 433.75C208.596 430.851 206.261 428.5 203.38 428.5C200.499 428.5 198.163 430.851 198.163 433.75C198.163 436.649 200.499 439 203.38 439Z" fill="white"/>
<path fill-rule="evenodd" clip-rule="evenodd" d="M203.38 470.5C206.261 470.5 208.596 468.149 208.596 465.25C208.596 462.351 206.261 460 203.38 460C200.499 460 198.163 462.351 198.163 465.25C198.163 468.149 200.499 470.5 203.38 470.5Z" fill="white"/>
<path fill-rule="evenodd" clip-rule="evenodd" d="M203.38 481C206.261 481 208.596 478.649 208.596 475.75C208.596 472.851 206.261 470.5 203.38 470.5C200.499 470.5 198.163 472.851 198.163 475.75C198.163 478.649 200.499 481 203.38 481Z" fill="white"/>
<path fill-rule="evenodd" clip-rule="evenodd" d="M213.812 449.5C216.693 449.5 219.029 447.149 219.029 444.25C219.029 441.351 216.693 439 213.812 439C210.932 439 208.596 441.351 208.596 444.25C208.596 447.149 210.932 449.5 213.812 449.5Z" fill="white"/>
<path fill-rule="evenodd" clip-rule="evenodd" d="M213.812 460C216.693 460 219.029 457.649 219.029 454.75C219.029 451.851 216.693 449.5 213.812 449.5C210.932 449.5 208.596 451.851 208.596 454.75C208.596 457.649 210.932 460 213.812 460Z" fill="white"/>
<path fill-rule="evenodd" clip-rule="evenodd" d="M213.812 491.5C216.693 491.5 219.029 489.149 219.029 486.25C219.029 483.351 216.693 481 213.812 481C210.932 481 208.596 483.351 208.596 486.25C208.596 489.149 210.932 491.5 213.812 491.5Z" fill="white"/>
<path fill-rule="evenodd" clip-rule="evenodd" d="M224.245 491.5C227.126 491.5 229.462 489.149 229.462 486.25C229.462 483.351 227.126 481 224.245 481C221.364 481 219.029 483.351 219.029 486.25C219.029 489.149 221.364 491.5 224.245 491.5Z" fill="white"/>
<path fill-rule="evenodd" clip-rule="evenodd" d="M234.678 470.5C237.559 470.5 239.894 468.149 239.894 465.25C239.894 462.351 237.559 460 234.678 460C231.797 460 229.462 462.351 229.462 465.25C229.462 468.149 231.797 470.5 234.678 470.5Z" fill="white"/>
<path fill-rule="evenodd" clip-rule="evenodd" d="M234.678 481C237.559 481 239.894 478.649 239.894 475.75C239.894 472.851 237.559 470.5 234.678 470.5C231.797 470.5 229.462 472.851 229.462 475.75C229.462 478.649 231.797 481 234.678 481Z" fill="white"/>
<path fill-rule="evenodd" clip-rule="evenodd" d="M879.596 303C914.167 303 942.192 274.794 942.192 240C942.192 205.206 914.167 177 879.596 177C845.025 177 817 205.206 817 240C817 274.794 845.025 303 879.596 303Z" fill="white" stroke="black" stroke-width="0.984615"/>
<path fill-rule="evenodd" clip-rule="evenodd" d="M863.947 250.5C866.828 250.5 869.163 248.149 869.163 245.25C869.163 242.351 866.828 240 863.947 240C861.066 240 858.731 242.351 858.731 245.25C858.731 248.149 861.066 250.5 863.947 250.5Z" fill="black"/>
<path fill-rule="evenodd" clip-rule="evenodd" d="M905.678 271.5C908.559 271.5 910.894 269.149 910.894 266.25C910.894 263.351 908.559 261 905.678 261C902.797 261 900.462 263.351 900.462 266.25C900.462 269.149 902.797 271.5 905.678 271.5Z" fill="#01B463"/>
<path fill-rule="evenodd" clip-rule="evenodd" d="M1112.6 210C1147.17 210 1175.19 181.794 1175.19 147C1175.19 112.206 1147.17 84 1112.6 84C1078.03 84 1050 112.206 1050 147C1050 181.794 1078.03 210 1112.6 210Z" fill="white" stroke="black" stroke-width="0.984615"/>
<path fill-rule="evenodd" clip-rule="evenodd" d="M1086.51 147C1089.4 147 1091.73 144.649 1091.73 141.75C1091.73 138.851 1089.4 136.5 1086.51 136.5C1083.63 136.5 1081.3 138.851 1081.3 141.75C1081.3 144.649 1083.63 147 1086.51 147Z" fill="black"/>
<path fill-rule="evenodd" clip-rule="evenodd" d="M1086.51 157.5C1089.4 157.5 1091.73 155.149 1091.73 152.25C1091.73 149.351 1089.4 147 1086.51 147C1083.63 147 1081.3 149.351 1081.3 152.25C1081.3 155.149 1083.63 157.5 1086.51 157.5Z" fill="black"/>
<path fill-rule="evenodd" clip-rule="evenodd" d="M1086.51 168C1089.4 168 1091.73 165.649 1091.73 162.75C1091.73 159.851 1089.4 157.5 1086.51 157.5C1083.63 157.5 1081.3 159.851 1081.3 162.75C1081.3 165.649 1083.63 168 1086.51 168Z" fill="black"/>
<path fill-rule="evenodd" clip-rule="evenodd" d="M1096.95 136.5C1099.83 136.5 1102.16 134.149 1102.16 131.25C1102.16 128.351 1099.83 126 1096.95 126C1094.07 126 1091.73 128.351 1091.73 131.25C1091.73 134.149 1094.07 136.5 1096.95 136.5Z" fill="black"/>
<path fill-rule="evenodd" clip-rule="evenodd" d="M1096.95 157.5C1099.83 157.5 1102.16 155.149 1102.16 152.25C1102.16 149.351 1099.83 147 1096.95 147C1094.07 147 1091.73 149.351 1091.73 152.25C1091.73 155.149 1094.07 157.5 1096.95 157.5Z" fill="black"/>
<path fill-rule="evenodd" clip-rule="evenodd" d="M1096.95 178.5C1099.83 178.5 1102.16 176.149 1102.16 173.25C1102.16 170.351 1099.83 168 1096.95 168C1094.07 168 1091.73 170.351 1091.73 173.25C1091.73 176.149 1094.07 178.5 1096.95 178.5Z" fill="black"/>
<path fill-rule="evenodd" clip-rule="evenodd" d="M1107.38 136.5C1110.26 136.5 1112.6 134.149 1112.6 131.25C1112.6 128.351 1110.26 126 1107.38 126C1104.5 126 1102.16 128.351 1102.16 131.25C1102.16 134.149 1104.5 136.5 1107.38 136.5Z" fill="black"/>
<path fill-rule="evenodd" clip-rule="evenodd" d="M1107.38 147C1110.26 147 1112.6 144.649 1112.6 141.75C1112.6 138.851 1110.26 136.5 1107.38 136.5C1104.5 136.5 1102.16 138.851 1102.16 141.75C1102.16 144.649 1104.5 147 1107.38 147Z" fill="black"/>
<path fill-rule="evenodd" clip-rule="evenodd" d="M1107.38 168C1110.26 168 1112.6 165.649 1112.6 162.75C1112.6 159.851 1110.26 157.5 1107.38 157.5C1104.5 157.5 1102.16 159.851 1102.16 162.75C1102.16 165.649 1104.5 168 1107.38 168Z" fill="black"/>
<path fill-rule="evenodd" clip-rule="evenodd" d="M1107.38 178.5C1110.26 178.5 1112.6 176.149 1112.6 173.25C1112.6 170.351 1110.26 168 1107.38 168C1104.5 168 1102.16 170.351 1102.16 173.25C1102.16 176.149 1104.5 178.5 1107.38 178.5Z" fill="black"/>
<path fill-rule="evenodd" clip-rule="evenodd" d="M1117.81 136.5C1120.69 136.5 1123.03 134.149 1123.03 131.25C1123.03 128.351 1120.69 126 1117.81 126C1114.93 126 1112.6 128.351 1112.6 131.25C1112.6 134.149 1114.93 136.5 1117.81 136.5Z" fill="black"/>
<path fill-rule="evenodd" clip-rule="evenodd" d="M1117.81 157.5C1120.69 157.5 1123.03 155.149 1123.03 152.25C1123.03 149.351 1120.69 147 1117.81 147C1114.93 147 1112.6 149.351 1112.6 152.25C1112.6 155.149 1114.93 157.5 1117.81 157.5Z" fill="black"/>
<path fill-rule="evenodd" clip-rule="evenodd" d="M1117.81 178.5C1120.69 178.5 1123.03 176.149 1123.03 173.25C1123.03 170.351 1120.69 168 1117.81 168C1114.93 168 1112.6 170.351 1112.6 173.25C1112.6 176.149 1114.93 178.5 1117.81 178.5Z" fill="black"/>
<path fill-rule="evenodd" clip-rule="evenodd" d="M1128.25 147C1131.13 147 1133.46 144.649 1133.46 141.75C1133.46 138.851 1131.13 136.5 1128.25 136.5C1125.36 136.5 1123.03 138.851 1123.03 141.75C1123.03 144.649 1125.36 147 1128.25 147Z" fill="black"/>
<path fill-rule="evenodd" clip-rule="evenodd" d="M1128.25 157.5C1131.13 157.5 1133.46 155.149 1133.46 152.25C1133.46 149.351 1131.13 147 1128.25 147C1125.36 147 1123.03 149.351 1123.03 152.25C1123.03 155.149 1125.36 157.5 1128.25 157.5Z" fill="black"/>
<path fill-rule="evenodd" clip-rule="evenodd" d="M1128.25 168C1131.13 168 1133.46 165.649 1133.46 162.75C1133.46 159.851 1131.13 157.5 1128.25 157.5C1125.36 157.5 1123.03 159.851 1123.03 162.75C1123.03 165.649 1125.36 168 1128.25 168Z" fill="black"/>
<path fill-rule="evenodd" clip-rule="evenodd" d="M1149.11 115.5C1151.99 115.5 1154.33 113.149 1154.33 110.25C1154.33 107.351 1151.99 105 1149.11 105C1146.23 105 1143.89 107.351 1143.89 110.25C1143.89 113.149 1146.23 115.5 1149.11 115.5Z" fill="#01B463"/>
<path fill-rule="evenodd" clip-rule="evenodd" d="M242.015 226.031C276.818 226.031 305.031 197.818 305.031 163.015C305.031 128.213 276.818 100 242.015 100C207.213 100 179 128.213 179 163.015C179 197.818 207.213 226.031 242.015 226.031Z" fill="white" stroke="black" stroke-width="0.984615"/>
<path fill-rule="evenodd" clip-rule="evenodd" d="M215.759 152.513C218.659 152.513 221.01 150.162 221.01 147.262C221.01 144.361 218.659 142.01 215.759 142.01C212.859 142.01 210.508 144.361 210.508 147.262C210.508 150.162 212.859 152.513 215.759 152.513Z" fill="black"/>
<path fill-rule="evenodd" clip-rule="evenodd" d="M236.764 152.513C239.664 152.513 242.015 150.162 242.015 147.262C242.015 144.361 239.664 142.01 236.764 142.01C233.864 142.01 231.513 144.361 231.513 147.262C231.513 150.162 233.864 152.513 236.764 152.513Z" fill="black"/>
<path fill-rule="evenodd" clip-rule="evenodd" d="M236.764 163.015C239.664 163.015 242.015 160.664 242.015 157.764C242.015 154.864 239.664 152.513 236.764 152.513C233.864 152.513 231.513 154.864 231.513 157.764C231.513 160.664 233.864 163.015 236.764 163.015Z" fill="black"/>
<path fill-rule="evenodd" clip-rule="evenodd" d="M236.764 173.518C239.664 173.518 242.015 171.167 242.015 168.267C242.015 165.366 239.664 163.015 236.764 163.015C233.864 163.015 231.513 165.366 231.513 168.267C231.513 171.167 233.864 173.518 236.764 173.518Z" fill="black"/>
<path fill-rule="evenodd" clip-rule="evenodd" d="M236.764 184.021C239.664 184.021 242.015 181.669 242.015 178.769C242.015 175.869 239.664 173.518 236.764 173.518C233.864 173.518 231.513 175.869 231.513 178.769C231.513 181.669 233.864 184.021 236.764 184.021Z" fill="black"/>
<path fill-rule="evenodd" clip-rule="evenodd" d="M236.764 194.523C239.664 194.523 242.015 192.172 242.015 189.272C242.015 186.372 239.664 184.021 236.764 184.021C233.864 184.021 231.513 186.372 231.513 189.272C231.513 192.172 233.864 194.523 236.764 194.523Z" fill="black"/>
<path fill-rule="evenodd" clip-rule="evenodd" d="M247.267 194.523C250.167 194.523 252.518 192.172 252.518 189.272C252.518 186.372 250.167 184.021 247.267 184.021C244.366 184.021 242.015 186.372 242.015 189.272C242.015 192.172 244.366 194.523 247.267 194.523Z" fill="black"/>
<path fill-rule="evenodd" clip-rule="evenodd" d="M257.769 194.523C260.669 194.523 263.021 192.172 263.021 189.272C263.021 186.372 260.669 184.021 257.769 184.021C254.869 184.021 252.518 186.372 252.518 189.272C252.518 192.172 254.869 194.523 257.769 194.523Z" fill="black"/>
<path fill-rule="evenodd" clip-rule="evenodd" d="M268.272 152.513C271.172 152.513 273.523 150.162 273.523 147.262C273.523 144.361 271.172 142.01 268.272 142.01C265.372 142.01 263.021 144.361 263.021 147.262C263.021 150.162 265.372 152.513 268.272 152.513Z" fill="black"/>
<path fill-rule="evenodd" clip-rule="evenodd" d="M268.272 163.015C271.172 163.015 273.523 160.664 273.523 157.764C273.523 154.864 271.172 152.513 268.272 152.513C265.372 152.513 263.021 154.864 263.021 157.764C263.021 160.664 265.372 163.015 268.272 163.015Z" fill="black"/>
<path fill-rule="evenodd" clip-rule="evenodd" d="M268.272 173.518C271.172 173.518 273.523 171.167 273.523 168.267C273.523 165.366 271.172 163.015 268.272 163.015C265.372 163.015 263.021 165.366 263.021 168.267C263.021 171.167 265.372 173.518 268.272 173.518Z" fill="black"/>
<path fill-rule="evenodd" clip-rule="evenodd" d="M268.272 184.021C271.172 184.021 273.523 181.669 273.523 178.769C273.523 175.869 271.172 173.518 268.272 173.518C265.372 173.518 263.021 175.869 263.021 178.769C263.021 181.669 265.372 184.021 268.272 184.021Z" fill="black"/>
<path fill-rule="evenodd" clip-rule="evenodd" d="M384.015 99.0308C418.818 99.0308 447.031 70.8178 447.031 36.0154C447.031 1.21295 418.818 -27 384.015 -27C349.213 -27 321 1.21295 321 36.0154C321 70.8178 349.213 99.0308 384.015 99.0308Z" fill="black" stroke="black" stroke-width="0.984615"/>
<path fill-rule="evenodd" clip-rule="evenodd" d="M347.256 57.0205C350.157 57.0205 352.508 54.6694 352.508 51.7692C352.508 48.869 350.157 46.518 347.256 46.518C344.356 46.518 342.005 48.869 342.005 51.7692C342.005 54.6694 344.356 57.0205 347.256 57.0205Z" fill="white"/>
<path fill-rule="evenodd" clip-rule="evenodd" d="M347.256 67.5231C350.157 67.5231 352.508 65.172 352.508 62.2718C352.508 59.3716 350.157 57.0205 347.256 57.0205C344.356 57.0205 342.005 59.3716 342.005 62.2718C342.005 65.172 344.356 67.5231 347.256 67.5231Z" fill="white"/>
<path fill-rule="evenodd" clip-rule="evenodd" d="M347.256 78.0256C350.157 78.0256 352.508 75.6746 352.508 72.7744C352.508 69.8742 350.157 67.5231 347.256 67.5231C344.356 67.5231 342.005 69.8742 342.005 72.7744C342.005 75.6746 344.356 78.0256 347.256 78.0256Z" fill="white"/>
<path fill-rule="evenodd" clip-rule="evenodd" d="M357.759 67.5231C360.659 67.5231 363.01 65.172 363.01 62.2718C363.01 59.3716 360.659 57.0205 357.759 57.0205C354.859 57.0205 352.508 59.3716 352.508 62.2718C352.508 65.172 354.859 67.5231 357.759 67.5231Z" fill="white"/>
<path fill-rule="evenodd" clip-rule="evenodd" d="M357.759 78.0256C360.659 78.0256 363.01 75.6746 363.01 72.7744C363.01 69.8742 360.659 67.5231 357.759 67.5231C354.859 67.5231 352.508 69.8742 352.508 72.7744C352.508 75.6746 354.859 78.0256 357.759 78.0256Z" fill="white"/>
<path fill-rule="evenodd" clip-rule="evenodd" d="M368.262 57.0205C371.162 57.0205 373.513 54.6694 373.513 51.7692C373.513 48.869 371.162 46.518 368.262 46.518C365.361 46.518 363.01 48.869 363.01 51.7692C363.01 54.6694 365.361 57.0205 368.262 57.0205Z" fill="white"/>
<path fill-rule="evenodd" clip-rule="evenodd" d="M368.262 78.0256C371.162 78.0256 373.513 75.6746 373.513 72.7744C373.513 69.8742 371.162 67.5231 368.262 67.5231C365.361 67.5231 363.01 69.8742 363.01 72.7744C363.01 75.6746 365.361 78.0256 368.262 78.0256Z" fill="white"/>
<path fill-rule="evenodd" clip-rule="evenodd" d="M378.764 25.5128C381.664 25.5128 384.015 23.1617 384.015 20.2615C384.015 17.3613 381.664 15.0103 378.764 15.0103C375.864 15.0103 373.513 17.3613 373.513 20.2615C373.513 23.1617 375.864 25.5128 378.764 25.5128Z" fill="white"/>
<path fill-rule="evenodd" clip-rule="evenodd" d="M378.764 46.5179C381.664 46.5179 384.015 44.1669 384.015 41.2667C384.015 38.3665 381.664 36.0154 378.764 36.0154C375.864 36.0154 373.513 38.3665 373.513 41.2667C373.513 44.1669 375.864 46.5179 378.764 46.5179Z" fill="white"/>
<path fill-rule="evenodd" clip-rule="evenodd" d="M399.769 25.5128C402.669 25.5128 405.021 23.1617 405.021 20.2615C405.021 17.3613 402.669 15.0103 399.769 15.0103C396.869 15.0103 394.518 17.3613 394.518 20.2615C394.518 23.1617 396.869 25.5128 399.769 25.5128Z" fill="white"/>
<path fill-rule="evenodd" clip-rule="evenodd" d="M399.769 46.5179C402.669 46.5179 405.021 44.1669 405.021 41.2667C405.021 38.3665 402.669 36.0154 399.769 36.0154C396.869 36.0154 394.518 38.3665 394.518 41.2667C394.518 44.1669 396.869 46.5179 399.769 46.5179Z" fill="white"/>
<path fill-rule="evenodd" clip-rule="evenodd" d="M31.0154 403.031C65.8178 403.031 94.0308 374.818 94.0308 340.015C94.0308 305.213 65.8178 277 31.0154 277C-3.78705 277 -32 305.213 -32 340.015C-32 374.818 -3.78705 403.031 31.0154 403.031Z" fill="black" stroke="black" stroke-width="0.984615"/>
<path fill-rule="evenodd" clip-rule="evenodd" d="M4.75897 340.015C7.65918 340.015 10.0103 337.664 10.0103 334.764C10.0103 331.864 7.65918 329.513 4.75897 329.513C1.85877 329.513 -0.49231 331.864 -0.49231 334.764C-0.49231 337.664 1.85877 340.015 4.75897 340.015Z" fill="white"/>
<path fill-rule="evenodd" clip-rule="evenodd" d="M4.75897 350.518C7.65918 350.518 10.0103 348.167 10.0103 345.267C10.0103 342.366 7.65918 340.015 4.75897 340.015C1.85877 340.015 -0.49231 342.366 -0.49231 345.267C-0.49231 348.167 1.85877 350.518 4.75897 350.518Z" fill="white"/>
<path fill-rule="evenodd" clip-rule="evenodd" d="M4.75897 382.026C7.65918 382.026 10.0103 379.675 10.0103 376.774C10.0103 373.874 7.65918 371.523 4.75897 371.523C1.85877 371.523 -0.49231 373.874 -0.49231 376.774C-0.49231 379.675 1.85877 382.026 4.75897 382.026Z" fill="white"/>
<path fill-rule="evenodd" clip-rule="evenodd" d="M15.2615 329.513C18.1617 329.513 20.5128 327.162 20.5128 324.262C20.5128 321.361 18.1617 319.01 15.2615 319.01C12.3613 319.01 10.0103 321.361 10.0103 324.262C10.0103 327.162 12.3613 329.513 15.2615 329.513Z" fill="white"/>
<path fill-rule="evenodd" clip-rule="evenodd" d="M15.2615 340.015C18.1617 340.015 20.5128 337.664 20.5128 334.764C20.5128 331.864 18.1617 329.513 15.2615 329.513C12.3613 329.513 10.0103 331.864 10.0103 334.764C10.0103 337.664 12.3613 340.015 15.2615 340.015Z" fill="white"/>
<path fill-rule="evenodd" clip-rule="evenodd" d="M15.2615 382.026C18.1617 382.026 20.5128 379.675 20.5128 376.774C20.5128 373.874 18.1617 371.523 15.2615 371.523C12.3613 371.523 10.0103 373.874 10.0103 376.774C10.0103 379.675 12.3613 382.026 15.2615 382.026Z" fill="white"/>
<path fill-rule="evenodd" clip-rule="evenodd" d="M25.7641 319.01C28.6643 319.01 31.0154 316.659 31.0154 313.759C31.0154 310.859 28.6643 308.508 25.7641 308.508C22.8639 308.508 20.5128 310.859 20.5128 313.759C20.5128 316.659 22.8639 319.01 25.7641 319.01Z" fill="white"/>
<path fill-rule="evenodd" clip-rule="evenodd" d="M25.7641 329.513C28.6643 329.513 31.0154 327.162 31.0154 324.262C31.0154 321.361 28.6643 319.01 25.7641 319.01C22.8639 319.01 20.5128 321.361 20.5128 324.262C20.5128 327.162 22.8639 329.513 25.7641 329.513Z" fill="white"/>
<path fill-rule="evenodd" clip-rule="evenodd" d="M25.7641 361.021C28.6643 361.021 31.0154 358.669 31.0154 355.769C31.0154 352.869 28.6643 350.518 25.7641 350.518C22.8639 350.518 20.5128 352.869 20.5128 355.769C20.5128 358.669 22.8639 361.021 25.7641 361.021Z" fill="white"/>
<path fill-rule="evenodd" clip-rule="evenodd" d="M25.7641 382.026C28.6643 382.026 31.0154 379.675 31.0154 376.774C31.0154 373.874 28.6643 371.523 25.7641 371.523C22.8639 371.523 20.5128 373.874 20.5128 376.774C20.5128 379.675 22.8639 382.026 25.7641 382.026Z" fill="white"/>
<path fill-rule="evenodd" clip-rule="evenodd" d="M36.2667 319.01C39.1669 319.01 41.5179 316.659 41.5179 313.759C41.5179 310.859 39.1669 308.508 36.2667 308.508C33.3665 308.508 31.0154 310.859 31.0154 313.759C31.0154 316.659 33.3665 319.01 36.2667 319.01Z" fill="white"/>
<path fill-rule="evenodd" clip-rule="evenodd" d="M36.2667 382.026C39.1669 382.026 41.5179 379.675 41.5179 376.774C41.5179 373.874 39.1669 371.523 36.2667 371.523C33.3665 371.523 31.0154 373.874 31.0154 376.774C31.0154 379.675 33.3665 382.026 36.2667 382.026Z" fill="white"/>
<path fill-rule="evenodd" clip-rule="evenodd" d="M46.7692 329.513C49.6694 329.513 52.0205 327.162 52.0205 324.262C52.0205 321.361 49.6694 319.01 46.7692 319.01C43.869 319.01 41.5179 321.361 41.5179 324.262C41.5179 327.162 43.869 329.513 46.7692 329.513Z" fill="white"/>
<path fill-rule="evenodd" clip-rule="evenodd" d="M46.7692 340.015C49.6694 340.015 52.0205 337.664 52.0205 334.764C52.0205 331.864 49.6694 329.513 46.7692 329.513C43.869 329.513 41.5179 331.864 41.5179 334.764C41.5179 337.664 43.869 340.015 46.7692 340.015Z" fill="white"/>
<path fill-rule="evenodd" clip-rule="evenodd" d="M46.7692 382.026C49.6694 382.026 52.0205 379.675 52.0205 376.774C52.0205 373.874 49.6694 371.523 46.7692 371.523C43.869 371.523 41.5179 373.874 41.5179 376.774C41.5179 379.675 43.869 382.026 46.7692 382.026Z" fill="white"/>
<path fill-rule="evenodd" clip-rule="evenodd" d="M57.2718 340.015C60.172 340.015 62.5231 337.664 62.5231 334.764C62.5231 331.864 60.172 329.513 57.2718 329.513C54.3716 329.513 52.0205 331.864 52.0205 334.764C52.0205 337.664 54.3716 340.015 57.2718 340.015Z" fill="white"/>
<path fill-rule="evenodd" clip-rule="evenodd" d="M57.2718 350.518C60.172 350.518 62.5231 348.167 62.5231 345.267C62.5231 342.366 60.172 340.015 57.2718 340.015C54.3716 340.015 52.0205 342.366 52.0205 345.267C52.0205 348.167 54.3716 350.518 57.2718 350.518Z" fill="white"/>
<path fill-rule="evenodd" clip-rule="evenodd" d="M57.2718 361.021C60.172 361.021 62.5231 358.669 62.5231 355.769C62.5231 352.869 60.172 350.518 57.2718 350.518C54.3716 350.518 52.0205 352.869 52.0205 355.769C52.0205 358.669 54.3716 361.021 57.2718 361.021Z" fill="white"/>
<path fill-rule="evenodd" clip-rule="evenodd" d="M57.2718 371.523C60.172 371.523 62.5231 369.172 62.5231 366.272C62.5231 363.372 60.172 361.021 57.2718 361.021C54.3716 361.021 52.0205 363.372 52.0205 366.272C52.0205 369.172 54.3716 371.523 57.2718 371.523Z" fill="white"/>
<path fill-rule="evenodd" clip-rule="evenodd" d="M57.2718 382.026C60.172 382.026 62.5231 379.675 62.5231 376.774C62.5231 373.874 60.172 371.523 57.2718 371.523C54.3716 371.523 52.0205 373.874 52.0205 376.774C52.0205 379.675 54.3716 382.026 57.2718 382.026Z" fill="white"/>
<path fill-rule="evenodd" clip-rule="evenodd" d="M67.7744 308.508C70.6746 308.508 73.0256 306.157 73.0256 303.256C73.0256 300.356 70.6746 298.005 67.7744 298.005C64.8742 298.005 62.5231 300.356 62.5231 303.256C62.5231 306.157 64.8742 308.508 67.7744 308.508Z" fill="white"/>
<path fill-rule="evenodd" clip-rule="evenodd" d="M67.7744 350.518C70.6746 350.518 73.0256 348.167 73.0256 345.267C73.0256 342.366 70.6746 340.015 67.7744 340.015C64.8742 340.015 62.5231 342.366 62.5231 345.267C62.5231 348.167 64.8742 350.518 67.7744 350.518Z" fill="white"/>
<path fill-rule="evenodd" clip-rule="evenodd" d="M67.7744 361.021C70.6746 361.021 73.0256 358.669 73.0256 355.769C73.0256 352.869 70.6746 350.518 67.7744 350.518C64.8742 350.518 62.5231 352.869 62.5231 355.769C62.5231 358.669 64.8742 361.021 67.7744 361.021Z" fill="white"/>
<path fill-rule="evenodd" clip-rule="evenodd" d="M67.7744 371.523C70.6746 371.523 73.0256 369.172 73.0256 366.272C73.0256 363.372 70.6746 361.021 67.7744 361.021C64.8742 361.021 62.5231 363.372 62.5231 366.272C62.5231 369.172 64.8742 371.523 67.7744 371.523Z" fill="white"/>
<path fill-rule="evenodd" clip-rule="evenodd" d="M67.7744 382.026C70.6746 382.026 73.0256 379.675 73.0256 376.774C73.0256 373.874 70.6746 371.523 67.7744 371.523C64.8742 371.523 62.5231 373.874 62.5231 376.774C62.5231 379.675 64.8742 382.026 67.7744 382.026Z" fill="white"/>
<path fill-rule="evenodd" clip-rule="evenodd" d="M945.015 633.031C979.818 633.031 1008.03 604.818 1008.03 570.015C1008.03 535.213 979.818 507 945.015 507C910.213 507 882 535.213 882 570.015C882 604.818 910.213 633.031 945.015 633.031Z" fill="white" stroke="black" stroke-width="0.984615"/>
<path fill-rule="evenodd" clip-rule="evenodd" d="M918.759 580.518C921.659 580.518 924.01 578.167 924.01 575.267C924.01 572.366 921.659 570.015 918.759 570.015C915.859 570.015 913.508 572.366 913.508 575.267C913.508 578.167 915.859 580.518 918.759 580.518Z" fill="black"/>
<path fill-rule="evenodd" clip-rule="evenodd" d="M918.759 591.021C921.659 591.021 924.01 588.669 924.01 585.769C924.01 582.869 921.659 580.518 918.759 580.518C915.859 580.518 913.508 582.869 913.508 585.769C913.508 588.669 915.859 591.021 918.759 591.021Z" fill="black"/>
<path fill-rule="evenodd" clip-rule="evenodd" d="M929.262 570.015C932.162 570.015 934.513 567.664 934.513 564.764C934.513 561.864 932.162 559.513 929.262 559.513C926.361 559.513 924.01 561.864 924.01 564.764C924.01 567.664 926.361 570.015 929.262 570.015Z" fill="black"/>
<path fill-rule="evenodd" clip-rule="evenodd" d="M929.262 601.523C932.162 601.523 934.513 599.172 934.513 596.272C934.513 593.372 932.162 591.021 929.262 591.021C926.361 591.021 924.01 593.372 924.01 596.272C924.01 599.172 926.361 601.523 929.262 601.523Z" fill="black"/>
<path fill-rule="evenodd" clip-rule="evenodd" d="M939.764 559.513C942.664 559.513 945.015 557.162 945.015 554.262C945.015 551.361 942.664 549.01 939.764 549.01C936.864 549.01 934.513 551.361 934.513 554.262C934.513 557.162 936.864 559.513 939.764 559.513Z" fill="black"/>
<path fill-rule="evenodd" clip-rule="evenodd" d="M939.764 570.015C942.664 570.015 945.015 567.664 945.015 564.764C945.015 561.864 942.664 559.513 939.764 559.513C936.864 559.513 934.513 561.864 934.513 564.764C934.513 567.664 936.864 570.015 939.764 570.015Z" fill="black"/>
<path fill-rule="evenodd" clip-rule="evenodd" d="M939.764 601.523C942.664 601.523 945.015 599.172 945.015 596.272C945.015 593.372 942.664 591.021 939.764 591.021C936.864 591.021 934.513 593.372 934.513 596.272C934.513 599.172 936.864 601.523 939.764 601.523Z" fill="black"/>
<path fill-rule="evenodd" clip-rule="evenodd" d="M950.267 549.01C953.167 549.01 955.518 546.659 955.518 543.759C955.518 540.859 953.167 538.508 950.267 538.508C947.366 538.508 945.015 540.859 945.015 543.759C945.015 546.659 947.366 549.01 950.267 549.01Z" fill="black"/>
<path fill-rule="evenodd" clip-rule="evenodd" d="M950.267 601.523C953.167 601.523 955.518 599.172 955.518 596.272C955.518 593.372 953.167 591.021 950.267 591.021C947.366 591.021 945.015 593.372 945.015 596.272C945.015 599.172 947.366 601.523 950.267 601.523Z" fill="black"/>
<path fill-rule="evenodd" clip-rule="evenodd" d="M960.769 549.01C963.669 549.01 966.021 546.659 966.021 543.759C966.021 540.859 963.669 538.508 960.769 538.508C957.869 538.508 955.518 540.859 955.518 543.759C955.518 546.659 957.869 549.01 960.769 549.01Z" fill="black"/>
<path fill-rule="evenodd" clip-rule="evenodd" d="M960.769 601.523C963.669 601.523 966.021 599.172 966.021 596.272C966.021 593.372 963.669 591.021 960.769 591.021C957.869 591.021 955.518 593.372 955.518 596.272C955.518 599.172 957.869 601.523 960.769 601.523Z" fill="black"/>
<path fill-rule="evenodd" clip-rule="evenodd" d="M971.272 559.513C974.172 559.513 976.523 557.162 976.523 554.262C976.523 551.361 974.172 549.01 971.272 549.01C968.372 549.01 966.021 551.361 966.021 554.262C966.021 557.162 968.372 559.513 971.272 559.513Z" fill="black"/>
<path fill-rule="evenodd" clip-rule="evenodd" d="M971.272 570.015C974.172 570.015 976.523 567.664 976.523 564.764C976.523 561.864 974.172 559.513 971.272 559.513C968.372 559.513 966.021 561.864 966.021 564.764C966.021 567.664 968.372 570.015 971.272 570.015Z" fill="black"/>
<path fill-rule="evenodd" clip-rule="evenodd" d="M971.272 580.518C974.172 580.518 976.523 578.167 976.523 575.267C976.523 572.366 974.172 570.015 971.272 570.015C968.372 570.015 966.021 572.366 966.021 575.267C966.021 578.167 968.372 580.518 971.272 580.518Z" fill="black"/>
<path fill-rule="evenodd" clip-rule="evenodd" d="M971.272 591.021C974.172 591.021 976.523 588.669 976.523 585.769C976.523 582.869 974.172 580.518 971.272 580.518C968.372 580.518 966.021 582.869 966.021 585.769C966.021 588.669 968.372 591.021 971.272 591.021Z" fill="black"/>
<path fill-rule="evenodd" clip-rule="evenodd" d="M971.272 601.523C974.172 601.523 976.523 599.172 976.523 596.272C976.523 593.372 974.172 591.021 971.272 591.021C968.372 591.021 966.021 593.372 966.021 596.272C966.021 599.172 968.372 601.523 971.272 601.523Z" fill="black"/>
<path fill-rule="evenodd" clip-rule="evenodd" d="M1173.02 662.031C1207.82 662.031 1236.03 633.818 1236.03 599.015C1236.03 564.213 1207.82 536 1173.02 536C1138.21 536 1110 564.213 1110 599.015C1110 633.818 1138.21 662.031 1173.02 662.031Z" fill="black" stroke="black" stroke-width="0.984615"/>
<path fill-rule="evenodd" clip-rule="evenodd" d="M1136.26 567.508C1139.16 567.508 1141.51 565.157 1141.51 562.256C1141.51 559.356 1139.16 557.005 1136.26 557.005C1133.36 557.005 1131.01 559.356 1131.01 562.256C1131.01 565.157 1133.36 567.508 1136.26 567.508Z" fill="white"/>
<path fill-rule="evenodd" clip-rule="evenodd" d="M1146.76 588.513C1149.66 588.513 1152.01 586.162 1152.01 583.262C1152.01 580.361 1149.66 578.01 1146.76 578.01C1143.86 578.01 1141.51 580.361 1141.51 583.262C1141.51 586.162 1143.86 588.513 1146.76 588.513Z" fill="white"/>
<path fill-rule="evenodd" clip-rule="evenodd" d="M1146.76 599.015C1149.66 599.015 1152.01 596.664 1152.01 593.764C1152.01 590.864 1149.66 588.513 1146.76 588.513C1143.86 588.513 1141.51 590.864 1141.51 593.764C1141.51 596.664 1143.86 599.015 1146.76 599.015Z" fill="white"/>
<path fill-rule="evenodd" clip-rule="evenodd" d="M1146.76 609.518C1149.66 609.518 1152.01 607.167 1152.01 604.267C1152.01 601.366 1149.66 599.015 1146.76 599.015C1143.86 599.015 1141.51 601.366 1141.51 604.267C1141.51 607.167 1143.86 609.518 1146.76 609.518Z" fill="white"/>
<path fill-rule="evenodd" clip-rule="evenodd" d="M1146.76 620.021C1149.66 620.021 1152.01 617.669 1152.01 614.769C1152.01 611.869 1149.66 609.518 1146.76 609.518C1143.86 609.518 1141.51 611.869 1141.51 614.769C1141.51 617.669 1143.86 620.021 1146.76 620.021Z" fill="white"/>
<path fill-rule="evenodd" clip-rule="evenodd" d="M1146.76 641.026C1149.66 641.026 1152.01 638.675 1152.01 635.774C1152.01 632.874 1149.66 630.523 1146.76 630.523C1143.86 630.523 1141.51 632.874 1141.51 635.774C1141.51 638.675 1143.86 641.026 1146.76 641.026Z" fill="white"/>
<path fill-rule="evenodd" clip-rule="evenodd" d="M1157.26 620.021C1160.16 620.021 1162.51 617.669 1162.51 614.769C1162.51 611.869 1160.16 609.518 1157.26 609.518C1154.36 609.518 1152.01 611.869 1152.01 614.769C1152.01 617.669 1154.36 620.021 1157.26 620.021Z" fill="white"/>
<path fill-rule="evenodd" clip-rule="evenodd" d="M1157.26 641.026C1160.16 641.026 1162.51 638.675 1162.51 635.774C1162.51 632.874 1160.16 630.523 1157.26 630.523C1154.36 630.523 1152.01 632.874 1152.01 635.774C1152.01 638.675 1154.36 641.026 1157.26 641.026Z" fill="white"/>
<path fill-rule="evenodd" clip-rule="evenodd" d="M1167.76 609.518C1170.66 609.518 1173.02 607.167 1173.02 604.267C1173.02 601.366 1170.66 599.015 1167.76 599.015C1164.86 599.015 1162.51 601.366 1162.51 604.267C1162.51 607.167 1164.86 609.518 1167.76 609.518Z" fill="white"/>
<path fill-rule="evenodd" clip-rule="evenodd" d="M1167.76 620.021C1170.66 620.021 1173.02 617.669 1173.02 614.769C1173.02 611.869 1170.66 609.518 1167.76 609.518C1164.86 609.518 1162.51 611.869 1162.51 614.769C1162.51 617.669 1164.86 620.021 1167.76 620.021Z" fill="white"/>
<path fill-rule="evenodd" clip-rule="evenodd" d="M1167.76 641.026C1170.66 641.026 1173.02 638.675 1173.02 635.774C1173.02 632.874 1170.66 630.523 1167.76 630.523C1164.86 630.523 1162.51 632.874 1162.51 635.774C1162.51 638.675 1164.86 641.026 1167.76 641.026Z" fill="white"/>
<path fill-rule="evenodd" clip-rule="evenodd" d="M1178.27 641.026C1181.17 641.026 1183.52 638.675 1183.52 635.774C1183.52 632.874 1181.17 630.523 1178.27 630.523C1175.37 630.523 1173.02 632.874 1173.02 635.774C1173.02 638.675 1175.37 641.026 1178.27 641.026Z" fill="white"/>
<path fill-rule="evenodd" clip-rule="evenodd" d="M1188.77 578.01C1191.67 578.01 1194.02 575.659 1194.02 572.759C1194.02 569.859 1191.67 567.508 1188.77 567.508C1185.87 567.508 1183.52 569.859 1183.52 572.759C1183.52 575.659 1185.87 578.01 1188.77 578.01Z" fill="white"/>
<path fill-rule="evenodd" clip-rule="evenodd" d="M1188.77 641.026C1191.67 641.026 1194.02 638.675 1194.02 635.774C1194.02 632.874 1191.67 630.523 1188.77 630.523C1185.87 630.523 1183.52 632.874 1183.52 635.774C1183.52 638.675 1185.87 641.026 1188.77 641.026Z" fill="white"/>
<path fill-rule="evenodd" clip-rule="evenodd" d="M1199.27 641.026C1202.17 641.026 1204.52 638.675 1204.52 635.774C1204.52 632.874 1202.17 630.523 1199.27 630.523C1196.37 630.523 1194.02 632.874 1194.02 635.774C1194.02 638.675 1196.37 641.026 1199.27 641.026Z" fill="white"/>
<path fill-rule="evenodd" clip-rule="evenodd" d="M1209.77 578.01C1212.67 578.01 1215.03 575.659 1215.03 572.759C1215.03 569.859 1212.67 567.508 1209.77 567.508C1206.87 567.508 1204.52 569.859 1204.52 572.759C1204.52 575.659 1206.87 578.01 1209.77 578.01Z" fill="white"/>
<path fill-rule="evenodd" clip-rule="evenodd" d="M1209.77 588.513C1212.67 588.513 1215.03 586.162 1215.03 583.262C1215.03 580.361 1212.67 578.01 1209.77 578.01C1206.87 578.01 1204.52 580.361 1204.52 583.262C1204.52 586.162 1206.87 588.513 1209.77 588.513Z" fill="white"/>
<path fill-rule="evenodd" clip-rule="evenodd" d="M1209.77 599.015C1212.67 599.015 1215.03 596.664 1215.03 593.764C1215.03 590.864 1212.67 588.513 1209.77 588.513C1206.87 588.513 1204.52 590.864 1204.52 593.764C1204.52 596.664 1206.87 599.015 1209.77 599.015Z" fill="white"/>
<path fill-rule="evenodd" clip-rule="evenodd" d="M1209.77 609.518C1212.67 609.518 1215.03 607.167 1215.03 604.267C1215.03 601.366 1212.67 599.015 1209.77 599.015C1206.87 599.015 1204.52 601.366 1204.52 604.267C1204.52 607.167 1206.87 609.518 1209.77 609.518Z" fill="white"/>
<path fill-rule="evenodd" clip-rule="evenodd" d="M1209.77 620.021C1212.67 620.021 1215.03 617.669 1215.03 614.769C1215.03 611.869 1212.67 609.518 1209.77 609.518C1206.87 609.518 1204.52 611.869 1204.52 614.769C1204.52 617.669 1206.87 620.021 1209.77 620.021Z" fill="white"/>
<path fill-rule="evenodd" clip-rule="evenodd" d="M1209.77 630.523C1212.67 630.523 1215.03 628.172 1215.03 625.272C1215.03 622.372 1212.67 620.021 1209.77 620.021C1206.87 620.021 1204.52 622.372 1204.52 625.272C1204.52 628.172 1206.87 630.523 1209.77 630.523Z" fill="white"/>
<path fill-rule="evenodd" clip-rule="evenodd" d="M1209.77 641.026C1212.67 641.026 1215.03 638.675 1215.03 635.774C1215.03 632.874 1212.67 630.523 1209.77 630.523C1206.87 630.523 1204.52 632.874 1204.52 635.774C1204.52 638.675 1206.87 641.026 1209.77 641.026Z" fill="white"/>
<path fill-rule="evenodd" clip-rule="evenodd" d="M-5.98462 165.031C28.8178 165.031 57.0308 136.818 57.0308 102.015C57.0308 67.2129 28.8178 39 -5.98462 39C-40.7871 39 -69 67.2129 -69 102.015C-69 136.818 -40.7871 165.031 -5.98462 165.031Z" fill="white" stroke="black" stroke-width="0.984615"/>
<path fill-rule="evenodd" clip-rule="evenodd" d="M9.76923 91.5128C12.6694 91.5128 15.0205 89.1617 15.0205 86.2615C15.0205 83.3613 12.6694 81.0103 9.76923 81.0103C6.86902 81.0103 4.51794 83.3613 4.51794 86.2615C4.51794 89.1617 6.86902 91.5128 9.76923 91.5128Z" fill="black"/>
<path fill-rule="evenodd" clip-rule="evenodd" d="M9.76923 112.518C12.6694 112.518 15.0205 110.167 15.0205 107.267C15.0205 104.366 12.6694 102.015 9.76923 102.015C6.86902 102.015 4.51794 104.366 4.51794 107.267C4.51794 110.167 6.86902 112.518 9.76923 112.518Z" fill="black"/>
<path fill-rule="evenodd" clip-rule="evenodd" d="M20.2718 102.015C23.172 102.015 25.5231 99.6643 25.5231 96.7641C25.5231 93.8639 23.172 91.5128 20.2718 91.5128C17.3716 91.5128 15.0205 93.8639 15.0205 96.7641C15.0205 99.6643 17.3716 102.015 20.2718 102.015Z" fill="black"/>
<path fill-rule="evenodd" clip-rule="evenodd" d="M1244.02 398.031C1278.82 398.031 1307.03 369.818 1307.03 335.015C1307.03 300.213 1278.82 272 1244.02 272C1209.21 272 1181 300.213 1181 335.015C1181 369.818 1209.21 398.031 1244.02 398.031Z" fill="black" stroke="black" stroke-width="0.984615"/>
<path fill-rule="evenodd" clip-rule="evenodd" d="M1217.76 324.513C1220.66 324.513 1223.01 322.162 1223.01 319.262C1223.01 316.361 1220.66 314.01 1217.76 314.01C1214.86 314.01 1212.51 316.361 1212.51 319.262C1212.51 322.162 1214.86 324.513 1217.76 324.513Z" fill="white"/>
<path fill-rule="evenodd" clip-rule="evenodd" d="M1217.76 345.518C1220.66 345.518 1223.01 343.167 1223.01 340.267C1223.01 337.366 1220.66 335.015 1217.76 335.015C1214.86 335.015 1212.51 337.366 1212.51 340.267C1212.51 343.167 1214.86 345.518 1217.76 345.518Z" fill="white"/>
<path fill-rule="evenodd" clip-rule="evenodd" d="M1217.76 366.523C1220.66 366.523 1223.01 364.172 1223.01 361.272C1223.01 358.372 1220.66 356.021 1217.76 356.021C1214.86 356.021 1212.51 358.372 1212.51 361.272C1212.51 364.172 1214.86 366.523 1217.76 366.523Z" fill="white"/>
<path fill-rule="evenodd" clip-rule="evenodd" d="M1228.26 314.01C1231.16 314.01 1233.51 311.659 1233.51 308.759C1233.51 305.859 1231.16 303.508 1228.26 303.508C1225.36 303.508 1223.01 305.859 1223.01 308.759C1223.01 311.659 1225.36 314.01 1228.26 314.01Z" fill="white"/>
<path fill-rule="evenodd" clip-rule="evenodd" d="M1228.26 335.015C1231.16 335.015 1233.51 332.664 1233.51 329.764C1233.51 326.864 1231.16 324.513 1228.26 324.513C1225.36 324.513 1223.01 326.864 1223.01 329.764C1223.01 332.664 1225.36 335.015 1228.26 335.015Z" fill="white"/>
<path fill-rule="evenodd" clip-rule="evenodd" d="M1228.26 356.021C1231.16 356.021 1233.51 353.669 1233.51 350.769C1233.51 347.869 1231.16 345.518 1228.26 345.518C1225.36 345.518 1223.01 347.869 1223.01 350.769C1223.01 353.669 1225.36 356.021 1228.26 356.021Z" fill="white"/>
<path fill-rule="evenodd" clip-rule="evenodd" d="M1228.26 366.523C1231.16 366.523 1233.51 364.172 1233.51 361.272C1233.51 358.372 1231.16 356.021 1228.26 356.021C1225.36 356.021 1223.01 358.372 1223.01 361.272C1223.01 364.172 1225.36 366.523 1228.26 366.523Z" fill="white"/>
</svg>
